<svg xmlns="http://www.w3.org/2000/svg" viewBox="0 0 513.92 513.92"><defs><style>.cls-1{fill:#fff;}.cls-2{fill:#6670df;}.cls-3{fill:#fcf4d5;}.cls-4{fill:#e48238;}.cls-5{fill:#8553a6;}.cls-6{fill:#de5023;}.cls-7{fill:#f8e7a2;}.cls-8{fill:#f8e6a0;}.cls-9{fill:#f3d358;}.cls-10{fill:#fdfdfd;}.cls-11{fill:#fafaf9;}.cls-12{fill:#4d7c8e;}.cls-13{fill:#fcfcfc;}.cls-14{fill:#4b7888;}.cls-15{fill:#faeccc;}.cls-16{fill:#f3d054;}.cls-17{fill:#2c1a16;}.cls-18{fill:#feaed7;}.cls-19{fill:#0cb9ed;}.cls-20{fill:#ff4f19;}.cls-21{fill:#ffe9c4;}.cls-22{fill:#fbaed6;}.cls-23{fill:#5d2b1f;}.cls-24{fill:#ff761a;}.cls-25{fill:#fff4d4;}.cls-26{fill:#fcf4d4;}.cls-27{fill:#427185;}.cls-28{fill:#e37529;}.cls-29{fill:#ebadd3;}.cls-30{fill:#037287;}.cls-31{fill:#ffe7a0;}.cls-32{fill:#ff7316;}.cls-33{fill:#ecadd4;}.cls-34{fill:#ebafd5;}</style></defs><g id="Layer_2" data-name="Layer 2"><g id="Graphic_elements" data-name="Graphic elements"><rect class="cls-1" width="513.92" height="513.92" rx="256.96"/><path class="cls-2" d="M317.05,199.85v64.2a34.17,34.17,0,0,1-.34,4.4,14.42,14.42,0,0,0-.07,2q0,38.74,0,77.48c0,3.18,0,6.37,0,9.55a2.67,2.67,0,0,1-2.53,2.81,13.09,13.09,0,0,1-1.4,0c-4.12,0-8.23-.06-12.35,0-28.81.37-57.62.06-86.44.16-7.8,0-15.61,0-23.41,0a17,17,0,0,1-2.67-.21,6.13,6.13,0,0,1-5.06-7,10.49,10.49,0,0,0,.15-1.85c0-2.25,0-4.5,0-6.76,0-.77.16-1.53.18-2.31.06-2.84-.09-5.67-.25-8.5-.45-7.91-.35-15.83-.41-23.74,0-5.36,0-10.72-.06-16.08-.32-18.17-.25-36.35-.09-54.52.26-32.23,0-64.46.1-96.69,0-2.87,0-5.75.06-8.62a35,35,0,0,1,.24-3.83,5.14,5.14,0,0,1,2.13-3.6,9.85,9.85,0,0,1,5.32-1.83c.86,0,1.71,0,2.57,0H295.93c3.69,0,7.36.3,11,.62,1.35.12,2.71,0,4.06.29a6.91,6.91,0,0,1,5.87,6.68c.16,2.25.14,4.5.14,6.75Q317.06,169.56,317.05,199.85Zm-70.32-29.44v0H195.47a10.9,10.9,0,0,0-1.28,0,2.41,2.41,0,0,0-2.19,2.2c0,2-.13,4-.2,6-.11,3.42-.09,6.84-.08,10.25q0,36,.06,72c.05,17-.24,34.08.18,51.12a59.28,59.28,0,0,1-.17,6.39c-.11,1.24.19,2.47.18,3.71,0,2.84,0,5.67.06,8.5a2.55,2.55,0,0,0,2.29,2.75,5.48,5.48,0,0,0,1.39.11c25.62-.14,51.24.23,76.87-.18,11.21-.18,22.44,0,33.66,0,1.13,0,2.25,0,3.38,0a1.87,1.87,0,0,0,1.95-2.37,7.23,7.23,0,0,1,0-.93c0-2,0-3.94,0-5.91s.23-4,.23-6c0-27.88,0-55.76,0-83.64,0-16.07.24-32.15-.18-48.22-.11-4.57-.3-9.15-.29-13.73a3.18,3.18,0,0,0-.19-1.14,1.08,1.08,0,0,0-1.36-.77,7.74,7.74,0,0,1-1.73.11c-3.57,0-7.14-.15-10.71-.16C280.43,170.38,263.58,170.41,246.73,170.41Zm2,185.22a5.89,5.89,0,0,0,6.27-4.45,10.75,10.75,0,0,0,.37-3.1,6.28,6.28,0,0,0-3.1-5.62,7.45,7.45,0,0,0-7.93.18,7.87,7.87,0,0,0-3.06,4.14c-1.08,3.29,0,6.61,3.39,8A8.28,8.28,0,0,0,248.73,355.63Z"/><path class="cls-3" d="M246.73,170.41c16.85,0,33.7,0,50.55,0,3.57,0,7.14.16,10.71.16a7.74,7.74,0,0,0,1.73-.11,1.08,1.08,0,0,1,1.36.77,3.18,3.18,0,0,1,.19,1.14c0,4.58.18,9.16.29,13.73.42,16.07.14,32.15.18,48.22.05,27.88,0,55.76,0,83.64,0,2-.31,4-.23,6s0,3.94,0,5.91a7.23,7.23,0,0,0,0,.93,1.87,1.87,0,0,1-1.95,2.37c-1.13.06-2.25,0-3.38,0-11.22,0-22.45-.16-33.66,0-25.63.41-51.25,0-76.87.18a5.48,5.48,0,0,1-1.39-.11,2.55,2.55,0,0,1-2.29-2.75c-.05-2.83-.09-5.66-.06-8.5,0-1.24-.29-2.47-.18-3.71A59.28,59.28,0,0,0,192,312c-.42-17-.13-34.08-.18-51.12q-.1-36-.06-72c0-3.41,0-6.83.08-10.25.07-2,.23-4,.2-6a2.41,2.41,0,0,1,2.19-2.2,10.9,10.9,0,0,1,1.28,0h51.26Zm6.45,19.52h-.58l-48,.07a23.52,23.52,0,0,0-3.93.34,1.52,1.52,0,0,0-1.49,1.5,16.18,16.18,0,0,0-.14,2.09c0,4.77-.22,9.54-.23,14.32,0,14.25,0,28.49,0,42.74,0,.39,0,.78,0,1.17a2.08,2.08,0,0,0,2.28,2.24q1.46.09,2.91.09c28,.15,56-.28,84,.17,3.3.06,6.6,0,9.9,0,2.17,0,4.35,0,6.52-.14,1.06-.05,1.28-.28,1.31-1.33,0-.16,0-.31,0-.47q0-29.82,0-59.63c0-.35,0-.7,0-1a2,2,0,0,0-1.64-2,6.39,6.39,0,0,0-1.85-.13Zm-31.61,69.12h0c-1.79,0-3.57,0-5.36,0-5.35.06-10.71-.14-16.07.12-1.31.07-1.75.46-1.85,1.72-.22,2.95-.13,5.9-.09,8.85,0,1.53.63,2.08,2.15,2.15.42,0,.85,0,1.28,0,11.49,0,23,0,34.47,0a51.82,51.82,0,0,0,5.57-.17c1.44-.16,1.74-.44,1.74-1.89,0-2.95,0-5.9,0-8.85,0-1.55-.39-1.92-1.93-1.92Zm31.16,40.88h51.94a2.57,2.57,0,0,0,1.47-.22c.37-.22.79-.46.64-1a.9.9,0,0,0-1-.66c-1.6.08-3.17-.21-4.75-.22q-49.67,0-99.34,0h-.93a2.66,2.66,0,0,0-1.32.38c-.56.32-.56.74-.15,1.24s1,.47,1.6.47Zm.19,8.16h-51.7a9.11,9.11,0,0,0-1.17,0,1.4,1.4,0,0,0-1,1c0,.42.35.7,1,.88a9.82,9.82,0,0,0,2.42.21h97.11c2.05,0,4.09-.37,6.15-.23a.91.91,0,0,0,.23,0,.92.92,0,0,0,.84-.7c.1-.41-.21-.63-.5-.84a2.65,2.65,0,0,0-1.68-.31Zm.12-20.27H201.21a7.59,7.59,0,0,0-1.17,0,.91.91,0,0,0,0,1.81,5.75,5.75,0,0,0,.93,0H305a4.39,4.39,0,0,0,.81,0,.92.92,0,0,0,.83-.95.88.88,0,0,0-.81-.85,7.46,7.46,0,0,0-1.16,0Zm9.37-24.46c-.39,0-.78,0-1.16,0a1.21,1.21,0,0,0-1.15.66,1.16,1.16,0,0,0,.4,1.35,4.21,4.21,0,0,0,1.15.77c1,.48,1,.48.63,1.56-.15.45-.27.9-.44,1.33a1.2,1.2,0,0,0,.25,1.48c.42.39.93.38,1.6-.06s1.06-.78,1.6-1.15c.74-.51.74-.5,1.37.07s1,.92,1.59,1.36a1.29,1.29,0,0,0,1.5.17,1.14,1.14,0,0,0,.38-1.35c-.17-.48-.27-1-.42-1.45-.37-1.19-.38-1.19.75-1.82a3.26,3.26,0,0,0,.4-.24,1.14,1.14,0,0,0,.5-1.1,1.12,1.12,0,0,0-.9-.95,4.91,4.91,0,0,0-1.26-.13c-1.08,0-1.12-.05-1.49-1.08-.16-.44-.28-.88-.45-1.31a1.17,1.17,0,0,0-2.15-.36,6.78,6.78,0,0,0-.92,1.61.93.93,0,0,1-1.08.64A5.45,5.45,0,0,0,262.41,263.36Zm12.76,0v0c-.43,0-.86,0-1.28,0a1.1,1.1,0,0,0-1,.74,1,1,0,0,0,.3,1.15,4.49,4.49,0,0,0,1.44,1c.77.37.76.39.5,1.24-.15.51-.29,1-.47,1.55s-.3,1.06.21,1.49,1.07.25,1.61,0,1-.84,1.58-1.19c.76-.46.74-.48,1.38.07s1.1,1,1.67,1.44a1.22,1.22,0,0,0,1.42.1,1,1,0,0,0,.43-1.32c-.11-.41-.26-.81-.39-1.22-.43-1.38-.43-1.38.84-2.18.09-.06.2-.11.29-.18a1.1,1.1,0,0,0-.39-2,3.29,3.29,0,0,0-1.49-.14,1.1,1.1,0,0,1-1.28-.91,16,16,0,0,0-.56-1.65,1.08,1.08,0,0,0-1.86-.39,3.39,3.39,0,0,0-1,1.44,1.34,1.34,0,0,1-1.68,1A1.36,1.36,0,0,0,275.17,263.35Zm18.91,7.7a1,1,0,0,0,1-1.31c-.14-.64-.36-1.26-.55-1.89-.3-1-.3-1,.55-1.43a4.47,4.47,0,0,0,.71-.4,1.11,1.11,0,0,0-.35-2,3.15,3.15,0,0,0-1.49-.15,1.1,1.1,0,0,1-1.28-.9c-.16-.52-.32-1-.52-1.54a1.1,1.1,0,0,0-2-.43,5.05,5.05,0,0,0-1,1.66,1,1,0,0,1-1.16.71,12.83,12.83,0,0,0-1.86,0,1.12,1.12,0,0,0-1.11.7,1.18,1.18,0,0,0,.37,1.26,4.18,4.18,0,0,0,1.46.93c.52.2.74.48.49,1.06a18.05,18.05,0,0,0-.57,1.76,2.3,2.3,0,0,0-.14.56,1.11,1.11,0,0,0,1.64,1,10.53,10.53,0,0,0,2-1.39.84.84,0,0,1,1.3.07c.48.5,1.05.91,1.56,1.38A1.31,1.31,0,0,0,294.08,271.05Zm-45.73-7.69h0a11.2,11.2,0,0,0-1.16,0c-.48.05-.95.19-1.11.71a1.21,1.21,0,0,0,.46,1.44,4.37,4.37,0,0,0,1.32.73.7.7,0,0,1,.5,1c-.17.55-.36,1.1-.53,1.66-.25.82-.14,1.34.35,1.67a1.3,1.3,0,0,0,1.61-.2c.54-.38,1.05-.8,1.57-1.2a.8.8,0,0,1,1.22.11,13.72,13.72,0,0,0,1.57,1.38,1.33,1.33,0,0,0,1.51.27c.57-.28.47-.87.39-1.35a9.56,9.56,0,0,0-.53-1.9.78.78,0,0,1,.49-1.19,2.51,2.51,0,0,0,.86-.58,1.11,1.11,0,0,0-.52-2,5.53,5.53,0,0,0-1.62-.1.77.77,0,0,1-.86-.59c-.18-.6-.41-1.18-.64-1.75a1.36,1.36,0,0,0-1.07-1,1.2,1.2,0,0,0-1.23.71c-.25.44-.54.86-.75,1.31a1.06,1.06,0,0,1-1.25.78A3.74,3.74,0,0,0,248.35,263.36Z"/><path class="cls-4" d="M248.73,355.63a8.28,8.28,0,0,1-4.06-.84c-3.36-1.4-4.47-4.72-3.39-8a7.87,7.87,0,0,1,3.06-4.14,7.45,7.45,0,0,1,7.93-.18,6.28,6.28,0,0,1,3.1,5.62,10.75,10.75,0,0,1-.37,3.1A5.89,5.89,0,0,1,248.73,355.63Z"/><path class="cls-5" d="M253.18,189.93h49a6.39,6.39,0,0,1,1.85.13,2,2,0,0,1,1.64,2c0,.35,0,.7,0,1q0,29.81,0,59.63c0,.16,0,.31,0,.47,0,1.05-.25,1.28-1.31,1.33-2.17.1-4.35.14-6.52.14-3.3,0-6.6.05-9.9,0-28-.45-56,0-84-.17q-1.45,0-2.91-.09a2.08,2.08,0,0,1-2.28-2.24c0-.39,0-.78,0-1.17,0-14.25,0-28.49,0-42.74,0-4.78.25-9.55.23-14.32a16.18,16.18,0,0,1,.14-2.09,1.52,1.52,0,0,1,1.49-1.5,23.52,23.52,0,0,1,3.93-.34l48-.07Zm36.34,49.65a10.71,10.71,0,0,0-4.44-6.83,25.17,25.17,0,0,0-7.58-3.69,1.11,1.11,0,0,0-1.6-.66l-3-1.28a7.12,7.12,0,0,0,.13-.91,2.23,2.23,0,0,0-3.4-2.13,6.32,6.32,0,0,0-1.35,1.06l-1.68-.72c.71-1.75-.09-2.87-1.95-2.77a3,3,0,0,0-1.41.45,6,6,0,0,1-1.22.61l-2.12-.82A5.48,5.48,0,0,0,260,220a1.63,1.63,0,0,0-2.15-1.49,4.85,4.85,0,0,0-1.7.73c-.51.35-1,.65-1.58,1L254,220a3.4,3.4,0,0,0-4.86-4,11.24,11.24,0,0,0-1.46.93,5.84,5.84,0,0,1-1.88-1.54,30.35,30.35,0,0,1-2.49-3.9c-.51-1.19-1-1.36-2.23-.9-3.46,1.35-6.95,2.63-10.36,4.1a1.75,1.75,0,0,0-1,2.6c.16.38.51.7.42,1.17a2.54,2.54,0,0,1-1.16.08c-3.41-.05-6.79-.67-10.2-.82a16.08,16.08,0,0,0-6.09.58,3.31,3.31,0,0,0-1.91,1.57,9.35,9.35,0,0,0-.73,2.42,20.23,20.23,0,0,0-1,6.29c.08,2.13,0,4.27.08,6.4a24.38,24.38,0,0,0,.82,5.62,2.16,2.16,0,0,0,.44,1.51c.16.6.3,1.2.47,1.8a1.65,1.65,0,0,0,1.83,1.45c1.62.07,3.25.15,4.88.16q6.24,0,12.47,0c18.87,0,37.74.13,56.61-.18h.93a1.93,1.93,0,0,0,2.13-1.85,9.09,9.09,0,0,0,0-2.33C289.94,240.66,289.57,240.13,289.52,239.58Z"/><path class="cls-6" d="M221.57,259.05h19.91c1.54,0,1.93.37,1.93,1.92,0,2.95,0,5.9,0,8.85,0,1.45-.3,1.73-1.74,1.89a51.82,51.82,0,0,1-5.57.17c-11.49.05-23,0-34.47,0-.43,0-.86,0-1.28,0-1.52-.07-2.14-.62-2.15-2.15,0-2.95-.13-5.9.09-8.85.1-1.26.54-1.65,1.85-1.72,5.36-.26,10.72-.06,16.07-.12,1.79,0,3.57,0,5.36,0Zm-8.39,6.2h0a13.12,13.12,0,0,0,0,2.08c.25,1.58.91,2.18,2.12,2.07.27,0,.54,0,.82,0a2.81,2.81,0,0,0,2.63-2.65,1.13,1.13,0,0,0-.13-.67,1.73,1.73,0,0,1-.22-1.62,2,2,0,0,0-1.88-2.5,8.13,8.13,0,0,0-2.41.24,1.13,1.13,0,0,0-.94,1.17C213.16,264,213.18,264.63,213.18,265.25Zm6.25-.15h0c0,.54,0,1.08,0,1.62a2.45,2.45,0,0,0,2.47,2.43c1.81.12,2.86-.53,3.12-2a25.2,25.2,0,0,0,.22-2.89,2,2,0,0,0-.45-1.41.79.79,0,0,0-.92-.32.86.86,0,0,0-.6.78,2.37,2.37,0,0,0,0,.46,17,17,0,0,1-.05,2.67.77.77,0,0,1-.84.88c-.65,0-1-.17-1.14-.73a4.44,4.44,0,0,1-.1-1c0-.7,0-1.4-.05-2.09s-.48-1-.95-.95a.86.86,0,0,0-.75,1Zm9.4,4.07a.84.84,0,0,0,.8-.71,1.81,1.81,0,0,0,0-.8c-.33-1.46.47-2.5,1.26-3.55.09-.13.22-.22.32-.34.31-.35.47-.74.12-1.13a.84.84,0,0,0-1.16-.08,4,4,0,0,0-1,.94c-.54.67-.55.66-1.15,0q-.33-.41-.69-.78a.87.87,0,0,0-1.24-.17c-.46.36-.33.83-.07,1.25a8,8,0,0,0,.55.75,4.12,4.12,0,0,1,1.31,3.42,1.31,1.31,0,0,0,.12.67A.85.85,0,0,0,228.83,269.17Z"/><path class="cls-7" d="M252.73,299.93H200.91c-.58,0-1.16.07-1.6-.47s-.41-.92.15-1.24a2.66,2.66,0,0,1,1.32-.38h.93q49.68,0,99.34,0c1.58,0,3.15.3,4.75.22a.9.9,0,0,1,1,.66c.15.51-.27.75-.64,1a2.57,2.57,0,0,1-1.47.22H252.73Z"/><path class="cls-7" d="M252.92,308.09h51.7a2.65,2.65,0,0,1,1.68.31c.29.21.6.43.5.84a.92.92,0,0,1-.84.7.91.91,0,0,1-.23,0c-2.06-.14-4.1.23-6.15.23H202.47a9.82,9.82,0,0,1-2.42-.21c-.69-.18-1.07-.46-1-.88a1.4,1.4,0,0,1,1-1,9.11,9.11,0,0,1,1.17,0h51.7Z"/><path class="cls-8" d="M253,287.82h51.6a7.46,7.46,0,0,1,1.16,0,.88.88,0,0,1,.81.85.92.92,0,0,1-.83.95,4.39,4.39,0,0,1-.81,0H201a5.75,5.75,0,0,1-.93,0,.91.91,0,0,1,0-1.81,7.59,7.59,0,0,1,1.17,0H253Z"/><path class="cls-9" d="M262.41,263.36a5.45,5.45,0,0,1,.7,0,.93.93,0,0,0,1.08-.64,6.78,6.78,0,0,1,.92-1.61,1.17,1.17,0,0,1,2.15.36c.17.43.29.87.45,1.31.37,1,.41,1.06,1.49,1.08a4.91,4.91,0,0,1,1.26.13,1.12,1.12,0,0,1,.9.95,1.14,1.14,0,0,1-.5,1.1,3.26,3.26,0,0,1-.4.24c-1.13.63-1.12.63-.75,1.82.15.48.25,1,.42,1.45a1.14,1.14,0,0,1-.38,1.35,1.29,1.29,0,0,1-1.5-.17c-.55-.44-1.07-.9-1.59-1.36s-.63-.58-1.37-.07c-.54.37-1.05.79-1.6,1.15s-1.18.45-1.6.06a1.2,1.2,0,0,1-.25-1.48c.17-.43.29-.88.44-1.33.35-1.08.35-1.08-.63-1.56a4.21,4.21,0,0,1-1.15-.77,1.16,1.16,0,0,1-.4-1.35,1.21,1.21,0,0,1,1.15-.66C261.63,263.34,262,263.36,262.41,263.36Z"/><path class="cls-9" d="M275.17,263.35a1.36,1.36,0,0,1,.35,0,1.34,1.34,0,0,0,1.68-1,3.39,3.39,0,0,1,1-1.44,1.08,1.08,0,0,1,1.86.39,16,16,0,0,1,.56,1.65,1.1,1.1,0,0,0,1.28.91,3.29,3.29,0,0,1,1.49.14,1.1,1.1,0,0,1,.39,2c-.09.07-.2.12-.29.18-1.27.8-1.27.8-.84,2.18.13.41.28.81.39,1.22a1,1,0,0,1-.43,1.32,1.22,1.22,0,0,1-1.42-.1c-.57-.46-1.12-1-1.67-1.44s-.62-.53-1.38-.07c-.56.35-1,.88-1.58,1.19s-1.08.48-1.61,0-.39-.95-.21-1.49.32-1,.47-1.55c.26-.85.27-.87-.5-1.24a4.49,4.49,0,0,1-1.44-1,1,1,0,0,1-.3-1.15,1.1,1.1,0,0,1,1-.74c.42,0,.85,0,1.28,0Z"/><path class="cls-9" d="M294.08,271.05a1.31,1.31,0,0,1-.95-.35c-.51-.47-1.08-.88-1.56-1.38a.84.84,0,0,0-1.3-.07,10.53,10.53,0,0,1-2,1.39,1.11,1.11,0,0,1-1.64-1,2.3,2.3,0,0,1,.14-.56,18.05,18.05,0,0,1,.57-1.76c.25-.58,0-.86-.49-1.06a4.18,4.18,0,0,1-1.46-.93,1.18,1.18,0,0,1-.37-1.26,1.12,1.12,0,0,1,1.11-.7,12.83,12.83,0,0,1,1.86,0,1,1,0,0,0,1.16-.71,5.05,5.05,0,0,1,1-1.66,1.1,1.1,0,0,1,2,.43c.2.5.36,1,.52,1.54a1.1,1.1,0,0,0,1.28.9,3.15,3.15,0,0,1,1.49.15,1.11,1.11,0,0,1,.35,2,4.47,4.47,0,0,1-.71.4c-.85.46-.85.46-.55,1.43.19.63.41,1.25.55,1.89A1,1,0,0,1,294.08,271.05Z"/><path class="cls-9" d="M248.35,263.36a3.74,3.74,0,0,1,.58,0,1.06,1.06,0,0,0,1.25-.78c.21-.45.5-.87.75-1.31a1.2,1.2,0,0,1,1.23-.71,1.36,1.36,0,0,1,1.07,1c.23.57.46,1.15.64,1.75a.77.77,0,0,0,.86.59,5.53,5.53,0,0,1,1.62.1,1.11,1.11,0,0,1,.52,2,2.51,2.51,0,0,1-.86.58.78.78,0,0,0-.49,1.19,9.56,9.56,0,0,1,.53,1.9c.08.48.18,1.07-.39,1.35a1.33,1.33,0,0,1-1.51-.27,13.72,13.72,0,0,1-1.57-1.38.8.8,0,0,0-1.22-.11c-.52.4-1,.82-1.57,1.2a1.3,1.3,0,0,1-1.61.2c-.49-.33-.6-.85-.35-1.67.17-.56.36-1.11.53-1.66a.7.7,0,0,0-.5-1,4.37,4.37,0,0,1-1.32-.73,1.21,1.21,0,0,1-.46-1.44c.16-.52.63-.66,1.11-.71a11.2,11.2,0,0,1,1.16,0Z"/><path class="cls-10" d="M209.9,240.67a24.38,24.38,0,0,1-.82-5.62c-.08-2.13,0-4.27-.08-6.4a20.23,20.23,0,0,1,1-6.29,9.35,9.35,0,0,1,.73-2.42,3.31,3.31,0,0,1,1.91-1.57,16.08,16.08,0,0,1,6.09-.58c3.41.15,6.79.77,10.2.82a2.54,2.54,0,0,0,1.16-.08c.09-.47-.26-.79-.42-1.17a1.75,1.75,0,0,1,1-2.6c3.41-1.47,6.9-2.75,10.36-4.1,1.2-.46,1.72-.29,2.23.9a30.35,30.35,0,0,0,2.49,3.9,5.84,5.84,0,0,0,1.88,1.54l-.43.54a19.6,19.6,0,0,0-3,4.64,15.78,15.78,0,0,1-1.73,3.67,1.6,1.6,0,0,0-.25.65,1.26,1.26,0,0,0,1.44,1.59,1.35,1.35,0,0,0,1.31-1.85,2.12,2.12,0,0,1,.14-1.66,10.36,10.36,0,0,0,.52-1.3,15.93,15.93,0,0,1,3-4.66,1.46,1.46,0,0,1,.85-.58c1,.49,1.93,1.12,3,1.52A1.19,1.19,0,0,0,254,220l.59.24a14,14,0,0,0-2.64,5,11.73,11.73,0,0,0-.54,2.71,1.14,1.14,0,0,0,1.08,1.38,1.24,1.24,0,0,0,1.5-.8,1.34,1.34,0,0,0-.17-1.53,1.27,1.27,0,0,1-.12-1.59c.27-.64.53-1.29.8-1.94a4.27,4.27,0,0,1,2.39-2.55l1.43.4c.56.89.56.89,1.62.55l2.12.82c-.2.23-.39.47-.61.69a8.12,8.12,0,0,0-2.24,3.21,3.8,3.8,0,0,1-1,1.92,1.47,1.47,0,0,0,0,1.83,1.57,1.57,0,0,0,1.69.46c.59-.22.84-.68.77-1.52-.23-2.59,1.86-4.7,3.6-5.49a.63.63,0,0,1,.83.2,1.24,1.24,0,0,0,1.55.41l1.68.72a31.5,31.5,0,0,0-2.27,5.7,2.91,2.91,0,0,0-.1,1.49,1.21,1.21,0,0,0,1.69.74c.67-.26,1.06-1,.63-1.46-.58-.69-.34-1.28-.09-1.92.36-.89.73-1.79,1.12-2.67.17-.38.31-.8.75-1l1.26.51a1.12,1.12,0,0,0,1.63.58l3,1.28a16.88,16.88,0,0,0-3.13,2.77c-1.62,1.94-3.16,4-3.34,6.63-.05.58-.06,1.16-.06,1.74,0,.39-.16.58-.55.57h-.58c-9.23-.18-18.45.13-27.67.39-3.49.1-7-.06-10.47.11-2,.11-4.1.09-6.16.12a49.83,49.83,0,0,1-9.05-.37,1,1,0,0,1-.88-.74,15.44,15.44,0,0,1-.58-3.89,2.52,2.52,0,0,1,1.25-2.43,32.91,32.91,0,0,0,4.6-3.91A5.47,5.47,0,0,0,221,226a23.83,23.83,0,0,0,.22-3.48c.93.05,1.86.13,2.79.15a24.42,24.42,0,0,0,5.66-.41,1.38,1.38,0,0,0,1.19-1.37c0-.57-.5-1-1.28-1.13l-.23,0c-1.88-.24-3.73-.67-5.62-.87a42.07,42.07,0,0,0-6.82-.51,11.6,11.6,0,0,0-4,.85c-1,.43-1.1,1.13-.22,1.83a2.14,2.14,0,0,0,1,.38c1.89.43,3.83.55,5.73.91a13.55,13.55,0,0,0-.09,2.2,4.3,4.3,0,0,1-1.61,3.8,39.94,39.94,0,0,1-4.36,3.65,3.75,3.75,0,0,0-1.7,3.25,16.9,16.9,0,0,0,.5,4.37c.16.63.11.72-.53.84A8.31,8.31,0,0,0,209.9,240.67Z"/><path class="cls-11" d="M289.65,241.23a9.09,9.09,0,0,1,0,2.33,1.93,1.93,0,0,1-2.13,1.85h-.93c-18.87.31-37.74.13-56.61.18q-6.24,0-12.47,0c-1.63,0-3.26-.09-4.88-.16a1.65,1.65,0,0,1-1.83-1.45c-.17-.6-.31-1.2-.47-1.8.7,0,1.4,0,2.1-.09a13.09,13.09,0,0,1,3.25,0c1.08.15,2.16.16,3.24.21,3,.13,6-.24,9.08-.06a1.76,1.76,0,0,0,.23,0c2.67-.07,5.35-.15,8-.2l13.62-.25c2.83-.06,5.66-.21,8.49-.2,6.63,0,13.27.15,19.9,0,2.25,0,4.5-.18,6.75-.2A34.18,34.18,0,0,1,289.65,241.23Z"/><path class="cls-12" d="M289.65,241.23a34.18,34.18,0,0,0-4.63.22c-2.25,0-4.5.16-6.75.2-6.63.11-13.27,0-19.9,0-2.83,0-5.66.14-8.49.2l-13.62.25c-2.67.05-5.35.13-8,.2a1.76,1.76,0,0,1-.23,0c-3-.18-6,.19-9.08.06-1.08,0-2.16-.06-3.24-.21a13.09,13.09,0,0,0-3.25,0c-.7.08-1.4.06-2.1.09a2.16,2.16,0,0,1-.44-1.51,8.31,8.31,0,0,1,1.72-.19c.64-.12.69-.21.53-.84a16.9,16.9,0,0,1-.5-4.37,3.75,3.75,0,0,1,1.7-3.25,39.94,39.94,0,0,0,4.36-3.65,4.3,4.3,0,0,0,1.61-3.8,13.55,13.55,0,0,1,.09-2.2c.6,0,1.23-.17,1.8.19A23.83,23.83,0,0,1,221,226a5.47,5.47,0,0,1-1.71,3.35,32.91,32.91,0,0,1-4.6,3.91,2.52,2.52,0,0,0-1.25,2.43,15.44,15.44,0,0,0,.58,3.89,1,1,0,0,0,.88.74,49.83,49.83,0,0,0,9.05.37c2.06,0,4.11,0,6.16-.12,3.49-.17,7,0,10.47-.11,9.22-.26,18.44-.57,27.67-.39h.58c.39,0,.55-.18.55-.57,0-.58,0-1.16.06-1.74.18-2.68,1.72-4.69,3.34-6.63a16.88,16.88,0,0,1,3.13-2.77,1.11,1.11,0,0,1,1.6.66,1.72,1.72,0,0,1-.78,1,10.75,10.75,0,0,0-2.79,2.45c-1.62,1.92-3,4-3,6.63,0,1,0,1,1,1,4.69-.07,9.38-.07,14.07-.32a20.17,20.17,0,0,1,3.47-.23C289.57,240.13,289.94,240.66,289.65,241.23Z"/><path class="cls-13" d="M289.52,239.58a20.17,20.17,0,0,0-3.47.23c-4.69.25-9.38.25-14.07.32-1.05,0-1,0-1-1,0-2.67,1.36-4.71,3-6.63a10.75,10.75,0,0,1,2.79-2.45,1.72,1.72,0,0,0,.78-1,25.17,25.17,0,0,1,7.58,3.69A10.71,10.71,0,0,1,289.52,239.58Z"/><path class="cls-14" d="M254,220a1.19,1.19,0,0,1-1.54-.46,1.76,1.76,0,0,0-.18-.9c-.47-1.34-1.65-1.6-2.79-.62a1.46,1.46,0,0,0-.85.58,15.93,15.93,0,0,0-3,4.66,10.36,10.36,0,0,1-.52,1.3,2.12,2.12,0,0,0-.14,1.66,1.35,1.35,0,0,1-1.31,1.85,1.26,1.26,0,0,1-1.44-1.59,1.6,1.6,0,0,1,.25-.65,15.78,15.78,0,0,0,1.73-3.67,19.6,19.6,0,0,1,3-4.64l.43-.54a11.24,11.24,0,0,1,1.46-.93,3.4,3.4,0,0,1,4.86,4Z"/><path class="cls-14" d="M256.87,220.94a4.27,4.27,0,0,0-2.39,2.55c-.27.65-.53,1.3-.8,1.94a1.27,1.27,0,0,0,.12,1.59,1.34,1.34,0,0,1,.17,1.53,1.24,1.24,0,0,1-1.5.8,1.14,1.14,0,0,1-1.08-1.38,11.73,11.73,0,0,1,.54-2.71,14,14,0,0,1,2.64-5c.53-.33,1.07-.63,1.58-1a4.85,4.85,0,0,1,1.7-.73A1.63,1.63,0,0,1,260,220a5.48,5.48,0,0,1-.07,1.85c-1.07.34-1.07.34-1.63-.55.07-.34.22-.74-.08-1s-.71.07-1,.27C257.07,220.71,256.91,220.76,256.87,220.94Z"/><path class="cls-14" d="M266.63,224.42a1.24,1.24,0,0,1-1.55-.41.63.63,0,0,0-.83-.2c-1.74.79-3.83,2.9-3.6,5.49.07.84-.18,1.3-.77,1.52a1.57,1.57,0,0,1-1.69-.46,1.47,1.47,0,0,1,0-1.83,3.8,3.8,0,0,0,1-1.92,8.12,8.12,0,0,1,2.24-3.21c.22-.22.41-.46.61-.69a5.88,5.88,0,0,0,1.23-.61,3,3,0,0,1,1.41-.45C266.54,221.55,267.34,222.67,266.63,224.42Z"/><path class="cls-14" d="M270,226c-.44.19-.58.61-.75,1-.39.88-.76,1.78-1.12,2.67-.25.64-.49,1.23.09,1.92.43.5,0,1.2-.63,1.46a1.21,1.21,0,0,1-1.69-.74,2.91,2.91,0,0,1,.1-1.49,31.5,31.5,0,0,1,2.27-5.7,6.32,6.32,0,0,1,1.35-1.06,2.23,2.23,0,0,1,3.4,2.13,7.12,7.12,0,0,1-.13.91,1.12,1.12,0,0,1-1.63-.58c.13-.44.08-.88-.39-1A.71.71,0,0,0,270,226Z"/><path class="cls-15" d="M213.18,265.25c0-.62,0-1.24,0-1.86a1.13,1.13,0,0,1,.94-1.17,8.13,8.13,0,0,1,2.41-.24,2,2,0,0,1,1.88,2.5,1.73,1.73,0,0,0,.22,1.62,1.13,1.13,0,0,1,.13.67,2.81,2.81,0,0,1-2.63,2.65c-.28,0-.55,0-.82,0-1.21.11-1.87-.49-2.12-2.07a13.12,13.12,0,0,1,0-2.08Zm2.43,2.49c.63,0,1.28-.35,1.25-.78s-.31-.49-.65-.52c-.63-.06-1.11.2-1.15.65S215.17,267.76,215.61,267.74Zm.94-3.54c0-.14,0-.26-.11-.31a1.44,1.44,0,0,0-1.2,0,.46.46,0,0,0-.09.7c.19.27.49.16.74.11S216.47,264.53,216.55,264.2Z"/><path class="cls-15" d="M219.43,265.1v-1.63a.86.86,0,0,1,.75-1c.47-.07.9.32.95.95s0,1.39.05,2.09a4.44,4.44,0,0,0,.1,1c.13.56.49.74,1.14.73a.77.77,0,0,0,.84-.88,17,17,0,0,0,.05-2.67,2.37,2.37,0,0,1,0-.46.86.86,0,0,1,.6-.78.79.79,0,0,1,.92.32,2,2,0,0,1,.45,1.41,25.2,25.2,0,0,1-.22,2.89c-.26,1.52-1.31,2.17-3.12,2a2.45,2.45,0,0,1-2.47-2.43c0-.54,0-1.08,0-1.62Z"/><path class="cls-15" d="M228.83,269.17a.85.85,0,0,1-.82-.55,1.31,1.31,0,0,1-.12-.67,4.12,4.12,0,0,0-1.31-3.42,8,8,0,0,1-.55-.75c-.26-.42-.39-.89.07-1.25a.87.87,0,0,1,1.24.17q.36.38.69.78c.6.68.61.69,1.15,0a4,4,0,0,1,1-.94.84.84,0,0,1,1.16.08c.35.39.19.78-.12,1.13-.1.12-.23.21-.32.34-.79,1.05-1.59,2.09-1.26,3.55a1.81,1.81,0,0,1,0,.8A.84.84,0,0,1,228.83,269.17Z"/><path class="cls-9" d="M221.21,222.56c-.57-.36-1.2-.14-1.8-.19-1.9-.36-3.84-.48-5.73-.91a2.14,2.14,0,0,1-1-.38c-.88-.7-.82-1.4.22-1.83a11.6,11.6,0,0,1,4-.85,42.07,42.07,0,0,1,6.82.51c1.89.2,3.74.63,5.62.87l.23,0c.78.15,1.26.56,1.28,1.13a1.38,1.38,0,0,1-1.19,1.37,24.42,24.42,0,0,1-5.66.41C223.07,222.69,222.14,222.61,221.21,222.56Z"/><path class="cls-4" d="M249.47,218c1.14-1,2.32-.72,2.79.62a1.76,1.76,0,0,1,.18.9C251.4,219.16,250.47,218.53,249.47,218Z"/><path class="cls-4" d="M256.87,220.94c0-.18.2-.23.32-.3.32-.2.66-.54,1-.27s.15.63.08,1Z"/><path class="cls-4" d="M270,226a.71.71,0,0,1,.87-.52c.47.15.52.59.39,1Z"/><path class="cls-4" d="M215.61,267.74c-.44,0-.6-.23-.55-.65s.52-.71,1.15-.65c.34,0,.63.15.65.52S216.24,267.78,215.61,267.74Z"/><path class="cls-4" d="M216.55,264.2c-.08.33-.37.44-.66.51s-.55.16-.74-.11a.46.46,0,0,1,.09-.7,1.44,1.44,0,0,1,1.2,0C216.55,263.94,216.56,264.06,216.55,264.2Z"/><rect class="cls-2" x="283.5" y="282.87" width="77.4" height="47.44" rx="15.02"/><rect class="cls-16" x="283.5" y="290.18" width="77.4" height="8.79"/><rect class="cls-3" x="303.5" y="302.86" width="37.42" height="6.92"/><path class="cls-17" d="M168.59,307.21a6.87,6.87,0,0,0,.37,2.06c.29,1.42,0,1.87-1.49,1.85-.91,0-1.83-.18-2.74-.26-2.27-.2-4.54-.37-6.8-.6a10.93,10.93,0,0,0-2.21-.18c-.47-.09-.94-.19-1.41-.25l-4.54-.57a1.39,1.39,0,0,1-1.06-.42,14.92,14.92,0,0,0,.42-4,3.31,3.31,0,0,0,.15-1.62q.38-2.85.77-5.72a38.28,38.28,0,0,0,.89-6.75,56.19,56.19,0,0,1,2.24-12.86,6.74,6.74,0,0,1,2-3.18A9.32,9.32,0,0,1,160,272a4.6,4.6,0,0,1,1.17-.11c2.2.27,4.45.2,6.6.93a31.2,31.2,0,0,1,2.5,2.64c.61.77.6.78-.18,1.44-.36.31-.71.64-1.06.95-1,.37-1.77,1.12-2.78,1.46a1.17,1.17,0,0,0-.83,1.54c.12.55.14,1.12.22,1.68a73.69,73.69,0,0,1,.93,7.4,42.55,42.55,0,0,0,.64,5.85,17.23,17.23,0,0,0,.41,3.92,3.5,3.5,0,0,0,.11,1.87A26.08,26.08,0,0,0,168.59,307.21Z"/><path class="cls-18" d="M140.21,393.6a45.31,45.31,0,0,0,.51-5.2c.28-2.64,1.84-18.09,2.07-20.25.11-1.08,1.18-12.87,1.09-13.67.35,0,.69,0,1,0,3.79,0,7.57.31,11.35.1a10.33,10.33,0,0,1-.76,2.5c-1.39,3.6-1.94,7.41-2.9,11.12-.58,2.24-1,4.51-1.45,6.77-.52,2.74-.95,5.49-1.24,8.26-.23,2.16-.59,4.31-.87,6.46-.17,1.25-.29,2.51-.43,3.76-.37.13-.75.23-1.11.38A9,9,0,0,1,140.21,393.6Z"/><path class="cls-19" d="M156.27,354.55c-3.78.21-7.56-.11-11.35-.1-.35,0-.69,0-1,0a10.68,10.68,0,0,1-2.28-.44,1.19,1.19,0,0,1-.8-1.32,2.86,2.86,0,0,1,.15-.89,20.58,20.58,0,0,0,1.29-5.84,37.14,37.14,0,0,1,1-4.45,2.83,2.83,0,0,0,1.6.5c2.22.13,4.45.32,6.68.39,2.88.1,5.76.24,8.66.16,3.46-.11,6.91-.3,10.36-.39.47,0,1-.16,1.36.28a25.6,25.6,0,0,0,1.84,6.75,9.08,9.08,0,0,1,.58,2.39c.13.88-.1,1.12-1,1.36a9,9,0,0,1-1.54.2,1.85,1.85,0,0,0-1.16-.08l-2.2.35a51.07,51.07,0,0,1-6.65.63c-.56,0-1.12-.06-1.68-.07-1.22,0-1.22,0-1.67-1.18a1.85,1.85,0,0,0-.49-.95C157.23,352.68,157.41,354,156.27,354.55Z"/><path class="cls-18" d="M161.77,354.08a51.07,51.07,0,0,0,6.65-.63l2.2-.35a1.85,1.85,0,0,1,1.16.08c0,.78-.26,9.42-.48,12.94-.14,2.13-.92,20.34-.85,27.31a12.25,12.25,0,0,0-1.68.67,7.2,7.2,0,0,1-4.42.62c-.52,0-1-.18-1.54-.27C162.75,393.19,161.67,357.93,161.77,354.08Z"/><path class="cls-18" d="M130.49,347.66a4.63,4.63,0,0,1-1.26,1.65c-.22.21-.44.48-.79.27a.73.73,0,0,1-.3-.81,8.22,8.22,0,0,1,.56-2c.13-.27.35-.51.24-.85a2.41,2.41,0,0,0-1-.11.75.75,0,0,1-.8-.55.67.67,0,0,1,.42-.85c1.86-.87,3-2.51,4.26-4a11.16,11.16,0,0,0,1.81-4.18c.82-2.73,6.37-19.28,6.89-20.9a5.26,5.26,0,0,1,2.59.51,27.42,27.42,0,0,0,4,1.83c.89.32.92.47.68,1.36a27.9,27.9,0,0,0-.94,3.36,2.42,2.42,0,0,0-.55,1.9c-.12.7-.23,1.4-.35,2.1-.23.35-3.35,5.94-4.49,8.48-1,2.15-2.11,4.21-3.25,6.27a6.88,6.88,0,0,0-.39,4.94,5,5,0,0,1,.32,1.39c0,.34.09.74-.32.92a1,1,0,0,1-1.2-.26c-.27-.26-.37-.72-.86-.73a2.13,2.13,0,0,0-1.67-.56c-1.34-.1-2.72-.08-3.75-1.18a.41.41,0,0,0-.59,0,.56.56,0,0,0-.16.6c.14.51.62.7,1,1Z"/><path class="cls-20" d="M162.81,394.45c.52.09,1,.23,1.54.27a7.2,7.2,0,0,0,4.42-.62,12.25,12.25,0,0,1,1.68-.67,37.52,37.52,0,0,1,5.51.08,5,5,0,0,1,1.64.46,1.51,1.51,0,0,1,.3,2.6,32.32,32.32,0,0,1-6.22,4.13c-1.18.56-2.42,1-3.63,1.51a10.47,10.47,0,0,1-5.17.56,1.7,1.7,0,0,1-1.73-1.78,10.73,10.73,0,0,1,0-1.7c.08-1.05.13-2.1.28-3.14C161.59,395.36,161.85,394.61,162.81,394.45Z"/><path class="cls-20" d="M140.21,393.6a9,9,0,0,0,7.3.2c.36-.15.74-.25,1.11-.38,1.39,0,2.79-.05,4.19,0,1.2,0,1.65.49,1.67,1.68a2.46,2.46,0,0,1-1,2.16,31,31,0,0,1-8.26,4.47,7.23,7.23,0,0,1-3.75.2,2.35,2.35,0,0,1-2.13-2.68c0-1.27,0-2.53.09-3.8A1.91,1.91,0,0,1,140.21,393.6Z"/><path class="cls-21" d="M173,336.24c-3.07.12-6,.87-9.08,1.19-4.57.49-9,1.59-13.62,2-1.78.16-3.57.24-5.36.36a3.64,3.64,0,0,0-1.78.38,1.84,1.84,0,0,1,.57-2c.76.45,1.54.07,2.31,0A54.75,54.75,0,0,0,155.7,337a.83.83,0,0,0,1-.21,1.72,1.72,0,0,0,.9-.07c1.11-.21,2.21-.5,3.33-.61,2.65-.24,5.25-.76,7.87-1.15a28.51,28.51,0,0,1,4-.49C173.3,335,173,335.65,173,336.24Z"/><path class="cls-21" d="M142,308a27,27,0,0,0,6.75.89,1.39,1.39,0,0,0,1.06.42l4.54.57c.47.06.94.16,1.41.25a4.69,4.69,0,0,1-2.24.48c-.9,0-1.8,0-2.7,0-.42-.51-.8-.18-1.18.06a35.1,35.1,0,0,1-7.71-.85,1.3,1.3,0,0,0-1.3.4A2.23,2.23,0,0,1,142,308Z"/><path class="cls-21" d="M139.43,312.93a17.93,17.93,0,0,0,7.57,1.53,3.14,3.14,0,0,0,.6.45c.78.28.69.72.3,1.25a35.39,35.39,0,0,1-4.82-.34,5.26,5.26,0,0,0-2.59-.51,2.78,2.78,0,0,1-1.28-1.83A.48.48,0,0,1,139.43,312.93Z"/><path class="cls-22" d="M135.47,347.86a9.2,9.2,0,0,1-.88,3.13,3.86,3.86,0,0,1-.49.77.65.65,0,0,1-.81.26.67.67,0,0,1-.41-.62,3,3,0,0,1,.09-1.3,1.58,1.58,0,0,0,.12-.88c-.38-.16-.48.14-.64.32s-.27.46-.45.64-.68.66-1.14.45-.41-.74-.3-1.16c.18-.68.41-1.34.62-2A17.68,17.68,0,0,0,135.47,347.86Z"/><path class="cls-23" d="M135.47,347.86a17.68,17.68,0,0,1-4.29-.4h-.08a.65.65,0,0,0-.55-.24c-.35-.31-.83-.5-1-1a.56.56,0,0,1,.16-.6.41.41,0,0,1,.59,0c1,1.1,2.41,1.08,3.75,1.18a2.13,2.13,0,0,1,1.67.56Z"/><path class="cls-21" d="M145.22,303c1.33.42,2.71.12,4.06.28a3.31,3.31,0,0,1-.15,1.62,14.64,14.64,0,0,1-4.93-.51C144.21,303.29,144.21,303.29,145.22,303Z"/><path class="cls-21" d="M149.12,331.77a24.15,24.15,0,0,0-4.06.54c-.08-.63-.35-1.31.4-1.74a9.42,9.42,0,0,0,2.25-.27A4,4,0,0,1,149.12,331.77Z"/><path class="cls-22" d="M130.55,347.21a.65.65,0,0,1,.55.24l-.61.21Z"/><path class="cls-21" d="M176,313.66a1.79,1.79,0,0,0-.4,0c-2.68.65-5.43.89-8.12,1.48a22.27,22.27,0,0,1-5.32.66,10.22,10.22,0,0,0-2.47.34,29,29,0,0,1-9.52.22l-.78-.07a3.06,3.06,0,0,1,.51-1.71,27,27,0,0,0,8.88-.16,20.23,20.23,0,0,1,3.64-.44,30.59,30.59,0,0,0,4.92-.73c3.21-.63,6.45-1.14,9.68-1.7a5.37,5.37,0,0,0,.75-.23A3.06,3.06,0,0,1,176,313.66Z"/><path class="cls-21" d="M173.08,329.53c-2.38.27-4.76.5-7.13.81a75.42,75.42,0,0,1-10.29.74,16.45,16.45,0,0,0-4.79.46,3.58,3.58,0,0,1-1.56-1.45,31.93,31.93,0,0,1,7.36-.81,56.13,56.13,0,0,0,6.48-.45c.65.46,1.16,0,1.7-.25,2.22-.22,4.45-.32,6.65-.72a7.46,7.46,0,0,1,1.82-.15C173.23,328.32,173.54,329,173.08,329.53Z"/><path class="cls-21" d="M173.32,321.07a12.56,12.56,0,0,0-1.83.24,13,13,0,0,1,1.22-2.11l.63.05C173.34,319.86,173.33,320.47,173.32,321.07Z"/><path class="cls-22" d="M171,280.88c.18.28.51.27.78.38.95.38,1.07.78.49,1.62-.1.14-.21.27-.31.4-.66.23-1.11.54-1.08,1.4s-.5,1.27-1.43,1.26c-.4,0-.77-.41-1.31-.06a2,2,0,0,0,2.08.53c.53-.11.72,0,.65.59a5.09,5.09,0,0,1-2.1,3.91,1.18,1.18,0,0,0-.52,1.55,6.85,6.85,0,0,0,1.24,2.14,12.61,12.61,0,0,1-2.22,1.22,42.55,42.55,0,0,1-.64-5.85,73.69,73.69,0,0,0-.93-7.4c-.08-.56-.1-1.13-.22-1.68a1.17,1.17,0,0,1,.83-1.54c1-.34,1.79-1.09,2.78-1.46l.3.55A3.86,3.86,0,0,0,171,280.88Zm-2.11,0c0-.53-.36-1-.8-1a.74.74,0,0,0-.74.76.94.94,0,0,0,.91.93A.61.61,0,0,0,168.85,280.86Z"/><path class="cls-24" d="M173.32,321.07a12.56,12.56,0,0,0-1.83.24,86,86,0,0,1-6.64,7.26c2.22-.21,4.45-.31,6.65-.71a7.46,7.46,0,0,1,1.82-.15Z"/><path class="cls-24" d="M164,337.43c-4.57.49-9,1.59-13.62,2-1.78.16-3.57.24-5.36.36a3.64,3.64,0,0,0-1.78.38,2.55,2.55,0,0,0,0,1.37,2.83,2.83,0,0,0,1.6.5c2.22.13,4.45.32,6.68.39,2.88.1,5.76.24,8.66.16,3.46-.11,6.91-.3,10.36-.39.47,0,1-.16,1.36.28.26-.36.68-.31,1.06-.4a1.34,1.34,0,0,0,1.16-1.24,7.65,7.65,0,0,0-1.06-4.6C170,336.36,167,337.11,164,337.43Z"/><path class="cls-24" d="M147.71,330.3c-.35-.55-.72-1.1-1-1.66a.58.58,0,0,1,.09-.83c.37-.25.65,0,.84.32a6.7,6.7,0,0,0,1.71,2,31.93,31.93,0,0,1,7.36-.81,56.13,56.13,0,0,0,6.48-.45c-.05-.62.42-.92.79-1.27a59.53,59.53,0,0,0,5-5.2c.13-.17.24-.36.36-.55a62.62,62.62,0,0,0-9,1.08A51,51,0,0,1,149,324a7.34,7.34,0,0,0-2.72.28c-.12.7-.23,1.4-.35,2.1a1.86,1.86,0,0,1-.21,1.29,16.76,16.76,0,0,1-.27,2.91A9.42,9.42,0,0,0,147.71,330.3Z"/><path class="cls-24" d="M143.77,338.18c.76.45,1.54.07,2.31,0A54.75,54.75,0,0,0,155.7,337a2.62,2.62,0,0,0-.51-.58,55.15,55.15,0,0,1-6.07-4.69,24.15,24.15,0,0,0-4.06.54A50.37,50.37,0,0,1,143.77,338.18Z"/><path class="cls-24" d="M147,314.49a6.64,6.64,0,0,0-1.32-2.07c-.28-.34-.68-.7-.19-1.1s.81,0,1.09.36.63.83.93,1.25a3.51,3.51,0,0,0,1,1.18c.38-1.21.72-2.31,1.07-3.41a35.72,35.72,0,0,1-7.71-.85,1.27,1.27,0,0,0-1.3.39,7.59,7.59,0,0,0-1.16,2.73A17.92,17.92,0,0,0,147,314.49Z"/><path class="cls-24" d="M144.2,304.37,142,308a26.49,26.49,0,0,0,6.75.88,14.88,14.88,0,0,0,.42-4A14.15,14.15,0,0,1,144.2,304.37Z"/><path class="cls-24" d="M145.22,303c1.33.42,2.71.12,4.06.29q.38-2.86.77-5.72A16.66,16.66,0,0,0,145.22,303Z"/><path class="cls-24" d="M181.13,302.63a24.28,24.28,0,0,1-2.35,1.15c-3.33,1.34-6.8,2.25-10.19,3.43a6.87,6.87,0,0,0,.37,2.06c.31,1.51-.05,1.87-1.49,1.85-.91,0-1.83-.18-2.74-.26-2.27-.2-4.54-.37-6.8-.6a10.93,10.93,0,0,0-2.21-.18,4.69,4.69,0,0,1-2.24.48c-.9,0-1.8,0-2.7,0a9,9,0,0,1-.56,2.62c-.12.45-.19.91-.29,1.37a27,27,0,0,0,8.88-.16,20.23,20.23,0,0,1,3.64-.44,30.59,30.59,0,0,0,4.92-.73c3.21-.63,6.45-1.14,9.68-1.7a5.37,5.37,0,0,0,.75-.23,11.91,11.91,0,0,1,1.29-2.37q1.69-3,3.37-6.07c.14-.25.43-.47.19-.88A4,4,0,0,0,181.13,302.63Z"/><path class="cls-24" d="M183,298.53c-.4-.22-.54-.66-.81-1a12.47,12.47,0,0,0-1.5-2,7.26,7.26,0,0,1-2.65,1.88c-3,1.11-5.93,2.55-8.94,3.73a5.1,5.1,0,0,1-1.37.44,13.7,13.7,0,0,0,.47,3.93c1.41-.47,2.81-1,4.23-1.41A49.2,49.2,0,0,0,182.5,300C183.4,299.54,183.4,299.54,183,298.53Z"/><path class="cls-24" d="M175.63,313.7c-2.68.66-5.43.89-8.12,1.48a22.28,22.28,0,0,1-5.32.67,10.73,10.73,0,0,0-2.47.33,28.7,28.7,0,0,1-9.52.22l-.78-.07-.33.7c-.14.32-.33.65-.73.58s-.51-.51-.49-.91l0-.51a37.06,37.06,0,0,1-4.82-.33,27.42,27.42,0,0,0,4,1.83c.89.31.92.47.68,1.35a27.9,27.9,0,0,0-.94,3.36c1.13,0,2.26-.1,3.39-.12a47.6,47.6,0,0,0,9.59-1.07c2.76-.64,5.61-.71,8.41-1.08a13.85,13.85,0,0,1,2.72-.33,3.92,3.92,0,0,0,.66-1.09c.21-.37.39-.89.93-.69.69.26.23.79.17,1.21l.63.06.12-.51c.48-1.88,1.67-3.41,2.57-5.08A1.78,1.78,0,0,0,175.63,313.7Z"/><path class="cls-24" d="M155.66,331.08a16.45,16.45,0,0,0-4.79.46,23.15,23.15,0,0,0,4.38,3.44,2.75,2.75,0,0,1,1.49,1.85,1.72,1.72,0,0,0,.9-.07c1.11-.21,2.21-.5,3.33-.61,2.65-.24,5.25-.76,7.87-1.15a28.51,28.51,0,0,1,4-.49,27.62,27.62,0,0,0,.23-5c-2.38.27-4.76.5-7.13.81A75.42,75.42,0,0,1,155.66,331.08Z"/><path class="cls-24" d="M173.88,297.18a21.67,21.67,0,0,1,2.66-1.06,12.54,12.54,0,0,0,3.11-1.85c0-.53-.37-.83-.61-1.22-.4-.64-1.1-1.07-1.31-1.85a1.28,1.28,0,0,0-1.84-.16,2.11,2.11,0,0,1-1.22.42,5,5,0,0,1-1.88,1.53,11.93,11.93,0,0,1-3.34,1.64,12,12,0,0,1-2.22,1.22,17.23,17.23,0,0,0,.41,3.92C169.72,298.91,171.81,298.06,173.88,297.18Z"/><path class="cls-21" d="M167.64,299.74c2.08-.86,4.17-1.71,6.24-2.59a21.73,21.73,0,0,1,2.66-1.07,12,12,0,0,0,3.11-1.85c.75.13.91.72,1.06,1.32a7.17,7.17,0,0,1-2.65,1.89c-3,1.1-5.93,2.55-8.94,3.72a4.79,4.79,0,0,1-1.37.45A3.5,3.5,0,0,1,167.64,299.74Z"/><path class="cls-17" d="M174.67,291.43a5.07,5.07,0,0,1-1.88,1.53,12.5,12.5,0,0,1-3.34,1.64,6.85,6.85,0,0,1-1.24-2.14,1.18,1.18,0,0,1,.52-1.55,5.09,5.09,0,0,0,2.1-3.91c.07-.55-.12-.7-.65-.59a2,2,0,0,1-2.08-.53c.54-.35.91.05,1.31.06.93,0,1.47-.35,1.43-1.26s.42-1.17,1.08-1.4C172.77,286,173.63,288.76,174.67,291.43Z"/><path class="cls-17" d="M171,280.88a3.86,3.86,0,0,1-1.61-2.44A4.49,4.49,0,0,1,171,280.88Z"/><path class="cls-21" d="M146.84,322.37c1.13,0,2.26-.1,3.39-.13a46.2,46.2,0,0,0,9.59-1.07c2.76-.64,5.61-.71,8.41-1.08a13.84,13.84,0,0,1,2.72-.32,5.06,5.06,0,0,1-1.68,2,62.62,62.62,0,0,0-9,1.08A51,51,0,0,1,149,324a7.34,7.34,0,0,0-2.72.28A2.42,2.42,0,0,1,146.84,322.37Z"/><path class="cls-23" d="M169.27,321.81a5.06,5.06,0,0,0,1.68-2,4,4,0,0,0,.66-1.1c.21-.37.39-.88.93-.68.69.25.23.78.17,1.21a13,13,0,0,0-1.22,2.11,86,86,0,0,1-6.64,7.26c-.54.24-1,.72-1.7.26-.05-.62.42-.92.79-1.27a59.53,59.53,0,0,0,5-5.2C169,322.19,169.15,322,169.27,321.81Z"/><path class="cls-23" d="M150.87,331.54a23.15,23.15,0,0,0,4.38,3.44,2.75,2.75,0,0,1,1.49,1.85.83.83,0,0,1-1,.21,2.62,2.62,0,0,0-.51-.58,55.15,55.15,0,0,1-6.07-4.69c-.33-.62-2.75-2.42-3.08-3-.16-.27.41-.77.72-1s.65,0,.84.32A17.17,17.17,0,0,0,150.87,331.54Z"/><path class="cls-23" d="M149.93,314.59a3.06,3.06,0,0,0-.51,1.71l-.33.69c-.14.33-.33.65-.73.58s-.51-.5-.49-.9l0-.51c.39-.53.48-1-.3-1.25a3.14,3.14,0,0,1-.6-.45,6.68,6.68,0,0,0-1.32-2.08c-.28-.33-.68-.69-.19-1.09s.81,0,1.09.36.63.83.93,1.25a3.6,3.6,0,0,0,1,1.18c.38-1.22.72-2.31,1.07-3.41.38-.25.76-.58,1.18-.07a9,9,0,0,1-.56,2.62C150.1,313.67,150,314.13,149.93,314.59Z"/><path class="cls-17" d="M168.85,280.86a.61.61,0,0,1-.63.68.94.94,0,0,1-.91-.93.74.74,0,0,1,.74-.76C168.49,279.82,168.88,280.33,168.85,280.86Z"/><path class="cls-25" d="M181.38,304.85c0-.07.07-.13.1-.2l-.12.21Z"/><path class="cls-25" d="M183,298.5l.06.17.12-.26Z"/><path class="cls-25" d="M181.13,302.63a4,4,0,0,1,1.52-.62l0,.06c.89-2.41-.18-2.07-.18-2.07a49.77,49.77,0,0,1-10.05,4.13c-1.42.41-2.82.93-4.23,1.4a3.26,3.26,0,0,0,.37,1.68c3.39-1.18,6.86-2.09,10.19-3.43A24.28,24.28,0,0,0,181.13,302.63Z"/><path class="cls-18" d="M177.73,291.16c.48-.2,19.33-17.87,20-18.65a46.93,46.93,0,0,1,4-4.09c.38-.36,1.82-1.8,2.38-1.7.73.15.74,1.62.67,1.78a9.62,9.62,0,0,0-2.46,3.07c1.25.35,3.19,2.35,3.36,2.49a2.79,2.79,0,0,1-.38,2,7.76,7.76,0,0,1-3.82,2.81c-1.69.43-9,8-10.24,9.63-.85,1.09-4.72,5.91-5,6.26-.79,1-1.6,2.06-2.42,3.07a2.09,2.09,0,0,1-.8.67c-.4-.22-.54-.66-.81-1C181.7,296.86,177.61,292.44,177.73,291.16Z"/><path class="cls-5" d="M194,188.8a5.19,5.19,0,0,1-.79-1.07,1.57,1.57,0,0,1-.95-.66,30.76,30.76,0,0,0-7.22-5.57c-.39-.23-2.1-1.19-2.62-1.44a47.14,47.14,0,0,0-10.21-3.35,34.8,34.8,0,0,0-5-.56,41.65,41.65,0,0,0-8.56.58,38,38,0,0,0-17.34,7.9,35.93,35.93,0,0,0-7.12,7.5,42.12,42.12,0,0,0-3.81,6.69,38.81,38.81,0,0,0-3.33,13.59,36.37,36.37,0,0,0,.49,8.26,38.17,38.17,0,0,0,14.73,24.52,1.67,1.67,0,0,1,.75,1.91c-.16.68-.13,1.39-.28,2.05-.36,1.61-.1,3.26-.39,4.87a21,21,0,0,0-.11,4.88,1.78,1.78,0,0,0,2.58,1.56,7.08,7.08,0,0,0,1.43-.78c3.53-2.37,7.1-4.69,10.75-6.87a2.41,2.41,0,0,1,1.81-.46,37.55,37.55,0,0,0,6.78.58c2.13,0,4.23-.4,6.36-.37a2.11,2.11,0,0,1,1.21-.48,37.91,37.91,0,0,0,9.61-3.28,4,4,0,0,1,1.39-.48,2.42,2.42,0,0,1,.87-.78,31.9,31.9,0,0,0,6.93-5.29,1.81,1.81,0,0,1,1.1-.7,7.71,7.71,0,0,1,1.68-2.24A38.68,38.68,0,0,0,194,188.8Z"/><path class="cls-26" d="M179.71,198.29c1.14,0,2.28,0,3.42,0s1.31.17,1.27,1.17a52.9,52.9,0,0,0,.41,7.24c.21,2.31-.08,4.66.48,6.93a1.7,1.7,0,0,1,0,.45c-.14,2.62.27,5.22.37,7.84.13,3.35.32,6.7.62,10,.18,2,0,4.06.41,6.05.16.71-.2,1.08-.9.91a5.77,5.77,0,0,0-2.34,0,8.83,8.83,0,0,1-3.24-.07,7.64,7.64,0,0,0-1.17-.15c-7.17-.38-14.35-.26-21.52-.29h-1.19c.13-1.28.23-2.57.37-3.85.64-5.7,1.21-11.42,2-17.11.84-6.28,1.21-12.62,2.19-18.89l6,0a3,3,0,0,0-.21.69c-.07,2-.42,3.92-.33,5.9a2.7,2.7,0,0,1-.53,1.94,2.8,2.8,0,0,0-.21,2.69,1.24,1.24,0,0,0,1.34,1,1.35,1.35,0,0,0,1.27-1.07,3,3,0,0,0,0-2.31,3.79,3.79,0,0,1-.34-2.42c.07-1,.12-2,.2-2.95a13.3,13.3,0,0,1,.6-3.48l.55-.07,1.48,0c2.44.21,4.89.07,7.33.08a60.06,60.06,0,0,1,.16,7.1,2.83,2.83,0,0,1-.61,2.22,1.77,1.77,0,0,0-.3,1.41,1.51,1.51,0,0,0,1.23,1.47c.64,0,1.19-.48,1.35-1.32a3.81,3.81,0,0,0,.06-.89A96.61,96.61,0,0,1,179.71,198.29Z"/><path class="cls-27" d="M160.88,198.56c-1,6.27-1.35,12.61-2.19,18.89-.76,5.69-1.33,11.41-2,17.11-.14,1.28-.24,2.57-.37,3.85a2.38,2.38,0,0,1-1.57.27c-3.17.06-6.32-.39-9.5-.33-1.11,0-1.35-.37-1.2-1.52,1-7.51,1.62-15.07,2.59-22.58.54-4.17.83-8.36,1.41-12.52.1-.69,0-1.39.13-2.08.14-1.05.24-1.13,1.32-1.15l6.39-.06a5.26,5.26,0,0,0,1.68,0Z"/><path class="cls-28" d="M157.6,198.44a5.26,5.26,0,0,1-1.68,0,18.93,18.93,0,0,1,2.54-7.09,5.9,5.9,0,0,1,7-2.59c.28.08.56.19.85.26a3.14,3.14,0,0,1,2.35,1.85c.22.56.57.82,1.11.31,1.29-1.23,2.92-1.05,4.49-1.08a10,10,0,0,1,1.33.15,3.1,3.1,0,0,1,2.71,2,12,12,0,0,1,1.15,4.28,10.68,10.68,0,0,0,.3,1.75,96.61,96.61,0,0,0,.12,10.21,3.81,3.81,0,0,1-.06.89c-.16.84-.71,1.36-1.35,1.32a1.51,1.51,0,0,1-1.23-1.47,1.77,1.77,0,0,1,.3-1.41,2.83,2.83,0,0,0,.61-2.22,60.06,60.06,0,0,0-.16-7.1,13.29,13.29,0,0,0-1.06-5.34,2.14,2.14,0,0,0-1.89-1.43,13.89,13.89,0,0,0-2.81,0,2.37,2.37,0,0,0-2.09,3.05c.23,1.2.8,2.36.52,3.63l-1.48,0c-.14-.25-.07-.61-.43-.9,0,.41-.08.69-.12,1A13.3,13.3,0,0,0,168,202c-.08,1-.13,2-.2,2.95a3.79,3.79,0,0,0,.34,2.42,3,3,0,0,1,0,2.31,1.35,1.35,0,0,1-1.27,1.07,1.24,1.24,0,0,1-1.34-1,2.8,2.8,0,0,1,.21-2.69,2.7,2.7,0,0,0,.53-1.94c-.09-2,.26-3.93.33-5.9a3,3,0,0,1,.21-.69c.32-1.45.65-2.89.95-4.34a3,3,0,0,0-1.31-3.25c-2.23-1.34-5.12-1.37-6.82,1.5A15.94,15.94,0,0,0,157.6,198.44Z"/><path class="cls-29" d="M168.58,198.48c0-.28.07-.56.12-1,.36.29.29.65.43.9Z"/><path class="cls-25" d="M252.92,353.49l66-.23L306.15,386a1.54,1.54,0,0,1-1.44,1l-35.52,0a1.49,1.49,0,0,1-1.34-.86Z"/><path class="cls-30" d="M367.11,302.17c2.48,1.35,3.78,3.62,4.83,6.1A19.1,19.1,0,0,1,373,315c.08,1.86.17,3.71.31,5.56.3,4.15.4,8.31.41,12.47a77.24,77.24,0,0,0,.75,9.25c.42,3.33.77,6.67,1,10q.53,7,1.1,14c0,.43.21.86.27,1.29a1.51,1.51,0,0,1-1.56,1.94c-1.46.06-2.92.08-4.38.12-1.19,0-2.38-.07-3.57-.06-2.43,0-4.86-.09-7.29.07-1.95-.18-3.89-.07-5.84-.07-2.38,0-4.77-.11-7.16.07a25.66,25.66,0,0,0-3-.08c-.52,0-1.06,0-1.58-.1-.74-.1-1-.46-.67-1.07a48.56,48.56,0,0,0,2.22-6.08c1.25-3.35,2.41-6.73,3.79-10,1.28-3,1.76-6.28,2.47-9.46.45-2,.82-4,1.25-6.06.07-.33.19-1.64.25-2.07a34.46,34.46,0,0,1,3.89-3.94c.7-.63.73-.77.28-1.56s-.9-1.62-1.37-2.41a14.08,14.08,0,0,0-3.38-4c-1.06-1.61-1-1.78.3-3.14.61-.63,1.16-1.32,1.78-2a5.1,5.1,0,0,0,1.45-3.57,29.53,29.53,0,0,1,1.21-7.52,12.5,12.5,0,0,0,2.61-.87,30.82,30.82,0,0,0,7.94-3.46A2.36,2.36,0,0,1,367.11,302.17ZM359.5,358a2.4,2.4,0,0,0,.51-.23,16.37,16.37,0,0,0,1.45-1.16,76.5,76.5,0,0,0,9.75-11.87,2,2,0,0,0,.42-1,.6.6,0,0,0-.26-.57.53.53,0,0,0-.62,0,2.29,2.29,0,0,0-.45.48c-.93,1.29-1.84,2.6-2.79,3.87a47.08,47.08,0,0,1-8.29,9.09,1.91,1.91,0,0,0-.38.37.6.6,0,0,0,0,.74A.71.71,0,0,0,359.5,358Zm10.86-40.27c0-.25-.07-.48-.31-.58a.52.52,0,0,0-.68.22,8.38,8.38,0,0,0-.47,1,14.65,14.65,0,0,1-6.12,7.26,8.35,8.35,0,0,0-.88.58l-3.67,2.61c-.21.16-.49.33-.38.62s.48.33.8.25a3.74,3.74,0,0,0,1.28-.67c1.42-1,2.82-2,4.27-2.9a15.83,15.83,0,0,0,5.87-7.49C370.19,318.27,370.27,318,370.36,317.7Zm-7.62,30.55h.33c.33,0,.64-.17.67-.53s-.25-.56-.56-.66a6.66,6.66,0,0,0-.91-.18c-2.89-.56-5.52-1.59-7.35-4.07-.18-.23-.39-.38-.67-.23a.58.58,0,0,0-.27.8,3.53,3.53,0,0,0,1,1.4A12.76,12.76,0,0,0,362.74,348.25Zm2.55-38.64a11.47,11.47,0,0,0-6.15,1.81,2.3,2.3,0,0,0-.61.51c-.2.23-.4.54-.12.81s.46-.05.67-.19a12.17,12.17,0,0,1,4.37-1.81c1.74-.36,3.44-.43,4.65,1.25a.43.43,0,0,0,.1.09c.17.15.36.3.58.14a.5.5,0,0,0,.13-.7,3,3,0,0,0-.83-1A3.69,3.69,0,0,0,365.29,309.61Z"/><path class="cls-17" d="M367.11,302.17a2.36,2.36,0,0,0-.62.19,30.82,30.82,0,0,1-7.94,3.46,12.5,12.5,0,0,1-2.61.87c-.95-.83-2.06-1.52-2.37-2.88a.88.88,0,0,0-.45-.46c-1-.44-1.84-1.18-2.81-1.68a7.24,7.24,0,0,0-1.92-1.16,72,72,0,0,1-6.5-3.84,2.34,2.34,0,0,1-1.19-2.08c0-.93.84-1,1.49-1.25.43-.17.83-.35.71-.94.28-1.55.9-2.83,2.63-3.2a.4.4,0,0,0,.34-.58,3.62,3.62,0,0,1,.17-2.18c.5-.36,1-.83,1.65-.73s1-.26,1.16-.9a4.09,4.09,0,0,1,3.79-3.33,3.47,3.47,0,0,0,2-1.19,7.59,7.59,0,0,1,3-2c3.72-1.15,8.18,1,8.5,5.44a10.21,10.21,0,0,1,0,1.46,1.53,1.53,0,0,0,1.1,1.85c2.61,1.22,2.88,1.82,2.06,4.51a1,1,0,0,0,0,.89.26.26,0,0,1,.07.11,7.35,7.35,0,0,0,1.36,3.19,5.18,5.18,0,0,1,.84,2.63,2.18,2.18,0,0,1-1.29,2.28C369.19,301.22,368.14,301.68,367.11,302.17Zm-9.68-4.33c.05-.18.08-.23.06-.26a2.31,2.31,0,0,0-.18-.35,2.66,2.66,0,0,1,.25-3.2,4,4,0,0,1,2.18-1.4,2.2,2.2,0,0,0,1.36-3.27,3.67,3.67,0,0,0-1.49-1.46,5.35,5.35,0,0,1-2.58-4.53c0-.29.09-.63-.28-.86-.92.42-1.79,1.09-2.94,1-.34,0-1.24,1.64-1.11,2a.52.52,0,0,0,.29.23c.41.13.6.38.43.79a.54.54,0,0,1-.78.3c-.54-.28-.69,0-.84.44s-.38,1-.59,1.48a15.94,15.94,0,0,0-1,6.37,2.72,2.72,0,0,0,2.1,2.88A10.51,10.51,0,0,0,357.43,297.84Z"/><path class="cls-18" d="M328.49,349.74c-.4.37-.64.9-1.19,1.13-.86.36-1.22.21-1.49-.72a.64.64,0,0,0-.25-.42c-.17-.26-.48-.52-.47-.77,0-1.19-.64-2.29-.38-3.49.23-.66,1-1.22.29-2-.35-.43-.8-1-.24-1.51s1,0,1.43.26c1.16.57,6.8-2.87,8.18-3.95.92-.72,7.56-6.59,9.47-7.93,1-.69,6.28-6.34,7.36-7.44a14.08,14.08,0,0,1,3.38,4c.47.79.92,1.6,1.37,2.41s.42.93-.28,1.56a34.46,34.46,0,0,0-3.89,3.94c-.48.25-2.75,2.49-3.59,3.19a143,143,0,0,1-14.05,9,6.45,6.45,0,0,1-2.78.75c-.26,0-.51.09-.77.1A2,2,0,0,0,328.49,349.74Z"/><path class="cls-18" d="M347.09,369.72c2.39-.18,4.78-.07,7.16-.07,1.95,0,3.89-.11,5.84.07-.14.74-1.08,1.17-.8,2.07a40.39,40.39,0,0,0-4.81,8.17,52.89,52.89,0,0,1-3.64,6.75c-1.42,2.33-2.78,4.69-4,7.12a2.25,2.25,0,0,1-1.27-.24,20.8,20.8,0,0,0-2.55-1,36.49,36.49,0,0,1-3.64-1.41,4.2,4.2,0,0,1,.42-1.52,37.25,37.25,0,0,0,1.95-5.61c.73-3,2.16-5.67,3.22-8.52C345.64,373.59,346.56,371.72,347.09,369.72Z"/><path class="cls-18" d="M372,393.09a15.59,15.59,0,0,1-2-3.82,4,4,0,0,0-.62-1.16,58.61,58.61,0,0,1-4.26-7.15c-1.34-2.58-3-5-4.5-7.45a3.51,3.51,0,0,1-.56-1.19,12.42,12.42,0,0,1,2.84.49,57.71,57.71,0,0,1,7.37,1.3,2.06,2.06,0,0,0,2.12-.29c.52.21.65.71.82,1.15,1.78,4.58,4,9,5.62,13.63a4.4,4.4,0,0,1,.41,1.51C376.84,391.12,374.37,391.94,372,393.09Z"/><path class="cls-24" d="M283.33,395.93a7.13,7.13,0,0,1-7.11,7.2,6.93,6.93,0,0,1-7.13-6.84,7.38,7.38,0,0,1,7.31-7.38A6.9,6.9,0,0,1,283.33,395.93Zm-7.09-2.41a2.66,2.66,0,0,0-2.78,2.71,2.81,2.81,0,0,0,2.82,2.86,2.85,2.85,0,0,0,2.81-2.75A2.77,2.77,0,0,0,276.24,393.52Z"/><path class="cls-24" d="M297,402.81a7.05,7.05,0,0,1-7.06-7.1,6.86,6.86,0,0,1,6.95-6.87,7,7,0,1,1,.11,14Zm-.24-9.72A2.88,2.88,0,0,0,294,395.9a2.71,2.71,0,0,0,2.74,2.65,2.84,2.84,0,0,0,2.78-2.8A2.75,2.75,0,0,0,296.79,393.09Z"/><path class="cls-24" d="M383,398a2.51,2.51,0,0,1,2.69,1.5c.3.54.62,1.07.92,1.61a1.6,1.6,0,0,1-.32,2.26,8.56,8.56,0,0,1-1.92,1.41,55.42,55.42,0,0,0-6.48,4.12,16,16,0,0,1-3.26,1.75,3.46,3.46,0,0,1-2.33.23c-1.59-.47-2.08-1.71-1.12-3.06a16.17,16.17,0,0,1,2.28-2.4c1.39-1.27,1.39-1.26.23-2.75-.22-.27-.43-.56-.65-.84,0-.37-.07-.75-.1-1.12.44-.7,1.27-.9,1.85-1.42.34-.1.69-.16,1-.29a2.11,2.11,0,0,1,2.88.56,2.12,2.12,0,0,0,3.12-.18C382.19,398.92,382.58,398.45,383,398Z"/><path class="cls-24" d="M341.7,403.15a28.39,28.39,0,0,1-.62,3.65,1.39,1.39,0,0,1-1.42,1.14c-.35,0-.71.07-1.06.07-3.89-.07-7.77,0-11.66.11a6.3,6.3,0,0,1-3.24-.49,1.39,1.39,0,0,1-.37-2.32,3.62,3.62,0,0,1,1.6-.91c1.26-.42,2.53-.8,3.79-1.19.76-.23,1.52-.48,2.29-.68a2.26,2.26,0,0,0,1.72-1.82l0-.12a2,2,0,0,1,2.35-2c1.52.53,1.79,1,1.45,2.53-.06.26-.14.51-.2.76-.25.94-.18,1.07.83,1a20.78,20.78,0,0,0,2.72-.42A1.41,1.41,0,0,1,341.7,403.15Z"/><path class="cls-25" d="M341.7,403.15a1.41,1.41,0,0,0-1.78-.67,20.78,20.78,0,0,1-2.72.42c-1,.08-1.08,0-.83-1,.06-.25.14-.5.2-.76.34-1.53.07-2-1.45-2.53a48.58,48.58,0,0,1,1.89-5.14c.32-.85,1.14-1.31,1.47-2.14.12-.29.56-.14.86-.17a36.49,36.49,0,0,0,3.64,1.41,20.8,20.8,0,0,1,2.55,1,2.25,2.25,0,0,0,1.27.24c.28.46.37.89-.1,1.3a1.71,1.71,0,0,0-.45.48c-1.19,2.56-3.09,4.7-4.28,7.26A1,1,0,0,1,341.7,403.15Z"/><path class="cls-25" d="M383,398c-.4.46-.79.93-1.2,1.38a2.12,2.12,0,0,1-3.12.18,2.11,2.11,0,0,0-2.88-.56c-.32.13-.67.19-1,.29q-1.26-2.65-2.53-5.31a2,2,0,0,1-.2-.88c2.33-1.15,4.8-2,7.2-3a1.72,1.72,0,0,1,1.74,1.66C381.23,394,382.23,396,383,398Z"/><path class="cls-22" d="M372.39,373.82a2.06,2.06,0,0,1-2.12.29,57.71,57.71,0,0,0-7.37-1.3,12.42,12.42,0,0,0-2.84-.49l-.77-.53c-.28-.9.66-1.33.8-2.07,2.43-.16,4.86,0,7.29-.07,1.19,0,2.38,0,3.57.06C371.31,371.12,372.17,372.36,372.39,373.82Z"/><path class="cls-24" d="M289.81,386.86c-.05-.74-.09-1.49-.15-2.24-.05-.58.12-.91.79-.9,2.77,0,5.55,0,8.32,0,.78,0,.84.12.62.88s-.49,1.51-.73,2.26A84.28,84.28,0,0,1,289.81,386.86Z"/><path class="cls-24" d="M266.71,383.63c2.29-.18,4.74.19,7,.08a.75.75,0,0,1,.74.46,15.5,15.5,0,0,1,1.21,2.77c-2,0-4.08,0-6.11.05-.89,0-1.56-.12-1.82-1.09A15.69,15.69,0,0,1,266.71,383.63Z"/><path class="cls-24" d="M280.16,386.91a20.07,20.07,0,0,1-1.6-3.18H285c.45,0,.61.3.63.7,0,.83.06,1.67.1,2.51C283.89,387,282,387,280.16,386.91Z"/><path class="cls-24" d="M306.71,384c0,.52-.31,1-.34,1.47-.35,1.46-1.4,1.68-2.68,1.49l-.64-.08c.23-.75.5-1.49.69-2.25a.93.93,0,0,1,1.15-.78A9.32,9.32,0,0,1,306.71,384Z"/><path class="cls-24" d="M328.49,349.74a2,2,0,0,1,2.1-2c.26,0,.51-.07.77-.1a1.81,1.81,0,0,1-1.49,2l-1.11.32A.29.29,0,0,0,328.49,349.74Z"/><path class="cls-31" d="M372.92,400.7c0,.37.07.75.1,1.12C372.43,401.5,372.46,401.12,372.92,400.7Z"/><path class="cls-24" d="M306.83,362.64a11.4,11.4,0,0,1-.66,2.38c-.46,1.52-1,3-1.42,4.55a1.12,1.12,0,0,1-1.22.93c-4.6,0-9.2,0-13.8,0-.94,0-1,0-1-1q-.14-3-.26-6c0-1.06,0-1.1,1-1.1,5.58,0,11.15,0,16.73,0A1,1,0,0,1,306.83,362.64Z"/><path class="cls-24" d="M310.37,353.2c-.48,1.86-1.3,3.53-1.93,5.27-.19.52-.6.57-1.07.56h-18.3c-.54,0-.82-.18-.84-.75-.05-1.55.13-3.09.19-4.64a.47.47,0,0,1,.51-.48l.66,0,19.49-.14A2.13,2.13,0,0,1,310.37,353.2Z"/><path class="cls-24" d="M268.52,362.48c.29-.29.71-.16,1.09-.15,4.55.14,9.1.12,13.66.13,1.29,0,1.33,0,1.31,1.33,0,1.9.35,3.78.27,5.69-.05,1.09-.05,1.13-1.13,1.14-3.49,0-7,0-10.48,0a1.09,1.09,0,0,1-1.22-.76,39,39,0,0,0-3.43-6.87A.49.49,0,0,1,268.52,362.48Z"/><path class="cls-24" d="M263.5,353.22h4.65l14.6,0c1.36,0,1.41,0,1.49,1.4.07,1.19.05,2.39.1,3.58,0,.71-.27,1-.94.9a2.25,2.25,0,0,0-.26,0c-5.14,0-10.27,0-15.4.16a1.74,1.74,0,0,1-1.9-1.06c-.52-1.07-1.16-2.09-1.72-3.14A4.6,4.6,0,0,1,263.5,353.22Z"/><path class="cls-24" d="M295.84,374.2c2,0,4,0,6,0,.85,0,.91.07.61.8a35.16,35.16,0,0,0-1.51,4.66,1,1,0,0,1-1.11.87q-4.83,0-9.67,0c-.6,0-.9-.2-.94-.82-.09-1.5-.24-3-.31-4.49-.05-1,0-1.07,1-1.07,2,0,4,0,6,0Z"/><path class="cls-24" d="M324.71,345.47c-.26,1.2.41,2.3.38,3.49,0,.25.3.51.47.77-.82,0-4.92.17-5.11.59-.62,1.45-3.37,8-3.65,8.69h-4.44l1.55-5.63a.51.51,0,0,1,.61-.39c.64,0,2.16-3.83,2.7-5.33a3.12,3.12,0,0,1,3.18-2.27C321.29,345.39,324.16,345.42,324.71,345.47Z"/><path class="cls-24" d="M279.23,374.07c1.5,0,3,0,4.5,0,1.1,0,1.09.08,1.16,1.12.09,1.5.18,3,.3,4.5.05.63-.18.87-.81.87q-3.31,0-6.63,0a1.15,1.15,0,0,1-1.18-.66c-.83-1.66-1.69-3.31-2.5-5-.36-.75-.25-.88.65-.9,1.5,0,3,0,4.51,0Z"/><path class="cls-24" d="M261,370.71a1.33,1.33,0,0,1-.51-.59c-1.12-2.53-2.25-5.05-3.37-7.57a1.17,1.17,0,0,1,0-.26h6.23a.92.92,0,0,1,.94.59c1,2.12,2.41,4,3.36,6.17l.38.86c.23.5.07.74-.49.74l-3.05,0Z"/><path class="cls-32" d="M265.43,380.82c-1.16-2.25-2.07-4.57-3.09-6.89,1.9,0,3.81.11,5.7.06a1.9,1.9,0,0,1,2.15,1.45c.44,1.29,1.13,2.5,1.7,3.75a2.6,2.6,0,0,1,.46,1.33C270.07,380.7,267.71,380.81,265.43,380.82Z"/><path class="cls-24" d="M255.67,359.41c-.91-1.45-1.36-3.12-2.24-4.59l-.51-1.33c.22-.36.56-.23.84-.23,1.64,0,3.27,0,4.91,0,.53,0,.94.08,1.16.64a33.66,33.66,0,0,0,2.47,5.26C260,359.37,257.8,359.14,255.67,359.41Z"/><path class="cls-24" d="M315.21,362.51a30.72,30.72,0,0,1-1.69,4.83c-.36,1-.82,2-1.24,3.05a15.68,15.68,0,0,1-3.42,0c.73-2.43,1.44-4.78,2.13-7.13a.91.91,0,0,1,1.05-.76C313.1,362.5,314.16,362.49,315.21,362.51Z"/><path class="cls-24" d="M310.63,374.3a5.37,5.37,0,0,1-.65,2c-.52,1.36-1.12,2.68-1.69,4-.83,0-1.67,0-2.51.08-.52,0-.77-.09-.61-.66a30.32,30.32,0,0,1,1.88-4.93.9.9,0,0,1,.94-.57A19.36,19.36,0,0,1,310.63,374.3Z"/><path class="cls-21" d="M359.5,358a.71.71,0,0,1-.67-.26.6.6,0,0,1,0-.74,1.91,1.91,0,0,1,.38-.37,47.08,47.08,0,0,0,8.29-9.09c.95-1.27,1.86-2.58,2.79-3.87a2.29,2.29,0,0,1,.45-.48.53.53,0,0,1,.62,0,.6.6,0,0,1,.26.57,2,2,0,0,1-.42,1,76.5,76.5,0,0,1-9.75,11.87,16.37,16.37,0,0,1-1.45,1.16A2.4,2.4,0,0,1,359.5,358Z"/><path class="cls-21" d="M370.36,317.7c-.09.27-.17.57-.29.85A15.83,15.83,0,0,1,364.2,326c-1.45.93-2.85,1.93-4.27,2.9a3.74,3.74,0,0,1-1.28.67c-.32.08-.66.11-.8-.25s.17-.46.38-.62l3.67-2.61a8.35,8.35,0,0,1,.88-.58,14.65,14.65,0,0,0,6.12-7.26,8.38,8.38,0,0,1,.47-1,.52.52,0,0,1,.68-.22C370.29,317.22,370.32,317.45,370.36,317.7Z"/><path class="cls-21" d="M362.74,348.25a12.76,12.76,0,0,1-7.78-3.47,3.53,3.53,0,0,1-1-1.4.58.58,0,0,1,.27-.8c.28-.15.49,0,.67.23,1.83,2.48,4.46,3.51,7.35,4.07a6.66,6.66,0,0,1,.91.18c.31.1.59.3.56.66s-.34.49-.67.53Z"/><path class="cls-21" d="M365.29,309.61a3.69,3.69,0,0,1,2.79.9,3,3,0,0,1,.83,1,.5.5,0,0,1-.13.7c-.22.16-.41,0-.58-.14a.43.43,0,0,1-.1-.09c-1.21-1.68-2.91-1.61-4.65-1.25a12.17,12.17,0,0,0-4.37,1.81c-.21.14-.41.45-.67.19s-.08-.58.12-.81a2.3,2.3,0,0,1,.61-.51A11.47,11.47,0,0,1,365.29,309.61Z"/><path class="cls-22" d="M357.43,297.84a10.51,10.51,0,0,1-5.14.08,2.72,2.72,0,0,1-2.1-2.88,15.94,15.94,0,0,1,1-6.37c.21-.49.41-1,.59-1.48s.3-.72.84-.44a.54.54,0,0,0,.78-.3c.17-.41,0-.66-.43-.79a.52.52,0,0,1-.29-.23c-.13-.32.77-2,1.11-2,1.15.13,2-.54,2.94-1,.37.23.28.57.28.86a5.35,5.35,0,0,0,2.58,4.53,3.67,3.67,0,0,1,1.49,1.46,2.2,2.2,0,0,1-1.36,3.27,4,4,0,0,0-2.18,1.4,2.66,2.66,0,0,0-.25,3.2,2.31,2.31,0,0,1,.18.35S357.48,297.66,357.43,297.84ZM355.33,286c0-.32,0-.41,0-.5,0-.28-.09-.54-.41-.6s-.47.18-.56.45a4.21,4.21,0,0,1-.12.51c-.44,1.05-.72,2.2-1.91,2.75-.46.22-.5.7-.41,1.16a2,2,0,0,0,1.23,1.47c.33.15.7.3,1-.08s0-.68-.35-.85c-.67-.34-.65-.65-.11-1.16A6.83,6.83,0,0,0,355.33,286Zm-1.61,7.17a3.62,3.62,0,0,0,2.44-.88.64.64,0,0,0,.2-.83c-.22-.35-.53-.21-.79,0a3.61,3.61,0,0,1-1.94.73c-.45,0-1.16-.15-1.09.55S353.3,293.11,353.72,293.19Zm1.72,1.58c-.09-.28-.29-.5-.65-.3a7.58,7.58,0,0,0-1.18.83.36.36,0,0,0,.08.64A1.38,1.38,0,0,0,355.44,294.77Zm.81-7.67a.89.89,0,0,0-.82.89c0,.33.16.6.54.63a.85.85,0,0,0,.88-.8A.66.66,0,0,0,356.25,287.1Z"/><path class="cls-25" d="M276.24,393.52a2.77,2.77,0,0,1,2.85,2.82,2.85,2.85,0,0,1-2.81,2.75,2.81,2.81,0,0,1-2.82-2.86A2.66,2.66,0,0,1,276.24,393.52Z"/><path class="cls-25" d="M296.79,393.09a2.75,2.75,0,0,1,2.74,2.66,2.84,2.84,0,0,1-2.78,2.8A2.71,2.71,0,0,1,294,395.9,2.88,2.88,0,0,1,296.79,393.09Z"/><path class="cls-17" d="M355.33,286a6.83,6.83,0,0,1-1.69,3.15c-.54.51-.56.82.11,1.16.34.17.62.44.35.85s-.62.23-1,.08a2,2,0,0,1-1.23-1.47c-.09-.46-.05-.94.41-1.16,1.19-.55,1.47-1.7,1.91-2.75a4.21,4.21,0,0,0,.12-.51c.09-.27.24-.5.56-.45s.39.32.41.6C355.34,285.61,355.33,285.7,355.33,286Z"/><path class="cls-17" d="M353.72,293.19c-.42-.08-1.13.17-1.18-.46s.64-.53,1.09-.55a3.61,3.61,0,0,0,1.94-.73c.26-.18.57-.32.79,0a.64.64,0,0,1-.2.83A3.62,3.62,0,0,1,353.72,293.19Z"/><path class="cls-17" d="M355.44,294.77a1.38,1.38,0,0,1-1.75,1.17.36.36,0,0,1-.08-.64,7.58,7.58,0,0,1,1.18-.83C355.15,294.27,355.35,294.49,355.44,294.77Z"/><path class="cls-17" d="M356.25,287.1a.66.66,0,0,1,.6.72.85.85,0,0,1-.88.8c-.38,0-.52-.3-.54-.63A.89.89,0,0,1,356.25,287.1Z"/><path class="cls-5" d="M330,166.31c-.5.46-.51,1.19-.93,1.72a9.49,9.49,0,0,1-4.61,3.13,37.46,37.46,0,0,1-4.21,1,11.91,11.91,0,0,1-4,0c-5-.73-8.77-3.19-10.56-8.14a1.32,1.32,0,0,0-.24-.3c-.1-2.37-.1-4.75-.32-7.11a32.89,32.89,0,0,0-.58-5.48c-3.34-12.6-6.62-25.22-9.93-37.83-.78-3-1.58-5.94-2.33-8.92-.17-.67-.46-1-1.17-.93a6.14,6.14,0,0,1-1.05,0,16.58,16.58,0,0,1-3.66-.16,19.94,19.94,0,0,1,2.89-.08,13.86,13.86,0,0,0,3.15-.18,3.08,3.08,0,0,1,1.05,0c4.69.44,9.39.1,14.09.22,1.05,0,2.11,0,3.16,0a1.14,1.14,0,0,0,1.26,1c.65,0,1.3,0,1.95,0a1.52,1.52,0,0,0,1.35-.63c.1.24.21.48.29.73l5.61,18.14,9.09,29.35a4.47,4.47,0,0,1,.19,2.08,19,19,0,0,0-.16,2.5c0,1.18-.06,2.37-.14,3.56a47.12,47.12,0,0,0-.12,6.06Z"/><path class="cls-5" d="M191,103.25A6.06,6.06,0,0,1,193,103l17.48,0c.5,0,1.07-.21,1.47.3q-2.25,9-4.52,18-3.82,15.22-7.68,30.43a8.61,8.61,0,0,0-.18,3.27,45.58,45.58,0,0,1,.43,7.1,1.55,1.55,0,0,0-.55.86,13.15,13.15,0,0,1-3.15,4.81,12.58,12.58,0,0,1-6.33,3.3,13.4,13.4,0,0,1-8.24-.71,11,11,0,0,1-4.63-4.15,10.25,10.25,0,0,0-1.42-2.32,2.79,2.79,0,0,0-.14-1,25.26,25.26,0,0,1-1.14-9.62,7,7,0,0,1,.37-1.92q1.74-5.06,3.46-10.09,6.23-18.12,12.45-36.25A3.3,3.3,0,0,0,191,103.25Z"/><path class="cls-5" d="M231.1,103.29c1.1,0,2.19-.05,3.28-.05h15.38c.52,0,1.05.05,1.57.07-.52,2.72-.75,5.48-1.12,8.22-.5,3.78-.94,7.58-1.42,11.37-.58,4.48-1.18,9-1.76,13.45-.39,3.05-.77,6.09-1.17,9.14a68.64,68.64,0,0,0-1,11.54c0,.65-.07,1.31-.09,2-.1,2.45-.13,4.9-.19,7.36a1.59,1.59,0,0,0-.52.89,7.45,7.45,0,0,1-4.28,4.57,13.41,13.41,0,0,1-12.29-.53,9,9,0,0,1-4.21-4.89,2.5,2.5,0,0,0-.6-1.15,83.16,83.16,0,0,0-.39-9.2,15,15,0,0,1,0-3.54c.92-5,1.87-10.1,2.79-15.15q2.77-15.09,5.5-30.17A15.56,15.56,0,0,0,231.1,103.29Z"/><path class="cls-2" d="M231.1,103.29a15.56,15.56,0,0,1-.55,3.9q-2.7,15.09-5.5,30.17c-.92,5-1.87,10.1-2.79,15.15a15,15,0,0,0,0,3.54,83.16,83.16,0,0,1,.39,9.2,12.15,12.15,0,0,1-4,4,11.45,11.45,0,0,1-12.36-.11,16.14,16.14,0,0,1-6.42-7,45.58,45.58,0,0,0-.43-7.1,8.61,8.61,0,0,1,.18-3.27q3.88-15.21,7.68-30.43,2.28-9,4.52-18Z"/><path class="cls-5" d="M267.57,103.34c.23-.45.66-.35,1-.35,3.08,0,6.17-.16,9.22.08,2.72.21,5.44,0,8.14.27,0,.44-.08.87-.08,1.31-.12,10.55,0,21.1-.19,31.64-.14,9.23-.06,18.46-.07,27.69a7.93,7.93,0,0,0,.05,2.23,2.08,2.08,0,0,0-.65.82,9,9,0,0,1-7.67,5,17.19,17.19,0,0,1-5.46-.34,10,10,0,0,1-6.34-4.11.91.91,0,0,0-.5-.39c0-1.94-.05-3.87-.09-5.8-.06-2.6-.09-5.19-.16-7.78-.06-2.32.24-4.64.37-7q.42-7.37.81-14.73c.22-4.12.36-8.25.64-12.37.12-1.71.17-3.42.27-5.13Q267.23,108.87,267.57,103.34Z"/><path class="cls-2" d="M191,103.25a3.3,3.3,0,0,1-.38,1.77q-6.21,18.14-12.45,36.25-1.73,5-3.46,10.09a7,7,0,0,0-.37,1.92,25.26,25.26,0,0,0,1.14,9.62,2.79,2.79,0,0,1,.14,1,12,12,0,0,1-7.2,5.63,18.64,18.64,0,0,1-5.77.4,12.49,12.49,0,0,1-8.42-3.56,10.35,10.35,0,0,1-3.31-4.79,11.82,11.82,0,0,1,.94-8.72c4.42-8.67,8.92-17.29,13.4-25.93,1.17-2.28,2.13-4.64,3.09-7,1.58-3.87,3.33-7.68,5-11.51a45.49,45.49,0,0,1,2.13-4.1,1.83,1.83,0,0,1,1.79-1c2.69,0,5.38,0,8.06,0Z"/><path class="cls-2" d="M267.57,103.34q-.35,5.53-.67,11c-.1,1.71-.15,3.42-.27,5.13-.28,4.12-.42,8.25-.64,12.37q-.39,7.37-.81,14.73c-.13,2.33-.43,4.65-.37,7,.07,2.59.1,5.18.16,7.78,0,1.93.06,3.86.09,5.8-2.31,3.38-5.56,4.63-9.57,4.45a16,16,0,0,1-10.14-4.54c-.26-.23-.51-.48-.77-.72.06-2.46.09-4.91.19-7.36,0-.66.12-1.32.09-2a68.64,68.64,0,0,1,1-11.54c.4-3.05.78-6.09,1.17-9.14.58-4.49,1.18-9,1.76-13.45.48-3.79.92-7.59,1.42-11.37.37-2.74.6-5.5,1.12-8.22Z"/><path class="cls-2" d="M330,166.1a47.12,47.12,0,0,1,.12-6.06c.08-1.19.11-2.38.14-3.56a19,19,0,0,1,.16-2.5,4.47,4.47,0,0,0-.19-2.08l-9.09-29.35-5.61-18.14c-.08-.25-.19-.49-.29-.73l0-.39c2.59,0,5.19,0,7.78,0a1.57,1.57,0,0,1,1.57.87c2.79,4.63,5.62,9.24,8.42,13.87q10.08,16.56,20.16,33.13a8.43,8.43,0,0,1,1.23,3.28,22.71,22.71,0,0,1-.46,9.81,10.16,10.16,0,0,1-8.57,7.59,11.54,11.54,0,0,1-2.88-.11,23.84,23.84,0,0,1-7.67-1.79,11,11,0,0,1-4.66-3.55A.27.27,0,0,0,330,166.1Z"/><path class="cls-2" d="M285.68,166.21a7.93,7.93,0,0,1-.05-2.23c0-9.23-.07-18.46.07-27.69.17-10.54.07-21.09.19-31.64,0-.44.05-.87.08-1.31l.38,0a16.58,16.58,0,0,0,3.66.16,6.14,6.14,0,0,0,1.05,0c.71-.07,1,.26,1.17.93.75,3,1.55,6,2.33,8.92,3.31,12.61,6.59,25.23,9.93,37.83a32.89,32.89,0,0,1,.58,5.48c.22,2.36.22,4.74.32,7.11-.21,0-.4,0-.5.31a11.1,11.1,0,0,1-3.16,4.14,8,8,0,0,1-4.11,1.93c-4.18.7-7.78-.61-11-3.14C286.27,166.73,286,166.47,285.68,166.21Z"/><path class="cls-33" d="M315.28,103.29l0,.39a1.52,1.52,0,0,1-1.35.63c-.65,0-1.3,0-1.95,0a1.14,1.14,0,0,1-1.26-1Z"/><path class="cls-34" d="M330,166.1a.27.27,0,0,1,.19.25h-.12l-.1-.05Z"/></g></g></svg>