<svg xmlns="http://www.w3.org/2000/svg" viewBox="0 0 513.92 513.92"><defs><style>.cls-1{fill:#fff;}.cls-2{fill:#8553a6;}.cls-3{fill:#6670df;}.cls-4{fill:#5a9db6;}.cls-5{fill:#fea0cc;}.cls-6{fill:#ffdb53;}.cls-7{fill:#de7e62;}.cls-8{fill:#dc7d61;}.cls-9{fill:#447486;}.cls-10{fill:#593429;}.cls-11{fill:#4b8da5;}.cls-12{fill:#497384;}.cls-13{fill:#f9da60;}.cls-14{fill:#f1a2ca;}.cls-15{fill:#42768a;}.cls-16{fill:#fbf1d0;}.cls-17{fill:#ff84a8;}.cls-18{fill:#feda52;}.cls-19{fill:#522f26;}.cls-20{fill:#dc7c61;}.cls-21{fill:#533026;}.cls-22{fill:#ffa1cd;}.cls-23{fill:#365b68;}.cls-24{fill:#3e575d;}.cls-25{fill:#385b61;}.cls-26{fill:#5a3329;}.cls-27{fill:#fdecbd;}.cls-28{fill:#f9dc8b;}.cls-29{fill:#407284;}.cls-30{fill:#fe822b;}.cls-31{fill:#fe852f;}.cls-32{fill:#2e5462;}.cls-33{fill:#2e5564;}.cls-34{fill:#fea1cb;}.cls-35{fill:#436260;}.cls-36{fill:#fbf1cf;}.cls-37{fill:#fbe5bd;}.cls-38{fill:#fefcfb;}.cls-39{fill:#d5e0e4;}.cls-40{fill:#fc9fca;}</style></defs><g id="Layer_2" data-name="Layer 2"><g id="Graphic_elements" data-name="Graphic elements"><rect class="cls-1" width="513.92" height="513.92" rx="256.96"/><path class="cls-2" d="M159.12,276a13.75,13.75,0,0,0,1.58-1.47l43.84-41.93,16.21-15.49a3.36,3.36,0,0,1,2.34-1.28,5.13,5.13,0,0,1,3.57,1.1,29.19,29.19,0,0,1,2.23,2.08c2.06,2.16,4.35,4.08,6.59,6.05q12.61,11.1,25.26,22.19c1.08.95,2.16,1.9,3.24,2.83.36-.16.48-.49.66-.75q20.92-30.71,41.83-61.42a7.09,7.09,0,0,1,1.93-2.21,6.57,6.57,0,0,1,6.19-.55,15.08,15.08,0,0,1,2.93,1.78c2.64,1.81,5.31,3.6,8,5.41,4,2.71,7.92,5.48,12.08,7.93,1.24.73,2.49,1.44,3.72,2.2.44.27.77.28,1.08-.15a2.08,2.08,0,0,1,.21-.21c4.71-5.15,9.94-9.8,14.77-14.84a3.85,3.85,0,0,1,.35-.35c.29-.24.27-.46,0-.73-.57-.58-1.13-1.18-1.67-1.8s-.4-.65.22-.87c1.11-.4,8.45-1.53,10.65-1.86.77-.11,1.54-.27,2.32-.36s.82,0,.77.72c-.08,1.05-1.52,12.86-1.65,14a2.58,2.58,0,0,1,0,.29c-.12.53-.39.66-.84.32-.62-.47-1.22-1-1.81-1.5-.85-.74-.76-.8-1.46.11l-11,14.37c-1.32,1.71-2.64,3.42-3.88,5.19-1,1.39-2.13,2.66-3.19,4a1.36,1.36,0,0,1-.92.49,7.66,7.66,0,0,1-3.39-.36,18.64,18.64,0,0,1-4.51-2.14l-23.13-14.36-.25-.16c-.78-.47-.78-.47-1.28.27l-5.41,8.09L292.35,233q-8.3,12.44-16.59,24.86c-1.47,2.21-2.63,4.61-4.08,6.83-1.26,1.92-2.77,3.63-5.06,4.3a7.66,7.66,0,0,1-7.14-1.45c-4.05-3.17-8-6.42-12.05-9.64L221,236.61a1.31,1.31,0,0,0-2,0,7.87,7.87,0,0,0-.79.74l-47.59,47.53c-.21.21-.39.43-.59.65-3.43,0-6.86,0-10.3.05-.44,0-.65-.12-.64-.61C159.11,282,159.11,279,159.12,276Z"/><path class="cls-3" d="M159.12,276c0,3,0,6,0,8.92,0,.49.2.61.64.61,3.44,0,6.87,0,10.3-.05.32,0,.65,0,1,0q32.64,0,65.29.06,11.31,0,22.61.19c17.64.24,35.27.06,52.9.11q25.62.06,51.23.08c1.59,0,1.34.11,1.38-1.37,0-.36,0-.72,0-1.08.07-.7.23-.81.88-.6a10.59,10.59,0,0,1,1.29.48,46.72,46.72,0,0,1,6.38,3.45,2.79,2.79,0,0,1,.54.42c.5.57.39,1.13-.33,1.37a54,54,0,0,0-7,3.13,3,3,0,0,1-.45.19c-.67.22-1.06,0-1.25-.69a1.91,1.91,0,0,1-.06-.58c0-1.16,0-1-1.1-1l-44,0c-1.7,0-3.41,0-5.11,0-18.35.36-36.7-.07-55,.21-13.18.21-26.35.08-39.53.2-19.6.17-39.2.05-58.8.1-1.4,0-2.8-.14-4.21,0a2.11,2.11,0,0,1-2.13-1.89,16.15,16.15,0,0,1-.06-2q0-28.28.05-56.54,0-33,0-66.09,0-6.13.17-12.29c0-1.12.11-1.08-1-1.08H151a3.94,3.94,0,0,1-.69,0c-.59-.1-.78-.54-.37-1,1.39-1.47,2.24-3.31,3.5-4.86a31.57,31.57,0,0,0,2.29-3.55c.06-.11.11-.24.18-.35.68-1.06,1.22-1,2-.07a77.57,77.57,0,0,1,5.18,7.76c.23.36.48.7.7,1.06.35.55.16.94-.49,1a9.69,9.69,0,0,1-1.08,0c-.88,0-1.77,0-2.65,0-.5,0-.71.15-.69.67,0,1,0,2,0,3.05,0,2.88.05,5.77.07,8.65.17,25.41,0,50.81.08,76.21q0,18,0,36C159.09,275.3,159.11,275.66,159.12,276Z"/><path class="cls-4" d="M300.72,205.49a1.08,1.08,0,0,0,.22.92c2.54,4.81,4.88,9.71,7.07,14.69a32.43,32.43,0,0,0,2.1,4c.18.29.3.49.75.32.72-.26.86.54,1.25.88s.1.59-.09.87a4.66,4.66,0,0,1-1,1c-1.2.94-2.42,1.88-3.61,2.84a16.59,16.59,0,0,0-2.37,1.88l-3.4,2.66c-.61.47-.67.48-1.06.09-.64-.64-.79-1.1-.35-1.49s.32-.67,0-1.07a84.56,84.56,0,0,1-4.92-7.57,58.61,58.61,0,0,1-3-6.19c-.92-2.17-2-4.28-3-6.39a47.76,47.76,0,0,1-2-4.39,17.61,17.61,0,0,1-.67-2.64c-.33-.12-.53.11-.77.19a.93.93,0,0,0-.68,1c0,2-.08,4.06-.08,6.09,0,6,0,12,0,18,0,1.76.18,3.52.28,5.29,0,.3,0,.59.35.75s.31.38.33.66c.09,1.27-.2,1.61-1.5,1.71h-.59a2.52,2.52,0,0,0-.46-.1c-2-.18-4-.17-6-.19-1,0-1.92-.28-2.89-.26a3,3,0,0,0-1.26-.13c-.88,0-1.77,0-2.65-.05s-1-.14-1-1.06c0-.16,0-.32,0-.48-.08-.51.15-.77.64-.75s.6-.2.64-.63c.23-2.64.47-5.28.63-7.93q.36-6.33.77-12.65c.25-3.85.49-7.71.8-11.55A9.44,9.44,0,0,1,277,197a50.46,50.46,0,0,1,5.34-3.49c.2-.11.39-.24.58-.36.39,0,.78,0,1.17,0l10.69.23a1.39,1.39,0,0,1,.67.1c-1,.7-1.85,1.54-2.8,2.29-1.71,1.35-3.48,2.63-5.22,3.94a3.58,3.58,0,0,0-.54.56c-.1.11-.05.24,0,.35a.28.28,0,0,0,.34.1,6.32,6.32,0,0,0,.74-.49c2-1.53,4-3,5.93-4.61a10.49,10.49,0,0,0,2.3-2.11c2.12,0,4.24,0,6.36.07a4.37,4.37,0,0,0,2.28-.28c1.44-.72,3-1.18,4.42-1.87a27.91,27.91,0,0,1,3.47-1.33c.72.16,1.41-.19,2.12-.13a2.88,2.88,0,0,1-.23,1.32c-.33.82-.73,1.6-1.12,2.39a1.69,1.69,0,0,0,.1,1.73c.73,1.37,2.84,1.76,4.13,1.26a3.67,3.67,0,0,1-1.62,2.25,8.36,8.36,0,0,1-4.27,1.6,5.32,5.32,0,0,0-1.41.36,77,77,0,0,0-9,4.37,1.58,1.58,0,0,1-.72.3,14.42,14.42,0,0,1-.81-4.1c0-.2,0-.41-.31-.4s-.26.18-.27.35a8.09,8.09,0,0,0,.5,3.55A.82.82,0,0,0,300.72,205.49ZM302.66,216v-.69c0-.17-.06-.33-.25-.36s-.29.11-.32.29a2.58,2.58,0,0,0,0,.29,16.83,16.83,0,0,1-1.47,5.44,31.62,31.62,0,0,0-1.46,3.63,5,5,0,0,0-.18.66.32.32,0,0,0,.19.4.36.36,0,0,0,.43-.15,1.4,1.4,0,0,0,.24-.43c.42-1.58,1.21-3,1.78-4.54A13.11,13.11,0,0,0,302.66,216Zm-22.23,5.33c.05-.48-.29-.79-.51-1.13-1.59-2.38-3.48-4.55-4.74-7.15-.07-.15-.16-.32-.37-.23s-.23.28-.17.49a7.58,7.58,0,0,0,.82,1.78,51.17,51.17,0,0,0,3,4.34c.52.67.95,1.41,1.46,2.07.1.13.23.26.41.17S280.43,221.49,280.43,221.36Zm.71,2c0-.2-.17-.21-.3-.22-.3,0-.45.19-.61.41a45.84,45.84,0,0,1-3.76,4.49c-.74.77-1.45,1.58-2.2,2.36-.13.13-.35.29-.19.48s.42.12.63,0a1.3,1.3,0,0,0,.22-.19c1.23-1.31,2.48-2.59,3.67-3.93.75-.85,1.43-1.77,2.12-2.68A1.75,1.75,0,0,0,281.14,223.41Zm.48,14.32c.59,0,1.18,0,1.77,0,.23,0,.49-.06.47-.36s-.28-.22-.47-.21c-2.54.11-5.06-.36-7.6-.41a3.08,3.08,0,0,1-.67-.09,9.66,9.66,0,0,0-2.15-.08c-.12,0-.27,0-.29.19a.31.31,0,0,0,.29.33,3.79,3.79,0,0,0,.58,0,12,12,0,0,1,1.47,0C277.21,237.52,279.42,237.6,281.62,237.73Zm27.92-11c0-.24-.11-.39-.37-.26a1.37,1.37,0,0,0-.3.25c-1.59,1.39-3.08,2.9-4.76,4.2a11.1,11.1,0,0,0-1,1c-.16.17-.38.37-.2.59s.38,0,.55-.15a25.2,25.2,0,0,0,2-1.71c1.3-.94,2.39-2.11,3.61-3.15A.93.93,0,0,0,309.54,226.71Zm-25.71-21.64a9.38,9.38,0,0,0-1.72-.84c-.3-.08-.53-.09-.65.22s.12.41.33.52a13.74,13.74,0,0,1,1.81,1,.31.31,0,0,0,.44-.08,3.3,3.3,0,0,0,.7-2.88.38.38,0,0,0-.39-.37.4.4,0,0,0-.35.41c0,.26,0,.52,0,.78A2.72,2.72,0,0,1,283.83,205.07Zm16.9-1.8c0,.37,0,.66.29.73s.35-.25.41-.45c.25-.7.46-1.41.71-2.11.08-.24.12-.46-.15-.58s-.42.1-.5.31C301.21,201.9,301,202.63,300.73,203.27Zm-14.39.22a2.64,2.64,0,0,0,.35,1.58.34.34,0,0,0,.42.16.3.3,0,0,0,.19-.39,3.92,3.92,0,0,0-.16-.56,2.37,2.37,0,0,1-.13-1.51c.05-.16.09-.33-.12-.39a.38.38,0,0,0-.47.25A2.25,2.25,0,0,0,286.34,203.49Zm11,14.22c-.2-.7-.81-1.14-1.24-1.7-.08-.11-.24,0-.35.06a.3.3,0,0,0,0,.44c.34.43.7.85,1,1.28a.84.84,0,0,0,.24.18C297.23,218.05,297.3,217.92,297.34,217.71Z"/><path class="cls-5" d="M288.42,169.12a38.11,38.11,0,0,1,2.9-6.29c.56-.92,1.17-1.81,1.76-2.71a18.18,18.18,0,0,1,3.63-3.54c.46-.4.94-.8,1.42-1.19a6.93,6.93,0,0,1,5.72-1.36.71.71,0,0,0,.22,1.09,8,8,0,0,0,3.48,1.45,3.85,3.85,0,0,0,3.22-1.07,9.21,9.21,0,0,0,3-5.25,48.59,48.59,0,0,1,5.24.61,7.28,7.28,0,0,1,3.77,2.31,13.66,13.66,0,0,1,2.64,4.32,28.74,28.74,0,0,1,1,3.48c.65,2.33,1.29,4.66,1.95,7a17.5,17.5,0,0,1,.87,4.11,1.6,1.6,0,0,0-1.14-.07c-1.55.39-3.11.73-4.65,1.12-.89.22-1.76.48-2.64.72-.31.08-.55.22-.6.56a.65.65,0,0,0,.48.74,2.73,2.73,0,0,0,.48.1,1.27,1.27,0,0,0-1,1.4,8.53,8.53,0,0,1-.52,2.38.86.86,0,0,1-.87.75c-.19,0-.38.11-.57.14-3.9.64-7.77,1.4-11.59,2.4-.63.16-1.25.35-1.89.5a9,9,0,0,0-3.42,1.82,1.28,1.28,0,0,1-1.2-1.09,5.51,5.51,0,0,0-.27-.74c-.94-2.82-2.5-5.38-3.55-8.16a.84.84,0,0,0-.9-.6c-.65,0-1.3,0-2,0a.52.52,0,0,0-.22-.38v-.29c.81-.86.72-1.35-.36-1.62a7.25,7.25,0,0,1-1.27-.49A18,18,0,0,1,288.42,169.12Zm17.89-5.75a9.05,9.05,0,0,0-7.15,3.41,8.83,8.83,0,0,0-2,4.62,8.13,8.13,0,0,0,3.46,7.75,8.25,8.25,0,0,0,6.75,1.66,9.14,9.14,0,0,0,6.92-5.51,7.82,7.82,0,0,0,.7-3.92,8.76,8.76,0,0,0-2.3-5.18A8,8,0,0,0,306.31,163.37Zm13.85,2.08c-.06,0-.14-.08-.15-.12a17.66,17.66,0,0,1-.63-4.15,1.7,1.7,0,0,0-.2-.94c-.25-.42-.56-.42-.84,0a1,1,0,0,0-.14.66,16.87,16.87,0,0,0,.16,2.24c.5,3.22,1.42,6.36,1.82,9.6a.52.52,0,0,0,.51.5c.32,0,.47-.18.57-.43a2,2,0,0,0,0-1.07,16.5,16.5,0,0,1-.34-2.31,12.32,12.32,0,0,1,.48-3.58,3.82,3.82,0,0,0,.11-.57.53.53,0,0,0-.35-.63c-.25-.09-.42.08-.6.22S320.44,165.35,320.16,165.45Zm-25.38,2c-.34-.67-.57-1.14-.81-1.6a5.74,5.74,0,0,0-.43-.66.35.35,0,0,0-.42-.15.42.42,0,0,0-.27.38,1.1,1.1,0,0,0,.07.48,24.08,24.08,0,0,0,1.21,2.57,1.07,1.07,0,0,1,.11,1.18c-.17.35-.3.72-.46,1.08s-.26.58.06.78.54-.13.72-.33a3.5,3.5,0,0,0,.65-1.31c.61-2,1.23-3.92,1.84-5.88a1.29,1.29,0,0,0,.08-.28c0-.32.11-.72-.3-.83s-.53.23-.63.51a15,15,0,0,0-.62,1.74A11.47,11.47,0,0,1,294.78,167.46Z"/><path class="cls-6" d="M293.44,174c.66,0,1.31.06,2,.05a.84.84,0,0,1,.9.6c1.05,2.78,2.61,5.34,3.55,8.16a5.51,5.51,0,0,1,.27.74,1.28,1.28,0,0,0,1.2,1.09c-.1.25-.44.4-.38.66a3.92,3.92,0,0,0,.91,2.22c.31.27.45.38.29.74a.62.62,0,0,0,0,.48,15.89,15.89,0,0,0,1.17,2.47c.79-.92.38-2.44,1.62-3.13.17.44-.05.76-.16,1.09a3.41,3.41,0,0,0-.14,1.45.69.69,0,0,0,.46.69A.75.75,0,0,0,306,191a3.24,3.24,0,0,0,.45-.76c.18-.42.3-.86.47-1.28s.3-.7.82-.73c-.12.51-.25.94-.32,1.38s0,.69.33.85a.86.86,0,0,0,1-.19l.47-.49c.44-.44.87-.89,1.33-1.31a3.23,3.23,0,0,1,2-.91,25.17,25.17,0,0,0,3.87-.52,7.74,7.74,0,0,1,2-.31,1.34,1.34,0,0,1-1.07,1.31c-1.59.58-3.1,1.3-4.63,2a27.91,27.91,0,0,0-3.47,1.33c-1.45.69-3,1.15-4.42,1.87a4.37,4.37,0,0,1-2.28.28c-2.12-.1-4.24-.06-6.36-.07l-.79,0a1.39,1.39,0,0,0-.67-.1l-10.69-.23c-.39,0-.78,0-1.17,0-1.4-.08-2.81-.18-4.21-.22a.84.84,0,0,1-.91-.55l-8-18.7a1.5,1.5,0,0,1-.07-.35c.87,0,1.71-.05,2.54,0q.93.08,1.86.09l10.11.28a18.81,18.81,0,0,0,2.25.09C288.81,173.83,291.12,174.12,293.44,174Zm-7.89,12a2.3,2.3,0,0,0,2.51-2.51c0-1.51-1.33-2.27-2.65-2.37a2.55,2.55,0,0,0-2.58,2.53A2.52,2.52,0,0,0,285.55,186Z"/><path class="cls-7" d="M318.43,186.74a7.74,7.74,0,0,0-2,.31,25.17,25.17,0,0,1-3.87.52,3.23,3.23,0,0,0-2,.91c-.46.42-.89.87-1.33,1.31l-.47.49a.86.86,0,0,1-1,.19c-.37-.16-.38-.52-.33-.85s.2-.87.32-1.38c-.52,0-.69.38-.82.73s-.29.86-.47,1.28a3.24,3.24,0,0,1-.45.76.75.75,0,0,1-.87.28.69.69,0,0,1-.46-.69,3.41,3.41,0,0,1,.14-1.45c.11-.33.33-.65.16-1.09-1.24.69-.83,2.21-1.62,3.13a15.89,15.89,0,0,1-1.17-2.47.62.62,0,0,1,0-.48c.16-.36,0-.47-.29-.74a3.92,3.92,0,0,1-.91-2.22c-.06-.26.28-.41.38-.66a9,9,0,0,1,3.42-1.82c.64-.15,1.26-.34,1.89-.5,3.82-1,7.69-1.76,11.59-2.4.19,0,.38-.13.57-.14a.86.86,0,0,0,.87-.75,8.53,8.53,0,0,0,.52-2.38,1.27,1.27,0,0,1,1-1.4c1.71-.4,3.39-1,5.14-1.19-.06,2.81.24,5.61.21,8.41a2.13,2.13,0,0,1-1.22,2,22.13,22.13,0,0,1-4.51,1.57A11.17,11.17,0,0,0,318.43,186.74Z"/><path class="cls-8" d="M311.9,143.68a2.35,2.35,0,0,1-.41,1.48,1.71,1.71,0,0,0-.08,1.48,28.58,28.58,0,0,0,1.26,3,1.86,1.86,0,0,0-.64,1,8.43,8.43,0,0,1-1.1,2.28c-1,1.31-2.19,2.3-4,1.89a6.35,6.35,0,0,1-2.09-.81,16,16,0,0,0,.47-3.78c0-.77,0-.79-.81-.94a11.33,11.33,0,0,1-2.51-.81,4,4,0,0,1-2.26-3.13,22.14,22.14,0,0,1-.24-5.27c.33-.1.86.19,1-.34s-.56-.35-.79-.59c0-.23,0-.45,0-.68,2.7.16,5.15-1,7.71-1.47.23.32.12.63.16.92a1.52,1.52,0,0,0,.7,1.13c.35.22.64.29.83-.22.3-.78,1-.75,1.66-.7a1.08,1.08,0,0,1,1.09.83,1.6,1.6,0,0,1-.44,1.79,3.6,3.6,0,0,1-2,1C310,143.14,310.72,143.74,311.9,143.68Zm-10.18.2a2.19,2.19,0,0,1,.22-1.17,4,4,0,0,0,0-2.12c-.06-.22-.13-.51-.41-.48s-.25.34-.23.56a5.26,5.26,0,0,1-.31,2.6,2.29,2.29,0,0,0-.09.87c0,.49.28.69.77.62a2.14,2.14,0,0,0,1.21-.78.3.3,0,0,0,0-.44.33.33,0,0,0-.44-.07C302.22,143.58,302,143.72,301.72,143.88Zm.81,2.14a1.94,1.94,0,0,0,1.64-.88c.2-.25.69-.53.33-.88s-.62.13-.85.35a1.76,1.76,0,0,1-1.34.67c-.28,0-.76-.18-.75.31s.49.32.77.41A1.23,1.23,0,0,0,302.53,146Zm.91-6.27c.12,0,.28,0,.45,0s.41,0,.46-.24-.14-.43-.37-.5a1.66,1.66,0,0,0-1.14.08c-.18.08-.38.18-.36.41s.31.28.53.27A4.08,4.08,0,0,0,303.44,139.75Zm.75,6.19a1.21,1.21,0,0,0-.92.76.25.25,0,0,0,.29.3,1.57,1.57,0,0,0,.88-.56A.32.32,0,0,0,304.19,145.94Zm-3.38-4.62c-.08-.25-.22-.48-.52-.46a.54.54,0,0,0-.56.56c0,.3.17.5.49.48A.64.64,0,0,0,300.81,141.32Zm3-.3c-.07-.24-.21-.45-.53-.41a.47.47,0,0,0-.43.55.4.4,0,0,0,.46.4C303.63,141.55,303.8,141.36,303.83,141Z"/><path class="cls-2" d="M297,137.2l-4.29.49c-.69.08-1-.06-1.26-.5s-.12-.91.43-1.37a10.39,10.39,0,0,1,3.39-1.74,16,16,0,0,1,2.67-.64c.35-.05.6-.15.64-.59.22-2.26,1.68-3.52,3.61-4.38a13.51,13.51,0,0,1,1.75-.63.63.63,0,0,0,.51-.7c0-.79.36-1.15,1-1.24a1.43,1.43,0,0,1,1.65.91c.12.5.4.59.81.68.7.15,1.38.41,2.09.51,1.73.24,2.51,1.47,3,2.9a8.52,8.52,0,0,1,.2,4.17c-.06.38-.16.71-.6.79s-.85,0-1.28,0l-7.32.57c-1.24.09-2.48.09-3.71.25A16.43,16.43,0,0,0,297,137.2Z"/><path class="cls-9" d="M284.36,241c1.23,1.28,1,2.81.71,4.33-.07.36-.39.5-.74.55a48.13,48.13,0,0,1-5.63.72c-1.31,0-2.59.27-3.89.42a15.59,15.59,0,0,1-4.09.19c-1.49-.21-1.94-1.16-1.19-2.52.34,0,.56-.24.85-.38a6,6,0,0,1,.5,1.3,1.66,1.66,0,0,0,.43.75.55.55,0,0,0,.86-.09.45.45,0,0,0-.14-.74,2.14,2.14,0,0,1-.84-1.83l.47-.23a.32.32,0,0,0,.32-.14c.11-.06.27-.08.21-.27h0c.22.16.4,0,.59-.08.37.26.34.68.45,1.05a1.83,1.83,0,0,0,.43,1c.24.22.51.33.78.08a.47.47,0,0,0,0-.69c-.06-.08-.18-.13-.2-.21-.19-.59-.63-1.15-.28-1.82a.53.53,0,0,0-.39-.6v0c-.7-.87-.64-1.09.42-1.53l.9-.33,1.72-.32c.74-.14.89-.05,1.12.7.14.46.27.93.42,1.4a.91.91,0,0,0,.87.65,4.71,4.71,0,0,0,3.44-.74A2.3,2.3,0,0,1,284.36,241Z"/><path class="cls-9" d="M305.86,237a4.74,4.74,0,0,1-1.26-.5c-.71-.44-.8-1-.25-1.59.36-.41.74-.81,1.11-1.21a5.41,5.41,0,0,0,1.12-.79c1-.72,1.44-.63,2,.52a1.91,1.91,0,0,0,.26.41.6.6,0,0,0,.87.16c.57-.39,1.19-.77,1.32-1.51a1.44,1.44,0,0,1,1.39-1.28,7.06,7.06,0,0,1,2,3.74,1.88,1.88,0,0,1-.46,1.55,46,46,0,0,1-7,7.12,1.71,1.71,0,0,1-2.31.23,1.13,1.13,0,0,1-.54-1.34,9.71,9.71,0,0,1,.91-2.15,1.1,1.1,0,0,0,.34-.18c.48-.47.65-.48,1,0a10.72,10.72,0,0,1,.5.95c.14.26.36.42.64.26a.43.43,0,0,0,.11-.68c-.48-.69-.86-1.47-1.72-1.79.06-.12.11-.24.17-.35.31-.22.4-.59.6-.88s.34-.23.46,0a7.34,7.34,0,0,1,.32.82c.08.22.1.45.2.66a.49.49,0,0,0,.72.29.4.4,0,0,0,.12-.66,5.45,5.45,0,0,1-.56-1.26c-.41-.94-.71-1.08-1.65-.71C306.18,236.89,306,236.91,305.86,237Z"/><path class="cls-10" d="M297,137.2a16.43,16.43,0,0,1,3.28-.48c1.23-.16,2.47-.16,3.71-.25l7.32-.57c.43,0,.85,0,1.28,0a.92.92,0,0,0,.05.28c.86,2.28.18,4.47-.35,6.67a1.89,1.89,0,0,1-.41.87c-1.18.06-1.94-.54-2.47-2a3.6,3.6,0,0,0,2-1,1.6,1.6,0,0,0,.44-1.79,1.08,1.08,0,0,0-1.09-.83c-.66-.05-1.36-.08-1.66.7-.19.51-.48.44-.83.22a1.52,1.52,0,0,1-.7-1.13c0-.29.07-.6-.16-.92-2.56.44-5,1.63-7.71,1.47-.35-.22-.77-.11-1.14-.24A2.8,2.8,0,0,1,297,137.2Z"/><path class="cls-11" d="M317.73,196.62c-1.29.5-3.4.11-4.13-1.26a1.69,1.69,0,0,1-.1-1.73c.39-.79.79-1.57,1.12-2.39a2.88,2.88,0,0,0,.23-1.32,2.35,2.35,0,0,1,1.25-.23,7.39,7.39,0,0,0,2.67-.53c.09,1.17.17,2.34.19,3.52A6.07,6.07,0,0,1,317.73,196.62Z"/><path class="cls-12" d="M304.86,153.91a6.35,6.35,0,0,0,2.09.81c1.79.41,3-.58,4-1.89a8.43,8.43,0,0,0,1.1-2.28,1.86,1.86,0,0,1,.64-1,.9.9,0,0,1,1.06.65,9.21,9.21,0,0,1-3,5.25,3.85,3.85,0,0,1-3.22,1.07,8,8,0,0,1-3.48-1.45.71.71,0,0,1-.22-1.09A1.37,1.37,0,0,1,304.86,153.91Z"/><path class="cls-13" d="M312.46,231.17a1.44,1.44,0,0,0-1.39,1.28c-.13.74-.75,1.12-1.32,1.51a.6.6,0,0,1-.87-.16,1.91,1.91,0,0,1-.26-.41c-.6-1.15-1-1.24-2-.52a5.41,5.41,0,0,1-1.12.79l-.46-.73a16.59,16.59,0,0,1,2.37-1.88c1.19-1,2.41-1.9,3.61-2.84C311.48,229.2,312,230.18,312.46,231.17Z"/><path class="cls-13" d="M284.36,241a2.3,2.3,0,0,0-1.9.57,4.71,4.71,0,0,1-3.44.74.91.91,0,0,1-.87-.65c-.15-.47-.28-.94-.42-1.4-.23-.75-.38-.84-1.12-.7l-1.72.32-.15-.77c1,0,1.92.25,2.89.26,2,0,4,0,6,.19a2.52,2.52,0,0,1,.46.1C284.16,240.09,284.26,240.54,284.36,241Z"/><path class="cls-12" d="M326.28,174c-1.75.23-3.43.79-5.14,1.19a2.73,2.73,0,0,1-.48-.1.65.65,0,0,1-.48-.74c.05-.34.29-.48.6-.56.88-.24,1.75-.5,2.64-.72,1.54-.39,3.1-.73,4.65-1.12a1.6,1.6,0,0,1,1.14.07c.28.86.16,1.12-.68,1.35A22.09,22.09,0,0,0,326.28,174Z"/><path class="cls-9" d="M288.42,169.12a18,18,0,0,0,3.18,2.09,7.25,7.25,0,0,0,1.27.49c1.08.27,1.17.76.36,1.62-.42,0-.75-.36-1.19-.26a35.59,35.59,0,0,1-4.21-2.05,5.47,5.47,0,0,0-.51-.45.72.72,0,0,1-.36-1,.85.85,0,0,1,1.08-.5Z"/><path class="cls-5" d="M318.77,189.16a7.39,7.39,0,0,1-2.67.53,2.35,2.35,0,0,0-1.25.23c-.71-.06-1.4.29-2.12.13,1.53-.7,3-1.42,4.63-2a1.34,1.34,0,0,0,1.07-1.31,11.17,11.17,0,0,1,2.33-.7,2.36,2.36,0,0,1-1.66,2.9A1.12,1.12,0,0,0,318.77,189.16Z"/><path class="cls-7" d="M287.83,171a35.59,35.59,0,0,0,4.21,2.05,1.42,1.42,0,0,0,1.18.55.52.52,0,0,1,.22.38c-2.32.13-4.63-.16-6.95-.21A16.83,16.83,0,0,1,287.83,171Z"/><path class="cls-14" d="M271.19,243.69a2.14,2.14,0,0,0,.84,1.83.45.45,0,0,1,.14.74.55.55,0,0,1-.86.09,1.66,1.66,0,0,1-.43-.75,6,6,0,0,0-.5-1.3c-.29.14-.51.43-.85.38a1.49,1.49,0,0,1,0-1q.4-.94,1.2-.33Z"/><path class="cls-14" d="M305.86,237c.16-.05.32-.07.47-.13.94-.37,1.24-.23,1.65.71a5.45,5.45,0,0,0,.56,1.26.4.4,0,0,1-.12.66.49.49,0,0,1-.72-.29c-.1-.21-.12-.44-.2-.66a7.34,7.34,0,0,0-.32-.82c-.12-.23-.32-.21-.46,0s-.29.66-.6.88C305.45,238.13,305.85,237.51,305.86,237Z"/><path class="cls-14" d="M306,238.92c.86.32,1.24,1.1,1.72,1.79a.43.43,0,0,1-.11.68c-.28.16-.5,0-.64-.26a10.72,10.72,0,0,0-.5-.95c-.36-.52-.53-.51-1,0a1.1,1.1,0,0,1-.34.18C304.74,239.39,304.87,239.17,306,238.92Z"/><path class="cls-10" d="M299.69,139.05c.23.24.91,0,.79.59s-.64.24-1,.34C299.1,139.48,299.1,139.47,299.69,139.05Z"/><path class="cls-15" d="M302.66,216a13.11,13.11,0,0,1-1.07,4.54c-.57,1.52-1.36,3-1.78,4.54a1.4,1.4,0,0,1-.24.43.36.36,0,0,1-.43.15.32.32,0,0,1-.19-.4,5,5,0,0,1,.18-.66,31.62,31.62,0,0,1,1.46-3.63,16.83,16.83,0,0,0,1.47-5.44,2.58,2.58,0,0,1,0-.29c0-.18.12-.32.32-.29s.24.19.25.36Z"/><path class="cls-15" d="M295.41,193.43l.79,0a10.49,10.49,0,0,1-2.3,2.11c-1.94,1.58-3.95,3.08-5.93,4.61a6.32,6.32,0,0,1-.74.49.28.28,0,0,1-.34-.1c-.09-.11-.14-.24,0-.35a3.58,3.58,0,0,1,.54-.56c1.74-1.31,3.51-2.59,5.22-3.94C293.56,195,294.43,194.13,295.41,193.43Z"/><path class="cls-15" d="M280.43,221.36c0,.13,0,.28-.13.34s-.31,0-.41-.17c-.51-.66-.94-1.4-1.46-2.07a51.17,51.17,0,0,1-3-4.34,7.58,7.58,0,0,1-.82-1.78c-.06-.21,0-.39.17-.49s.3.08.37.23c1.26,2.6,3.15,4.77,4.74,7.15C280.14,220.57,280.48,220.88,280.43,221.36Z"/><path class="cls-15" d="M281.14,223.41a1.75,1.75,0,0,1-.42.72c-.69.91-1.37,1.83-2.12,2.68-1.19,1.34-2.44,2.62-3.67,3.93a1.3,1.3,0,0,1-.22.19c-.21.12-.46.2-.63,0s.06-.35.19-.48c.75-.78,1.46-1.59,2.2-2.36a45.84,45.84,0,0,0,3.76-4.49c.16-.22.31-.42.61-.41C281,223.2,281.11,223.21,281.14,223.41Z"/><path class="cls-15" d="M281.62,237.73c-2.2-.13-4.41-.21-6.6-.56a12,12,0,0,0-1.47,0,3.79,3.79,0,0,1-.58,0,.31.31,0,0,1-.29-.33c0-.17.17-.2.29-.19a9.66,9.66,0,0,1,2.15.08,3.08,3.08,0,0,0,.67.09c2.54,0,5.06.52,7.6.41.19,0,.45-.06.47.21s-.24.36-.47.36C282.8,237.74,282.21,237.73,281.62,237.73Z"/><path class="cls-15" d="M309.54,226.71a.93.93,0,0,1-.44.73c-1.22,1-2.31,2.21-3.61,3.15a25.2,25.2,0,0,1-2,1.71c-.17.1-.33.43-.55.15s0-.42.2-.59a11.1,11.1,0,0,1,1-1c1.68-1.3,3.17-2.81,4.76-4.2a1.37,1.37,0,0,1,.3-.25C309.43,226.32,309.52,226.47,309.54,226.71Z"/><path class="cls-15" d="M283.83,205.07a2.72,2.72,0,0,0,.14-1.26c0-.26,0-.52,0-.78a.4.4,0,0,1,.35-.41.38.38,0,0,1,.39.37,3.3,3.3,0,0,1-.7,2.88.31.31,0,0,1-.44.08,13.74,13.74,0,0,0-1.81-1c-.21-.11-.43-.24-.33-.52s.35-.3.65-.22A9.38,9.38,0,0,1,283.83,205.07Z"/><path class="cls-15" d="M300.72,205.49a.82.82,0,0,1-.9-.59,8.09,8.09,0,0,1-.5-3.55c0-.17.08-.34.27-.35s.31.2.31.4a14.42,14.42,0,0,0,.81,4.1Z"/><path class="cls-15" d="M300.73,203.27c.23-.64.48-1.37.76-2.1.08-.21.22-.43.5-.31s.23.34.15.58c-.25.7-.46,1.41-.71,2.11-.06.2-.13.51-.41.45S300.7,203.64,300.73,203.27Z"/><path class="cls-15" d="M286.34,203.49a2.25,2.25,0,0,1,.08-.86.38.38,0,0,1,.47-.25c.21.06.17.23.12.39a2.37,2.37,0,0,0,.13,1.51,3.92,3.92,0,0,1,.16.56.3.3,0,0,1-.19.39.34.34,0,0,1-.42-.16A2.64,2.64,0,0,1,286.34,203.49Z"/><path class="cls-15" d="M297.34,217.71c0,.21-.11.34-.32.26a.84.84,0,0,1-.24-.18c-.35-.43-.71-.85-1-1.28a.3.3,0,0,1,0-.44c.11-.1.27-.17.35-.06C296.53,216.57,297.14,217,297.34,217.71Z"/><path class="cls-16" d="M306.31,163.37a8,8,0,0,1,6.4,2.83,8.76,8.76,0,0,1,2.3,5.18,7.82,7.82,0,0,1-.7,3.92,9.14,9.14,0,0,1-6.92,5.51,8.25,8.25,0,0,1-6.75-1.66,8.13,8.13,0,0,1-3.46-7.75,8.83,8.83,0,0,1,2-4.62A9.05,9.05,0,0,1,306.31,163.37Z"/><path class="cls-17" d="M320.16,165.45c.28-.1.21-.45.42-.61s.35-.31.6-.22a.53.53,0,0,1,.35.63,3.82,3.82,0,0,1-.11.57,12.32,12.32,0,0,0-.48,3.58,16.5,16.5,0,0,0,.34,2.31,2,2,0,0,1,0,1.07c-.1.25-.25.47-.57.43a.52.52,0,0,1-.51-.5c-.4-3.24-1.32-6.38-1.82-9.6a16.87,16.87,0,0,1-.16-2.24,1,1,0,0,1,.14-.66c.28-.39.59-.39.84,0a1.7,1.7,0,0,1,.2.94,17.66,17.66,0,0,0,.63,4.15S320.1,165.4,320.16,165.45Z"/><path class="cls-17" d="M294.78,167.46a11.47,11.47,0,0,0,.8-2.32,15,15,0,0,1,.62-1.74c.1-.28.29-.59.63-.51s.33.51.3.83a1.29,1.29,0,0,1-.08.28c-.61,2-1.23,3.92-1.84,5.88a3.5,3.5,0,0,1-.65,1.31c-.18.2-.36.55-.72.33s-.2-.5-.06-.78.29-.73.46-1.08a1.07,1.07,0,0,0-.11-1.18,24.08,24.08,0,0,1-1.21-2.57,1.1,1.1,0,0,1-.07-.48.42.42,0,0,1,.27-.38.35.35,0,0,1,.42.15,5.74,5.74,0,0,1,.43.66C294.21,166.32,294.44,166.79,294.78,167.46Z"/><path class="cls-14" d="M293.22,173.61a1.42,1.42,0,0,1-1.18-.55c.44-.1.77.29,1.19.26Z"/><path class="cls-16" d="M285.55,186a2.52,2.52,0,0,1-2.72-2.35,2.55,2.55,0,0,1,2.58-2.53c1.32.1,2.67.86,2.65,2.37A2.3,2.3,0,0,1,285.55,186Z"/><path class="cls-10" d="M301.72,143.88c.28-.16.5-.3.73-.41a.33.33,0,0,1,.44.07.3.3,0,0,1,0,.44,2.14,2.14,0,0,1-1.21.78c-.49.07-.75-.13-.77-.62a2.29,2.29,0,0,1,.09-.87,5.26,5.26,0,0,0,.31-2.6c0-.22-.08-.52.23-.56s.35.26.41.48a4,4,0,0,1,0,2.12A2.19,2.19,0,0,0,301.72,143.88Z"/><path class="cls-10" d="M302.53,146a1.23,1.23,0,0,1-.2,0c-.28-.09-.77,0-.77-.41s.47-.32.75-.31a1.76,1.76,0,0,0,1.34-.67c.23-.22.48-.71.85-.35s-.13.63-.33.88A1.94,1.94,0,0,1,302.53,146Z"/><path class="cls-10" d="M303.44,139.75a4.08,4.08,0,0,1-.43.05c-.22,0-.49,0-.53-.27s.18-.33.36-.41A1.66,1.66,0,0,1,304,139c.23.07.42.23.37.5s-.26.25-.46.24S303.56,139.76,303.44,139.75Z"/><path class="cls-10" d="M304.19,145.94a.32.32,0,0,1,.25.5,1.57,1.57,0,0,1-.88.56.25.25,0,0,1-.29-.3A1.21,1.21,0,0,1,304.19,145.94Z"/><path class="cls-10" d="M300.81,141.32a.64.64,0,0,1-.59.58c-.32,0-.48-.18-.49-.48a.54.54,0,0,1,.56-.56C300.59,140.84,300.73,141.07,300.81,141.32Z"/><path class="cls-10" d="M303.83,141c0,.34-.2.53-.5.54a.4.4,0,0,1-.46-.4.47.47,0,0,1,.43-.55C303.62,140.57,303.76,140.78,303.83,141Z"/><path class="cls-14" d="M272.19,243.05Z"/><path class="cls-14" d="M274.44,244.38c-.06-.08-.18-.13-.2-.21-.19-.59-.63-1.15-.28-1.82a.53.53,0,0,0-.39-.6v0l-.78,0c-1.19,0-1.63.68-1.13,1.77a.32.32,0,0,0,.32-.14.36.36,0,0,1,.21-.27c.3-.48.34-.48.58-.07s.34.68.45,1.05a1.83,1.83,0,0,0,.43,1c.24.22.51.33.78.08A.47.47,0,0,0,274.44,244.38Z"/><path class="cls-2" d="M173.42,299.68a4.37,4.37,0,0,1,.44,1.7,88.83,88.83,0,0,1-.1,13.55q-.3,3.52-.31,7.06c0,3.34,0,6.69,0,10a86.81,86.81,0,0,1-.52,9.12c-.08.81-.1,1.63-.1,2.45,0,4.13.06,8.26,0,12.39-.09,3.27-.14,6.55-.16,9.82a19.81,19.81,0,0,1-.74,4.45c-.09.36-.3.45-.64.45-.49,0-1,0-1.47.05-.32,0-.65-.05-1-.05h-7.52a3.93,3.93,0,0,1-.12-.67c0-3.38-.41-6.73-.42-10.11,0-1.64,0-3.28,0-4.91,0-5.25-.32-10.48-.74-15.7-.25-3-.42-6.08-.66-9.11-.26-3.43-.57-6.85-.85-10.28-.18-2.32-.33-4.64-.52-7,0-.58-.15-1.16-.24-1.75a.37.37,0,0,0-.32-.39c-.14,1.33-.3,2.65-.41,4-.44,5.15-.79,10.31-1.43,15.45-.86,6.92-1.59,13.86-2.95,20.7-1,5.14-2.16,10.25-3.22,15.37-.24,1.16-.41,2.33-.6,3.49-.15.87-.15.87-1.07.93-3.15,0-6.29-.06-9.44,0-.46,0-.49-.33-.48-.69a33.72,33.72,0,0,1,.2-4q.56-4,1.13-8.07c.35-2.4.5-4.82.71-7.24.33-3.88.66-7.76.92-11.65.18-2.65.25-5.3.34-7.95,0-1.47,0-2.95,0-4.42a85,85,0,0,0-.72-12.35c-.32-2.93-.52-5.87-.67-8.82-.09-1.73-.39-3.44-.55-5.17a4.34,4.34,0,0,1,0-1.08,65,65,0,0,0,7.25.2h6.88a15.55,15.55,0,0,1,2.16.05c1.49.2,3,.17,4.49.33,1.69.19,3.38.27,5.07.46a33.58,33.58,0,0,0,5.93.38A3.29,3.29,0,0,0,173.42,299.68ZM159.61,306l-.1-.18c.39-.67.8-1.34,1.19-2a8.6,8.6,0,0,0,.46-1,.46.46,0,0,0-.21-.67c-.31-.15-.47.08-.6.32-.31.58-.6,1.17-.94,1.73-.86,1.36-1.61,2.77-2.34,4.2a5.82,5.82,0,0,0-.35.81.39.39,0,0,0,.14.52c.24.13.37,0,.48-.2a3,3,0,0,0,.36-.59,3.28,3.28,0,0,1,2.63-2.08c.51-.1,1-.25,1.52-.38.25-.06.51-.1.77-.17a.41.41,0,0,0,.36-.4c0-.28-.19-.41-.43-.47a1.84,1.84,0,0,0-.87.06Z"/><path class="cls-18" d="M173.42,299.68a3.29,3.29,0,0,1-2.52,1,33.58,33.58,0,0,1-5.93-.38c-1.69-.19-3.38-.27-5.07-.46-1.49-.16-3-.13-4.49-.33a15.55,15.55,0,0,0-2.16-.05h-6.88a65,65,0,0,1-7.25-.2c-.75-.1-1.5-.15-2.24-.31-1.27-.27-1.52-.8-.93-2a13.29,13.29,0,0,0,1.18-3.32c1.09-5.36,2.61-10.61,3.93-15.92.84-3.36,1.43-6.78,2.3-10.14,1.13-4.37,2.21-8.75,3.36-13.12a46.46,46.46,0,0,1,2.3-6.26c.09-.22.16-.43.25-.65A14.6,14.6,0,0,0,151,248c2.89.33,5.78.63,8.68.93a6,6,0,0,0,1.27,0c1.47-.13,2-.79,2.15-1.85a8.06,8.06,0,0,1,.46-2.1,12.7,12.7,0,0,1,1.68.76,2.81,2.81,0,0,0,1.34.5c.24.94.5,1.87.69,2.81.12.55.43.7,1,.76a20,20,0,0,0,3.19-.06,15.58,15.58,0,0,0,1.88,2.25,43.73,43.73,0,0,1,4.82,6c.51.77.53.78,1.31.35,1.23-.68,2.45-1.38,3.67-2.07.2-.11.37-.28.62-.26,0,.39-.24.66-.4,1-.52,1-1.16,1.94-1.59,3-.12.92-.09,1,.63,1.2l.94.25a2.39,2.39,0,0,1-.81.52c-.62.33-.62.34-.37,1a13.71,13.71,0,0,1,.63,1.94c.5,2.15,1,4.29,1.51,6.45.09.4.25.65.66.71-.07.14-.21.3-.19.43.12.8-.33,1.25-.9,1.71-1.76,1.41-3.68,2.6-5.46,4l-5.09,4a1,1,0,0,0-.43.92c.07,2.26.17,4.51.35,6.76a68.13,68.13,0,0,1,.23,7.83C173.39,298.31,173.42,299,173.42,299.68Zm-.69-33.84c0-.11,0-.23-.06-.35a37.43,37.43,0,0,0-.77-5.15,58.76,58.76,0,0,1-1.2-6.16,1.09,1.09,0,0,0-.27-.62c-.26-.29-.52-.26-.69.08a2.1,2.1,0,0,0-.15,1.16,30.25,30.25,0,0,0,.63,3.67,50.08,50.08,0,0,1,1.07,6.29c.16,2.08.12,2.08-1.87,2.73a.68.68,0,0,1-.95-.36,16.68,16.68,0,0,1-1.13-2.18c-.68-1.63-1.32-3.28-2-4.9a36.6,36.6,0,0,0-2.82-5.72c-.41-.62-.82-.83-1.08-.59-.41.4-.11.79.1,1.15a44.24,44.24,0,0,1,2.34,5,71.46,71.46,0,0,0,3.56,8.18s0,.12,0,.19a2.48,2.48,0,0,1-.85.45,26.26,26.26,0,0,0-2.77,1.48,3.85,3.85,0,0,0-.92.73.61.61,0,0,0,.69,1,11.47,11.47,0,0,0,1-.53c1.18-.68,2.38-1.34,3.74-2,0,.59,0,1.06,0,1.54a2.74,2.74,0,0,0,.58,1.74,1,1,0,0,0,.83.45c.54,0,.9-.55.55-.93-.72-.78-.57-1.69-.61-2.59a.87.87,0,0,1,.72-1,36.06,36.06,0,0,0,5.27-2.36c1-.54,2-1.26,3-1.86.36-.21.62-.53.37-1a.81.81,0,0,0-1-.32,3.93,3.93,0,0,0-1.12.61,27.29,27.29,0,0,1-3.23,1.86C173.4,265.72,173.13,266,172.73,265.84Zm-9.23,19.27a6.67,6.67,0,0,0,2.93-.52l4.27-1.75a1.66,1.66,0,0,0,.35-.18.64.64,0,0,0,.28-.76.66.66,0,0,0-.69-.46,2.59,2.59,0,0,0-.94.26c-1,.43-2.07.82-3.07,1.3a8.24,8.24,0,0,1-4.32.63,2.86,2.86,0,0,1-2.42-1.46c-2.07-3.49-4.5-6.76-6.24-10.45a1.59,1.59,0,0,0-.45-.63c-.18-.14-.36-.34-.61-.22s-.19.39-.15.61a2.57,2.57,0,0,0,.15.47c.29.66.56,1.33.88,2,1.59,3.17,3.62,6.08,5.38,9.14a3.94,3.94,0,0,0,3,1.95A9.35,9.35,0,0,0,163.5,285.11Z"/><path class="cls-19" d="M163.55,245a8.06,8.06,0,0,0-.46,2.1c-.12,1.06-.68,1.72-2.15,1.85a6,6,0,0,1-1.27,0c-2.9-.3-5.79-.6-8.68-.93a14.6,14.6,0,0,1-1.72-.36c-.43-.16-.87-.31-1.28-.5-2.28-1.06-2.84-2.54-2-4.71.72-1.9,1.43-3.8,2.15-5.69a56,56,0,0,0,2.15-6.53,27.79,27.79,0,0,1,1.59-4.74A87,87,0,0,1,157.34,215a10.46,10.46,0,0,1,2.58-3.07A18.11,18.11,0,0,1,170.71,208a4.36,4.36,0,0,1,2.07.53,13,13,0,0,1,3.48,3c.37.42.29,1,.49,1.45a7.63,7.63,0,0,1-1,3.86,12.57,12.57,0,0,1-4.61,5.34,16.8,16.8,0,0,1-2.51,1.08,1.78,1.78,0,0,1-2.43-.46c-.41-.52-.7-.55-1.29-.2a3.59,3.59,0,0,0-1.94,3.18c0,.91.49,1.3,1.39,1.11.16,0,.31-.12.46-.15a1.11,1.11,0,0,1,1.37.81,4.46,4.46,0,0,1,.28,2,39.63,39.63,0,0,1-.86,4.42A70.08,70.08,0,0,0,163.55,245Z"/><path class="cls-20" d="M163.55,245a70.08,70.08,0,0,1,2.1-10.95,39.63,39.63,0,0,0,.86-4.42,4.46,4.46,0,0,0-.28-2,1.11,1.11,0,0,0-1.37-.81c-.15,0-.3.12-.46.15-.9.19-1.41-.2-1.39-1.11a3.59,3.59,0,0,1,1.94-3.18c.59-.35.88-.32,1.29.2a1.78,1.78,0,0,0,2.43.46,16.8,16.8,0,0,0,2.51-1.08,12.57,12.57,0,0,0,4.61-5.34,7.63,7.63,0,0,0,1-3.86,4.4,4.4,0,0,1,1.79,3.42c.06,2,.27,3.91.47,5.85a10,10,0,0,0,1.49,4.51c1,1.45.5,2.33-1,2.64a1.21,1.21,0,0,0-1.13,1.29,7.55,7.55,0,0,1-.27,1.14l-1-.05A3.53,3.53,0,0,1,174,230.1a1.44,1.44,0,0,0-.23-.32.32.32,0,0,0-.36-.09.34.34,0,0,0-.25.37,1.59,1.59,0,0,0,.2.55,3.81,3.81,0,0,0,3.16,2c.3,0,.59,0,.89,0s.37.15.33.45a4.65,4.65,0,0,1-2.59,3.69,8.46,8.46,0,0,1-3.77.92,8.59,8.59,0,0,1-4.22-.67c-.34-.18-.57-.08-.57.35a23.79,23.79,0,0,0,.14,4.3,16.66,16.66,0,0,1,.5,3.3,1.16,1.16,0,0,1-.64,1.21,2.81,2.81,0,0,1-1.34-.5A12.7,12.7,0,0,0,163.55,245Zm14-21.19c0-.81-.56-1.14-1.22-.81a1.73,1.73,0,0,0-.91,1.88.71.71,0,0,0,1.11.52A2.12,2.12,0,0,0,177.54,223.76Zm-.56-2.91a4.72,4.72,0,0,0-.67.08c-.22.06-.45.16-.44.44s.22.38.47.4a3.46,3.46,0,0,1,1.23.18.39.39,0,0,0,.57-.2.53.53,0,0,0-.17-.61A1.27,1.27,0,0,0,177,220.85Z"/><path class="cls-21" d="M166.57,246.21a1.16,1.16,0,0,0,.64-1.21,16.66,16.66,0,0,0-.5-3.3,23.79,23.79,0,0,1-.14-4.3c0-.43.23-.53.57-.35a8.59,8.59,0,0,0,4.22.67,8.46,8.46,0,0,0,3.77-.92,4.65,4.65,0,0,0,2.59-3.69c0-.3,0-.44-.33-.45s-.59,0-.89,0a3.81,3.81,0,0,1-3.16-2,1.59,1.59,0,0,1-.2-.55.34.34,0,0,1,.25-.37.32.32,0,0,1,.36.09,1.44,1.44,0,0,1,.23.32,3.53,3.53,0,0,0,3.13,1.69l1,.05a3.21,3.21,0,0,0,.35,2.35,15.05,15.05,0,0,1,1.36,4.28c.26,1.45.8,2.83,1,4.29a3.59,3.59,0,0,1-1.35,3.57,8.75,8.75,0,0,1-3.23,1.81,4.12,4.12,0,0,0-.47.13,23.63,23.63,0,0,1-4.35,1.45,20,20,0,0,1-3.19.06c-.52-.06-.83-.21-1-.76C167.07,248.08,166.81,247.15,166.57,246.21Z"/><path class="cls-9" d="M181.71,260c.43-1,1.07-2,1.59-3,.16-.3.43-.57.4-1h0c.14,0,.17-.07.2-.17,1.47-2.4,2.78-4.89,4.17-7.33,1.59-2.79,3.15-5.59,4.73-8.38.47-.83.34-.75,1.28-.5,4.11,1.08,8.23,2.13,12.35,3.19,1.58.41,3.17.79,4.76,1.2.52.14,1.09.21,1.39.78a.86.86,0,0,0-.39.43c-1.23,2.34-2.48,4.67-3.7,7-1.36,2.62-2.66,5.26-4.05,7.85-.72,1.33-1.39,2.67-2.08,4-.42.8-.42.81-1.28.59s-1.5-.46-2.27-.61c-2.56-.49-5-1.27-7.6-1.79a2.67,2.67,0,0,0-1.67-1,4.11,4.11,0,0,1,1.53-1.18c.14.17.34.16.53.2,2.54.5,5.08,1,7.61,1.5,1.84.36,1.84.38,2.69-1.31l7.23-14.4.27-.52c.14-.27.05-.43-.23-.51l-.47-.13-13.09-3.51c-.92-.25-.93-.25-1.45.59l-8.29,13.47c-.56.92-1.14,1.83-1.69,2.77-.27.46-.22.54.28.65.73.17,1.47.31,2.21.46a6.74,6.74,0,0,1-2.15,1.33l-2.26-.42A.65.65,0,0,1,181.71,260Z"/><path class="cls-22" d="M138.25,370.75c3.15-.09,6.29-.07,9.44,0a41.41,41.41,0,0,1-.87,4.41c-.17.77-.18.84.61.94a32.08,32.08,0,0,1,4.84,1.13,2.06,2.06,0,0,1,1.47,1,1.75,1.75,0,0,1-1,2.46,4.92,4.92,0,0,1-1.44.22c-4.09,0-8.18,0-12.26,0a1.54,1.54,0,0,1-1.75-1.74,41,41,0,0,1,.49-4.56A28,28,0,0,0,138.25,370.75Z"/><path class="cls-22" d="M161.26,370.69h7.52c.32,0,.65,0,1,.05a33.4,33.4,0,0,1-.73,4.64c-.12.77-.12.77.6,1.07,1.3.54,2.59,1.08,3.88,1.66a1.8,1.8,0,0,1,1.12,2.3,1.24,1.24,0,0,1-1.25.89c-3.93,0-7.87,0-11.8,0-.81,0-1.18-.35-1.27-1.17,0-.13,0-.26,0-.39a21.18,21.18,0,0,1,.47-4.76,12.78,12.78,0,0,0,.27-2.14A15.37,15.37,0,0,1,161.26,370.69Z"/><path class="cls-7" d="M184.5,260.76a6.74,6.74,0,0,0,2.15-1.33,4.76,4.76,0,0,0,1.13-.56,30.45,30.45,0,0,1,4-2.06,2.45,2.45,0,0,0,.73-.26c.78-.29,1.2-.12,1.67.67a1.86,1.86,0,0,1-1,1.65,12.13,12.13,0,0,0-2.13,1.3,4.11,4.11,0,0,0-1.53,1.18,2.67,2.67,0,0,1,1.67,1c.15.51,0,1.17.74,1.37a1.47,1.47,0,0,1,.22,1.08c0,.24,0,.44.28.52a1.78,1.78,0,0,1-.12,1.24c-.06.11-.16.24-.14.35.16,1-.52,1.51-1.26,1.86-2.06,1-3.95,2.27-6,3.25-.41-.06-.57-.31-.66-.71-.48-2.16-1-4.3-1.51-6.45a13.71,13.71,0,0,0-.63-1.94c-.25-.62-.25-.63.37-1a2.39,2.39,0,0,0,.81-.52A2.13,2.13,0,0,0,184.5,260.76Z"/><path class="cls-23" d="M191.93,263.7c-.73-.2-.59-.86-.74-1.37,2.55.52,5,1.3,7.6,1.79.77.15,1.51.41,2.27.61s.86.21,1.28-.59c.69-1.34,1.36-2.68,2.08-4,1.39-2.59,2.69-5.23,4.05-7.85,1.22-2.35,2.47-4.68,3.7-7a.86.86,0,0,1,.39-.43,3,3,0,0,1-.37,2q-4.78,9.19-9.53,18.4c-.56,1.08-.56,1.08-1.75.77q-3.18-.84-6.37-1.65c-.31-.08-.64-.12-1-.18A4.26,4.26,0,0,0,191.93,263.7Z"/><path class="cls-18" d="M191.93,263.7a4.26,4.26,0,0,1,1.65.44,3.64,3.64,0,0,1-1.15,1.16c-.26-.08-.3-.28-.28-.52A1.47,1.47,0,0,0,191.93,263.7Z"/><path class="cls-18" d="M183.88,255.87c0,.1-.06.19-.2.17A.2.2,0,0,1,183.88,255.87Z"/><path class="cls-24" d="M159.61,306l2.07-.49a1.84,1.84,0,0,1,.87-.06c.24.06.43.19.43.47a.41.41,0,0,1-.36.4c-.26.07-.52.11-.77.17-.51.13-1,.28-1.52.38A3.28,3.28,0,0,0,157.7,309a3,3,0,0,1-.36.59c-.11.16-.24.33-.48.2a.39.39,0,0,1-.14-.52,5.82,5.82,0,0,1,.35-.81c.73-1.43,1.48-2.84,2.34-4.2.34-.56.63-1.15.94-1.73.13-.24.29-.47.6-.32a.46.46,0,0,1,.21.67,8.6,8.6,0,0,1-.46,1c-.39.68-.8,1.35-1.19,2Z"/><path class="cls-25" d="M172.73,265.84c.4.13.67-.12,1-.26a27.29,27.29,0,0,0,3.23-1.86,3.93,3.93,0,0,1,1.12-.61.81.81,0,0,1,1,.32c.25.45,0,.77-.37,1-1,.6-2,1.32-3,1.86a36.06,36.06,0,0,1-5.27,2.36.87.87,0,0,0-.72,1c0,.9-.11,1.81.61,2.59.35.38,0,.92-.55.93a1,1,0,0,1-.83-.45,2.74,2.74,0,0,1-.58-1.74c0-.48,0-.95,0-1.54-1.36.63-2.56,1.29-3.74,2a11.47,11.47,0,0,1-1,.53.61.61,0,0,1-.69-1,3.85,3.85,0,0,1,.92-.73,26.26,26.26,0,0,1,2.77-1.48,2.48,2.48,0,0,0,.85-.45c0-.07,0-.15,0-.19a71.46,71.46,0,0,1-3.56-8.18,44.24,44.24,0,0,0-2.34-5c-.21-.36-.51-.75-.1-1.15.26-.24.67,0,1.08.59a36.6,36.6,0,0,1,2.82,5.72c.7,1.62,1.34,3.27,2,4.9a16.68,16.68,0,0,0,1.13,2.18.68.68,0,0,0,.95.36c2-.65,2-.65,1.87-2.73a50.08,50.08,0,0,0-1.07-6.29,30.25,30.25,0,0,1-.63-3.67,2.1,2.1,0,0,1,.15-1.16c.17-.34.43-.37.69-.08a1.09,1.09,0,0,1,.27.62,58.76,58.76,0,0,0,1.2,6.16,37.43,37.43,0,0,1,.77,5.15C172.68,265.61,172.71,265.73,172.73,265.84Z"/><path class="cls-25" d="M163.5,285.11a9.35,9.35,0,0,1-1.61-.1,3.94,3.94,0,0,1-3-1.95c-1.76-3.06-3.79-6-5.38-9.14-.32-.64-.59-1.31-.88-2a2.57,2.57,0,0,1-.15-.47c0-.22-.11-.47.15-.61s.43.08.61.22a1.59,1.59,0,0,1,.45.63c1.74,3.69,4.17,7,6.24,10.45a2.86,2.86,0,0,0,2.42,1.46,8.24,8.24,0,0,0,4.32-.63c1-.48,2-.87,3.07-1.3a2.59,2.59,0,0,1,.94-.26.66.66,0,0,1,.69.46.64.64,0,0,1-.28.76,1.66,1.66,0,0,1-.35.18l-4.27,1.75A6.67,6.67,0,0,1,163.5,285.11Z"/><path class="cls-25" d="M184.5,260.76a2.13,2.13,0,0,1-1.22.66l-.94-.25c-.72-.21-.75-.28-.63-1.2a.65.65,0,0,0,.53.37Z"/><path class="cls-26" d="M177.54,223.76a2.12,2.12,0,0,1-1,1.59.71.71,0,0,1-1.11-.52,1.73,1.73,0,0,1,.91-1.88C177,222.62,177.52,223,177.54,223.76Z"/><path class="cls-26" d="M177,220.85a1.27,1.27,0,0,1,1,.29.53.53,0,0,1,.17.61.39.39,0,0,1-.57.2,3.46,3.46,0,0,0-1.23-.18c-.25,0-.45-.13-.47-.4s.22-.38.44-.44A4.72,4.72,0,0,1,177,220.85Z"/><path class="cls-27" d="M191.05,260.17a12.13,12.13,0,0,1,2.13-1.3,1.86,1.86,0,0,0,1-1.65,8.44,8.44,0,0,1,3.07.86,5.68,5.68,0,0,0,1.38.49c.21,0,.48.06.57-.23a.46.46,0,0,0-.32-.62c-.63-.26-1.26-.53-1.9-.77-2.76-1-5.7-1.28-8.53-2-.21,0-.39,0-.5.16s0,.36.17.5a1.27,1.27,0,0,0,.71.31c.69.18,1.38.35,2.08.49a1.36,1.36,0,0,1,.87.4,30.45,30.45,0,0,0-4,2.06,4.76,4.76,0,0,1-1.13.56c-.74-.15-1.48-.29-2.21-.46-.5-.11-.55-.19-.28-.65.55-.94,1.13-1.85,1.69-2.77l8.29-13.47c.52-.84.53-.84,1.45-.59L208.68,245l.47.13c.28.08.37.24.23.51l-.27.52-7.23,14.4c-.85,1.69-.85,1.67-2.69,1.31-2.53-.51-5.07-1-7.61-1.5C191.39,260.33,191.19,260.34,191.05,260.17Zm-.8-8c-.28-.11-.46-.07-.57.14s0,.37.19.5a1.94,1.94,0,0,0,1,.39,7,7,0,0,1,3,1.07,4.45,4.45,0,0,0,1.56.54c1.58.39,3.26.15,4.8.75a.44.44,0,0,0,.2,0,.47.47,0,0,0,.47-.29.4.4,0,0,0-.17-.43,1.73,1.73,0,0,0-1-.45c-1.2-.13-2.38-.31-3.58-.41a3.91,3.91,0,0,1-2-.58A9.34,9.34,0,0,0,190.25,252.22Zm15.63-5.29c0-.37-.24-.49-.57-.53a20.78,20.78,0,0,1-4.27-1c-1.95-.7-4-.74-6-1.26a.32.32,0,0,0-.41.17c-.13.22,0,.38.19.48a3.93,3.93,0,0,0,1.38.45,24.38,24.38,0,0,1,3.07.56c1.85.54,3.69,1.07,5.57,1.47a2.28,2.28,0,0,0,.57.1A.46.46,0,0,0,205.88,246.93Zm-13.07,2.61h-.27c-.22,0-.51,0-.55.26s.18.47.47.5a6.38,6.38,0,0,1,1,.15c2.17.58,4.33,1.16,6.47,1.84a8.09,8.09,0,0,1,1.58.51.44.44,0,0,0,.62-.07c.17-.28,0-.51-.27-.65a2.83,2.83,0,0,0-.71-.31c-2.31-.66-4.62-1.33-6.94-2A12.75,12.75,0,0,0,192.81,249.54Zm9.42.18c.14,0,.43.05.5-.31s-.19-.44-.46-.52-.24-.09-.37-.12l-6-1.19c-.6-.12-1.21-.22-1.82-.33a.36.36,0,0,0-.42.18c-.12.22,0,.35.19.48.39.3.88.23,1.32.35C197.42,248.89,199.78,249.24,202.23,249.72Z"/><path class="cls-28" d="M191.75,256.81a1.36,1.36,0,0,0-.87-.4c-.7-.14-1.39-.31-2.08-.49a1.27,1.27,0,0,1-.71-.31c-.13-.14-.29-.28-.17-.5s.29-.21.5-.16c2.83.72,5.77,1,8.53,2,.64.24,1.27.51,1.9.77a.46.46,0,0,1,.32.62c-.09.29-.36.26-.57.23a5.68,5.68,0,0,1-1.38-.49,8.44,8.44,0,0,0-3.07-.86c-.47-.79-.89-1-1.67-.67A2.45,2.45,0,0,1,191.75,256.81Z"/><path class="cls-28" d="M190.25,252.22a9.34,9.34,0,0,1,3.89,1.24,3.91,3.91,0,0,0,2,.58c1.2.1,2.38.28,3.58.41a1.73,1.73,0,0,1,1,.45.4.4,0,0,1,.17.43.47.47,0,0,1-.47.29.44.44,0,0,1-.2,0c-1.54-.6-3.22-.36-4.8-.75a4.45,4.45,0,0,1-1.56-.54,7,7,0,0,0-3-1.07,1.94,1.94,0,0,1-1-.39c-.14-.13-.3-.28-.19-.5S190,252.11,190.25,252.22Z"/><path class="cls-28" d="M205.88,246.93a.46.46,0,0,1-.48.41,2.28,2.28,0,0,1-.57-.1c-1.88-.4-3.72-.93-5.57-1.47a24.38,24.38,0,0,0-3.07-.56,3.93,3.93,0,0,1-1.38-.45c-.18-.1-.32-.26-.19-.48a.32.32,0,0,1,.41-.17c2,.52,4.06.56,6,1.26a20.78,20.78,0,0,0,4.27,1C205.64,246.44,205.87,246.56,205.88,246.93Z"/><path class="cls-28" d="M192.81,249.54a12.75,12.75,0,0,1,1.36.25c2.32.65,4.63,1.32,6.94,2a2.83,2.83,0,0,1,.71.31c.23.14.44.37.27.65a.44.44,0,0,1-.62.07,8.09,8.09,0,0,0-1.58-.51c-2.14-.68-4.3-1.26-6.47-1.84a6.38,6.38,0,0,0-1-.15c-.29,0-.52-.17-.47-.5s.33-.25.55-.26Z"/><path class="cls-28" d="M202.23,249.72c-2.45-.48-4.81-.83-7.1-1.46-.44-.12-.93,0-1.32-.35-.16-.13-.31-.26-.19-.48a.36.36,0,0,1,.42-.18c.61.11,1.22.21,1.82.33l6,1.19c.13,0,.25.09.37.12s.52.17.46.52S202.37,249.72,202.23,249.72Z"/><path class="cls-29" d="M378.22,373.6c-.27-1.85-2.39-1-2.39-1s-.71-19-1-20.16.26-19.63.83-26.54A73.85,73.85,0,0,0,375,311c-.76-2.26-.56-14.75-.55-15.13v0a2.53,2.53,0,0,0-1.19.08c-.36,1.87-.52,3.78-1,5.65a6.69,6.69,0,0,1-1.13,2.36c-1.64,2.32-5.13,1.55-6.19-.6a12,12,0,0,1-1.15-4.7c0-.53.25-1,.2-1.54-1.27.11-2.54.22-3.8.35l-6.82.67a8.16,8.16,0,0,1,.39,2.3c0,.65.24,1.27.21,1.94-.05.85-.19,1.68-.26,2.52a4,4,0,0,1-1.24,2.18,5.35,5.35,0,0,1-1.4,1,16.28,16.28,0,0,1-3.39,1.5,5.87,5.87,0,0,1-5-.76,1.8,1.8,0,0,1-.55-.55,10,10,0,0,1-1.63-4.24,45.17,45.17,0,0,1-.15-4.79,40.61,40.61,0,0,0-5.26.64V300l-1.05.1s4.4,61.08,4.43,61.67c.15,1.12.18,9.1.23,11.29,0,.36-.1.56-.47.58-.81.07-1.1.56-1.09,1.31.07.52.19,3.54,2.16,3.57a3.38,3.38,0,0,1,.45,0h.26c.78,0,1.57,0,2.35,0,4.4,0,8.8.12,13.21.12.39,0,.78-.08,1.17-.06l2.52-.18a5.07,5.07,0,0,0,2.6-.72l.14-.3a1,1,0,0,1-.62-1.12,5.8,5.8,0,0,0,0-.59c0-.86,0-.89-.88-.87-1.62,0-1.4-.12-1.5-1.54-.2-2.91-.17-5.82-.17-8.73,0-1.11,1.56,5.28,1.57,8.13,0,.92.11,1.44,1,1.46,1.06,0,.67-.11.79.9a13.67,13.67,0,0,1,.57,2.31c3,0,6-.07,8.92-.11a14.26,14.26,0,0,0,2.85-.13,15.16,15.16,0,0,0,2.57-.8,1.09,1.09,0,0,0,.3-.18A2.36,2.36,0,0,0,378.22,373.6Zm-14.76-55.66c-.67,2.95-1.33,5.9-1.8,8.89-.17,1.06-.45,2.1-.64,3.16-.17.89-.25,1.8-.36,2.7a84.89,84.89,0,0,0-.15,9c0,1.53.19,3.05.32,4.58a16.31,16.31,0,0,1-.18,4.78,5.39,5.39,0,0,1-.59,1.24.28.28,0,0,1-.33.14.28.28,0,0,1-.21-.29,3.18,3.18,0,0,1,0-.69,14.48,14.48,0,0,0,0-3.89c-.08-1.36-.15-2.74-.29-4.09a74.14,74.14,0,0,1-.14-7.45,32.88,32.88,0,0,1,1-8.32c.39-1.62.57-3.27.92-4.89.52-2.38,1-4.77,1.54-7.16a3.66,3.66,0,0,0,.08-.87,33.09,33.09,0,0,0-.23-6.06,24.6,24.6,0,0,0-.34-3.21,2.26,2.26,0,0,1,0-.78c0-.33.92-.36,1-.07.11.64.26,1.27.34,1.92a36.85,36.85,0,0,1,.63,6.7A14,14,0,0,1,363.46,317.94Z"/><path class="cls-30" d="M356.83,378.51c0,2,.06,4,.12,6,0,.73.06.76.81.74,1.07,0,2.15-.12,3.22-.17s.92-.05,1-1a42.08,42.08,0,0,0-.09-6.35l.15-.3c.35,0,.52-.27.75-.47,3,0,5.93,0,8.89,0a10.49,10.49,0,0,0,2.43-.24,2.57,2.57,0,0,1,1.07,0l-.39,8.12a5.06,5.06,0,0,1-.55,1.86,2.05,2.05,0,0,1-1.94,1.26l-1,0c-2.18,0-4.37.05-6.56-.05a15.78,15.78,0,0,0-2.75,0l-3.15.18a31,31,0,0,0-3.34,0c-.85-.1-1.69-.22-2.53-.28a1.21,1.21,0,0,1-.87-.34c-.38-.52-.89-.46-1.4-.46l-16.46-.06-4.51,0a3.59,3.59,0,0,0-1.18,0c-.22,0-.45-.07-.68-.08s-.62-.13-.64-.46.28-.56.62-.63c.77-.16,1.53-.34,2.3-.46,2.09-.34,4.2-.62,6.29-1a13.54,13.54,0,0,0,3.32-.75c.15,0,.21-.08.2-.22.06-1.51.08-3.3,0-4.81C340.07,378.42,356.44,378.49,356.83,378.51Z"/><path class="cls-31" d="M337.1,249.93c-.71,2.72-1.41,5.43-2.12,8.14-.13.47-.06,1.08-.43,1.36s-.88,0-1.32-.09c-2.35-.33-4.71-.65-7-1.17-1.27-.28-2.52-.65-3.81-.87-.76-.12-1.5,0-2.25-.13l0,0c.95-.51,1.92-1,2.83-1.54a38.59,38.59,0,0,1,3.71-2.21c.71-.34,1.39-.75,2.09-1.09,1-.48,1.85-1.13,2.78-1.68.19-.11.47-.25.34-.51s-.47-.1-.68,0c-.59.34-1.14.78-1.76,1.06-3.42,1.6-6.46,3.88-9.88,5.46-.44-.49-.81-1.07-1.53-1.19l.52-.27,11.56-5.88c.74-.38.78-.43.61-1.12q-1.48-6-3-12c-.18-.72-.21-.74-.93-.48-1.78.64-3.6,1.16-5.38,1.81-3.6,1.32-7.24,2.51-10.87,3.75-.83.29-.84.3-.54,1.15.94,2.7,1.88,5.38,2.82,8.07q1,2.93,2,5.86c.15.45.36.57.79.33s1.05-.53,1.58-.8c0,.56,0,1.11,0,1.66,0,.26,0,.44-.36.46-.7,0-1.2-.49-1.84-.61-.32-.07-.38-.43-.51-.69a28,28,0,0,1-1.69-3.94c-.16-.49-.33-1-1-1.08a.24.24,0,0,0-.09-.16c0-.46-.38-.71-.49-1.13-.2-.83-.53-1.63-.8-2.44-.69-2.05-1.39-4.11-2.07-6.16-.25-.73-.23-.73.42-1,.39-.15,1.41-.49,1.53-.52s8.55-2.65,12.73-4c1.41-.44,2.77-1,4.21-1.36.48-.12.64-.05.75.41.52,2.1,3,10.36,3.44,12.46a.66.66,0,0,0,.25.41c-.07,1.2,0,1.21,1.15,1.32C334.28,249.7,335.7,249.67,337.1,249.93Z"/><path class="cls-32" d="M340.43,299.35a89.85,89.85,0,0,1,9-.87c1.33,0,2.9-.31,4.25-.28a8.16,8.16,0,0,1,.39,2.3c0,.65.24,1.27.21,1.94,0,.84-.43,1.68-.51,2.52a3.89,3.89,0,0,1-1.24,2.18,5.3,5.3,0,0,1-1.39,1.05,16.82,16.82,0,0,1-3.39,1.5,5.86,5.86,0,0,1-5-.76,1.84,1.84,0,0,1-.56-.55,10,10,0,0,1-1.62-4.24C340.37,302.53,340.49,300.94,340.43,299.35Z"/><path class="cls-32" d="M363.78,297.18c3.08-.36,6.42-.63,9.48-1.18-.36,1.88-.52,3.79-1,5.66a6.85,6.85,0,0,1-1.12,2.36c-1.65,2.32-5.13,1.55-6.19-.6a12.22,12.22,0,0,1-1.4-4.7C363.55,298.19,363.83,297.71,363.78,297.18Z"/><path class="cls-33" d="M364.26,313.4c.16,1.52-.44,3.07-.8,4.64-.67,2.95-1.34,5.9-1.8,8.89-.17,1.06-.45,2.1-.65,3.16-.16.89-.25,1.8-.35,2.7a82.28,82.28,0,0,0-.15,9c0,1.52.18,3.05.32,4.57a16.37,16.37,0,0,1-.19,4.79,5.1,5.1,0,0,1-.58,1.23.26.26,0,0,1-.33.14.28.28,0,0,1-.22-.29,3.09,3.09,0,0,1,0-.68,14.08,14.08,0,0,0,0-3.89c-.08-1.36-.14-2.74-.29-4.09-.26-2.49-.11-5-.14-7.45a33.81,33.81,0,0,1,1-8.32c.4-1.62.57-3.27.93-4.89.52-2.38,1-4.77,1.54-7.16a4.27,4.27,0,0,0,.08-.87,32.23,32.23,0,0,0-.24-6.06,22.82,22.82,0,0,0-.33-3.21,2.26,2.26,0,0,1,0-.78c0-.33.13-.6.5-.6a.74.74,0,0,1,.72.53c.11.64.27,1.27.34,1.92A37.59,37.59,0,0,1,364.26,313.4Z"/><path class="cls-33" d="M362.84,376.94c-.23.2-.4.47-.75.47a1,1,0,0,1-.62-1.12c0-.19,0-.39,0-.59,0-.86,0-.89-.88-.87-1.62,0-1.41-.13-1.5-1.54-.2-2.91-.17-5.82-.17-8.73,0-1.11.28-2.2.2-3.32a.62.62,0,0,1,.56-.69.59.59,0,0,1,.59.66c-.06,1,.21,2,.21,2.93,0,2.85.24,5.7.25,8.55,0,.92-.24.92.66.95,1.05,0,1.15.16,1.27,1.16A11,11,0,0,1,362.84,376.94Z"/><path class="cls-34" d="M318.84,265.65a33.92,33.92,0,0,1-2.71-2.36c-.67-.67-1.32-1.36-2-2A4.93,4.93,0,0,1,312.7,259q-.87-2.88-1.68-5.76c-.24-.85-.12-1.13.51-1.55l.3,0c.65.06.82.59,1,1.08a28,28,0,0,0,1.69,3.94c.13.26.19.62.51.69.64.12,1.14.64,1.84.61.31,0,.36-.2.36-.46,0-.55,0-1.1,0-1.66l.82-.41c.72.12,1.09.7,1.53,1.19,0,.2,0,.42.19.55a.79.79,0,0,0,.22.64,27,27,0,0,1-.68,5.81A9.79,9.79,0,0,1,318.84,265.65Zm-4.55-6.75c.08,0,.26-.48.57-.11.15.17.36.35.58.13s0-.36-.09-.53-.09-.24-.15-.36c-.2-.38-.58-.38-.93-.37-.2,0-.51.76-.44,1S314,258.88,314.29,258.9Z"/><path class="cls-35" d="M340.86,272.13c-2.1.1-4.1,0-6.1,0a5.6,5.6,0,0,1-1.72-.35.31.31,0,0,1-.26-.36c0-.19.18-.26.36-.27a1.7,1.7,0,0,1,.39,0,44.7,44.7,0,0,0,7.93.1c1.67-.05,3.35-.07,5,0a1.71,1.71,0,0,0,1.84-1.11,11.55,11.55,0,0,0,1.2-4.52,13.22,13.22,0,0,1,.73-3,1.17,1.17,0,0,1,.2-.34c.12-.15.27-.31.49-.2s.22.3.15.5-.18.49-.26.74a14.73,14.73,0,0,0-.61,3.36,11,11,0,0,1-1.71,4.77,1.06,1.06,0,0,1-.78.52,6.75,6.75,0,0,1-1.27.12C344.55,272.08,342.65,272,340.86,272.13Z"/><path class="cls-35" d="M347.18,285.71a2.25,2.25,0,0,1-.4-.06.31.31,0,0,1-.19-.2.33.33,0,0,1,.11-.25,2.6,2.6,0,0,1,.55-.21,8.34,8.34,0,0,0,1.75-.64c3.79-1.87,7.61-3.66,11.24-5.83,1.44-.85,2.84-1.75,4.22-2.7a7,7,0,0,0,2.65-3c0-.11.08-.27.25-.23s.26.18.26.36a1.81,1.81,0,0,1-.25.74,6.54,6.54,0,0,1-1.91,2.21,67.31,67.31,0,0,1-6.61,4.23c-3.05,1.74-6.23,3.2-9.36,4.78A7.06,7.06,0,0,1,347.18,285.71Z"/><path class="cls-35" d="M336.76,264.35c0,.42,0,.64-.31.7a.44.44,0,0,1-.52-.34,5.23,5.23,0,0,1-.18-.76,28.24,28.24,0,0,0-.58-3.18c-.11-.41-.1-.74.46-.7.89-1,1.69-.3,2.46.16a9.16,9.16,0,0,1,2.06,1.66,1.54,1.54,0,0,1,.43.64.36.36,0,0,1-.17.42.27.27,0,0,1-.36,0,3.63,3.63,0,0,1-.49-.47,12.27,12.27,0,0,0-2.2-1.8,4.16,4.16,0,0,0-.51-.28c-.24-.1-.52-.22-.75-.06s-.06.48,0,.71C336.31,262.21,336.55,263.36,336.76,264.35Z"/><path class="cls-35" d="M365.45,285.48c-.05.12-.12.3-.21.47-1.1,2.26-2,4.61-3.25,6.82-.06.11-.1.24-.17.35s-.25.53-.57.35-.18-.45-.09-.69a1.69,1.69,0,0,1,.11-.27c1.22-2.21,2.18-4.54,3.36-6.77a5.05,5.05,0,0,1,.28-.51c.09-.14.22-.26.41-.16S365.48,285.27,365.45,285.48Z"/><path class="cls-35" d="M354.94,277.56c-.05.13-.14.25-.28.24a1,1,0,0,1-.45-.14c-1.07-.63-2.18-1.18-3.18-1.91a6.4,6.4,0,0,1-.73-.65c-.14-.13-.28-.31-.09-.5a.32.32,0,0,1,.45,0,31.2,31.2,0,0,0,3.88,2.44C354.73,277.17,354.93,277.29,354.94,277.56Z"/><path class="cls-31" d="M320,257.84a.79.79,0,0,1-.22-.64l.38-.06,0,0A.69.69,0,0,1,320,257.84Z"/><path class="cls-36" d="M375.58,289.43c.19.12.29.25.06.42A.29.29,0,0,1,375.58,289.43Z"/><path class="cls-36" d="M326.65,270.6c-.15.19-.28.15-.39,0C326.41,270.41,326.54,270.44,326.65,270.6Z"/><path class="cls-36" d="M372.26,268.61c.2.11.23.24,0,.39C372.14,268.89,372.11,268.76,372.26,268.61Z"/><path class="cls-37" d="M367.39,248.35v-.19a.21.21,0,0,1,.16.22Z"/><path class="cls-29" d="M374.59,295.81l-.16.14Z"/><path class="cls-38" d="M339.83,383.5l.2-.22C340,383.42,340,383.5,339.83,383.5Z"/><path class="cls-36" d="M318,255.46l-.82.41c-.53.27-1.07.51-1.58.8s-.64.12-.79-.33q-1-2.94-2-5.86c-.94-2.69-1.88-5.37-2.82-8.07-.3-.85-.29-.86.54-1.15,3.63-1.24,7.27-2.43,10.87-3.75,1.78-.65,3.6-1.17,5.38-1.81.72-.26.75-.24.93.48q1.51,6,3,12c.17.69.13.74-.61,1.12l-11.56,5.88Z"/><path class="cls-37" d="M320.12,257.14l-.38.06c-.2-.13-.17-.35-.19-.55,3.42-1.58,6.46-3.86,9.88-5.46.62-.28,1.17-.72,1.76-1.06.21-.12.5-.36.68,0s-.15.4-.34.51c-.93.55-1.8,1.2-2.78,1.68-.7.34-1.38.75-2.09,1.09A38.59,38.59,0,0,0,323,255.6C322,256.16,321.07,256.63,320.12,257.14Z"/><path class="cls-36" d="M311.83,251.67l-.3,0,.21-.18A.24.24,0,0,1,311.83,251.67Z"/><path class="cls-37" d="M367.2,247.76a2.1,2.1,0,0,1-.22-1,1.15,1.15,0,0,1,.37,1Z"/><path class="cls-37" d="M367,246.77a.67.67,0,0,1-.17-.59A.55.55,0,0,1,367,246.77Z"/><path class="cls-18" d="M367.2,247.76l.15,0c0,.13,0,.26,0,.39A.39.39,0,0,1,367.2,247.76Z"/><path class="cls-39" d="M366.78,246l-.07-.07,0-.07A.1.1,0,0,1,366.78,246Z"/><path class="cls-40" d="M341.42,217.49a6.75,6.75,0,0,1,1.62.67A49.15,49.15,0,0,0,347.9,220c.83.26,1,.15.62,1.22s-.56,2-.83,3c.26.24.48.1.69,0a4.46,4.46,0,0,1,1.36-.13,1.67,1.67,0,0,1,1.68,1.27,5,5,0,0,1-1.14,4.94c-.95,1-2.19,1.22-3.88.74-.4,2.41-1.24,4.72-1.43,7.18-.07.89-.19,1-1,.63a9.65,9.65,0,0,1-3.68-2.87,3.89,3.89,0,0,1-.81-1.32c1.1-.14,1.51-1,1.89-1.85.26-.57.45-1.16.69-1.79.34,0,.61.2.92.23s.53.07.63-.28-.09-.48-.39-.53l-.09,0c-1-.35-1.07-.46-.95-1.47,0-.2.07-.39-.18-.48s-.43.05-.53.28a2,2,0,0,0-.17.87,6.38,6.38,0,0,1-1,3.52c-.14.27-.29.68-.69.56a1.17,1.17,0,0,1-.68-.74c-.67-1.64-.34-3.28-.14-4.93,0-.23.25-.54-.23-.56.24-.46.21-.73-.39-.91a15.72,15.72,0,0,1-2.34-.95,1.13,1.13,0,0,1-.15-2,6,6,0,0,1,1.57-.75A15.66,15.66,0,0,0,339,222a1.44,1.44,0,0,0,.84-1.2A7.22,7.22,0,0,1,341.42,217.49Zm1.09,4.27a.92.92,0,0,0-.82-.94,1.07,1.07,0,0,0-1,1,.89.89,0,0,0,.88.87A1,1,0,0,0,342.51,221.76Z"/><path class="cls-35" d="M314.29,258.9c-.32,0-.43-.08-.46-.23s.24-1,.44-1c.35,0,.73,0,.93.37.06.12.09.25.15.36s.27.35.09.53-.43,0-.58-.13C314.55,258.42,314.37,258.89,314.29,258.9Z"/><path class="cls-19" d="M342.51,221.76a1,1,0,0,1-.92,1,.89.89,0,0,1-.88-.87,1.07,1.07,0,0,1,1-1A.92.92,0,0,1,342.51,221.76Z"/><path class="cls-18" d="M375.79,291.3a13.69,13.69,0,0,1-.23-1.45.29.29,0,0,1-.06-.42c-.58-3.45-1.16-6.89-1.72-10.35-.44-2.68-.85-5.36-1.27-8-.11-.68-.19-1.36-.29-2-.16-.11-.19-.24,0-.39-.31-2-.61-3.94-.95-5.9a63.92,63.92,0,0,0-1.85-7.58c-.46-1.52-.89-3.06-1.31-4.59-2.24-9.73-4.46-9.57-4.46-9.57-8.12-4.75-15.6-1.74-19.3.46a1.91,1.91,0,0,0-.42.24,14.58,14.58,0,0,0-1.95,1.39l-.07.06h0a11.52,11.52,0,0,0-2.39,2.8c-.81,1.35-1.64,2.68-2.46,4l-2.13,8.14c-.12.47-.05,1.08-.42,1.36s-.88,0-1.32-.09c-2.35-.33-4.71-.65-7-1.17-1.27-.28-2.52-.65-3.81-.87-.76-.12-1.51,0-2.25-.13a.69.69,0,0,1-.18.67,27.69,27.69,0,0,1-.68,5.81,10.5,10.5,0,0,1-.44,2c-.11.74-.22,1.48-.35,2.21-.25,1.34-.11,1.6,1.21,1.69s2.64.4,3.95.61l2.61.4c.14-.15.27-.12.39,0a4.2,4.2,0,0,1,1.71.36,20.05,20.05,0,0,0,3.53.61c.56.07.74.32.7.82-.1,1.34-.63,19.43-.7,21.79a27.2,27.2,0,0,1-.23,2.72,8.83,8.83,0,0,0,.13,2.62c0,.39.28.54.68.54s2.05.06,2.25,0l.2,0,.26-.07a40.24,40.24,0,0,1,5.25-.64,89.85,89.85,0,0,1,9-.87c1.33,0,2.66-.31,4-.28l6.82-.68,3.8-.34c3.08-.36,6.18-.63,9.24-1.18a2.48,2.48,0,0,1,1.18-.07v0l.15-.14a1.79,1.79,0,0,0,1.25-1.49A6.84,6.84,0,0,0,375.79,291.3Zm-20.93-13.74c-.05.13-.14.25-.28.24a1,1,0,0,1-.45-.14c-1.07-.63-2.18-1.18-3.18-1.91a6.4,6.4,0,0,1-.73-.65c-.14-.13-.28-.31-.09-.5a.32.32,0,0,1,.45,0,30.48,30.48,0,0,0,3.88,2.44C354.65,277.17,354.85,277.29,354.86,277.56Zm-19.31-17.49c.89-1,1.69-.3,2.46.16a9.16,9.16,0,0,1,2.06,1.66,1.65,1.65,0,0,1,.43.64.36.36,0,0,1-.17.42.27.27,0,0,1-.36,0,3.63,3.63,0,0,1-.49-.47,12.27,12.27,0,0,0-2.2-1.8,4.16,4.16,0,0,0-.51-.28c-.24-.1-.52-.22-.75-.06s-.06.48,0,.71c.23,1.15.47,2.3.67,3.29,0,.42,0,.64-.3.7a.44.44,0,0,1-.52-.34,4.19,4.19,0,0,1-.18-.76,28.24,28.24,0,0,0-.58-3.18C335,260.36,335,260,335.55,260.07Zm5.23,12.06c-2.11.1-4.1,0-6.1,0a5.73,5.73,0,0,1-1.73-.35.33.33,0,0,1-.26-.36.34.34,0,0,1,.36-.27,1.79,1.79,0,0,1,.4,0,44.69,44.69,0,0,0,7.93.1c1.67-.05,3.34-.07,5,0a1.7,1.7,0,0,0,1.83-1.11,11.22,11.22,0,0,0,1.2-4.52,13.77,13.77,0,0,1,.74-3,1,1,0,0,1,.2-.34c.12-.15.27-.31.49-.2s.22.3.15.5-.18.49-.26.74a14.73,14.73,0,0,0-.61,3.36,11,11,0,0,1-1.71,4.77,1.06,1.06,0,0,1-.78.52,6.75,6.75,0,0,1-1.27.12C344.47,272.08,342.57,272,340.78,272.13Zm24.59,13.35c-.05.12-.12.3-.21.47-1.1,2.26-2,4.61-3.25,6.82-.06.11-.1.24-.17.35s-.25.53-.58.35-.17-.45-.09-.69a1.69,1.69,0,0,1,.12-.27c1.22-2.21,2.18-4.54,3.35-6.77.1-.17.18-.35.29-.51s.22-.26.41-.16S365.4,285.27,365.37,285.48Zm1.91-11.75a6.62,6.62,0,0,1-1.9,2.21,68.52,68.52,0,0,1-6.61,4.23c-3,1.74-6.23,3.2-9.36,4.78a7.06,7.06,0,0,1-2.31.76,2.12,2.12,0,0,1-.4-.06.29.29,0,0,1-.19-.2.27.27,0,0,1,.11-.25,2.6,2.6,0,0,1,.55-.21,8.34,8.34,0,0,0,1.75-.64c3.79-1.87,7.61-3.66,11.24-5.83,1.44-.85,2.84-1.75,4.22-2.7a6.93,6.93,0,0,0,2.64-3c.05-.11.08-.27.26-.23a.3.3,0,0,1,.25.36A1.56,1.56,0,0,1,367.28,273.73Z"/><path class="cls-19" d="M368.06,253.3c0-.35-.11-.71-.16-1.06-.17-1.3-7.42-34.41-8.63-36.89-.26-.53-4-4.15-5.77-4.58a10.83,10.83,0,0,0-1.42-.3h0c-9-1.67-13.17,4.55-13.17,5.46,0,.71,1.56,1.27,2.23,1.48l.23.07h.06a6.75,6.75,0,0,1,1.62.67A49.15,49.15,0,0,0,347.9,220c.83.26,1,.15.62,1.22s-.56,2-.83,3c.26.24.48.1.69,0a4.46,4.46,0,0,1,1.36-.13,1.67,1.67,0,0,1,1.68,1.27,5,5,0,0,1-1.14,4.94c-.95,1-2.19,1.22-3.88.74-.4,2.41-1.24,4.72-1.43,7.18-.07.89-.19,1-1,.63a9.65,9.65,0,0,1-3.68-2.87,3.89,3.89,0,0,1-.81-1.32c1.1-.14,1.51-1,1.89-1.85.26-.57.45-1.16.69-1.79.34,0,.61.2.92.23s.53.07.62-.28-.08-.48-.38-.53l-.09,0c-1-.35-1.07-.46-.95-1.47,0-.2.07-.39-.18-.48s-.43.05-.53.28a2,2,0,0,0-.17.87,6.38,6.38,0,0,1-1,3.52c-.14.27-.29.68-.69.56a1.17,1.17,0,0,1-.68-.74c-.67-1.64-.34-3.28-.14-4.93,0-.23.25-.54-.23-.56,0,.3-.18.53-.27.79-.21.57-2.08,7.1-2.49,8.08a14.77,14.77,0,0,0-.76,2.24,20.29,20.29,0,0,1-1.08,3.39c-.84,2-1.49,4.14-2.18,6.23-.07,1.2,0,1.21,1.15,1.32,1.42.14,2.84.11,4.24.37.82-1.33,1.66-2.66,2.46-4a12.38,12.38,0,0,1,4.41-4.25c.21-.12.41-.33.72-.26a2.19,2.19,0,0,1,.06,1c-.05,3.47-.41,6.93-.42,10.4a18.33,18.33,0,0,1-.06,2c-.2,2.06,0,4.12-.1,6.18a1.26,1.26,0,0,0,0,.39c.16.65.32.73,1,.49,4.2-1.57,8.45-3,12.75-4.23,3.21-.93,6.33-2.11,9.48-3.21A.88.88,0,0,0,368.06,253.3Z"/></g></g></svg>