<svg xmlns="http://www.w3.org/2000/svg" viewBox="0 0 513.92 513.92"><defs><style>.cls-1{fill:#fff;}.cls-2{fill:#355b69;}.cls-3{fill:#ebe8c9;}.cls-4{fill:#68b7ec;}.cls-5{fill:#8553a6;}.cls-6{fill:#e17226;}.cls-7{fill:#532f26;}.cls-8{fill:#e07458;}.cls-9{fill:#e2785b;}.cls-10{fill:#e17658;}.cls-11{fill:#61a9d8;}.cls-12{fill:#f9f0cd;}.cls-13{fill:#467382;}.cls-14{fill:#3d667e;}.cls-15{fill:#cf5738;}.cls-16{fill:#fbf1c9;}.cls-17{fill:#faf6f4;}.cls-18{fill:#fbf2cb;}.cls-19{fill:#fefefe;}.cls-20{fill:#e17124;}.cls-21{fill:#edbaa5;}.cls-22{fill:#eaadd5;}.cls-23{fill:#fbf2d0;}.cls-24{fill:#e17225;}.cls-25{fill:#599db6;}.cls-26{fill:#512e25;}.cls-27{fill:#e28064;}.cls-28{fill:#e17f64;}.cls-29{fill:#eaadd3;}.cls-30{fill:#de7d61;}.cls-31{fill:#532f27;}.cls-32{fill:#427184;}.cls-33{fill:#faeed0;}.cls-34{fill:#d56446;}.cls-35{fill:#f9ebc5;}.cls-36{fill:#e8acd3;}.cls-37{fill:#f0eecf;}.cls-38{fill:#66382d;}.cls-39{fill:#d7dac0;}.cls-40{fill:#417084;}.cls-41{fill:#e07e63;}.cls-42{fill:#69b7ea;}.cls-43{fill:#e28166;}.cls-44{fill:#69b7eb;}.cls-45{fill:#e07226;}.cls-46{fill:#5d3329;}.cls-47{fill:#f9edc8;}.cls-48{fill:#355d6e;}.cls-49{fill:#f1d154;}.cls-50{fill:#3e6265;}.cls-51{fill:#e07a30;}.cls-52{fill:#eceacb;}.cls-53{fill:#e9e8ca;}.cls-54{fill:#f3d2e7;}.cls-55{fill:#407084;}.cls-56{fill:#f7f1cf;}.cls-57{fill:#fbf2cd;}</style></defs><g id="Layer_2" data-name="Layer 2"><g id="Graphic_elements" data-name="Graphic elements"><rect class="cls-1" width="513.92" height="513.92" rx="256.96"/><path class="cls-2" d="M152.26,331.23c0-5.65,0-11.3,0-17,0-2.68.22-5.36.41-8,.06-.91-.21-1.08-1.07-.94a31.26,31.26,0,0,1-5,.09c-.68,0-.92.2-1,.88-.92,6.63-1.41,13.29-1.71,20-.24,5.3-.16,10.59-.24,15.88,0,2.46-.28,4.93-.3,7.39a1.76,1.76,0,0,1-1.73,1.94c-1,0-1.65-.77-1.73-2-.17-2.76.29-5.5.19-8.26a193.26,193.26,0,0,1,.27-19.41,107.18,107.18,0,0,1,1.76-16c.11-.49,0-.7-.52-.75-2.84-.25-3.36-.49-4.95,2.66a20.68,20.68,0,0,0-1.76,7.25c-.92,8.37-.8,16.78-1,25.18-.09,5.08-.35,10.15-.55,15.23,0,.89-.14,1.78-.21,2.67a1.82,1.82,0,0,1-1.81,1.87,1.7,1.7,0,0,1-1.65-1.87c.07-3,.21-5.93.28-8.89.16-7.12.36-14.23.4-21.35a121,121,0,0,1,1.25-16.36,15.17,15.17,0,0,1,2.74-6.68c.43-.59.2-.73-.29-1a16.64,16.64,0,0,1-3.55-2.19,3.1,3.1,0,0,1-1.17-2.2,16.32,16.32,0,0,1,0-3.63c.39-2.41,2-3.8,4.12-4.69a30.75,30.75,0,0,1,8.35-1.89,69.17,69.17,0,0,1,8.88-.52c2.72,0,5.4.45,8.12.57,2.49.11,4.45,1.63,6,3.54a2.59,2.59,0,0,1,.63,1.79c-.13,1.77-.3,3.54-.26,5.32a2.83,2.83,0,0,1-2.05,2.72c-2,.88-1.95.89-1,2.77,1.49,3,2,6.18,2.41,9.41a100,100,0,0,1,1,17.55c-.18,5.35-.33,10.73-.87,16.06a100.59,100.59,0,0,0-.84,11.64c0,1.39-.7,2.21-1.8,2.2s-1.8-.83-1.82-2.22a101.54,101.54,0,0,1,.56-11q.34-3.73.45-7.49c.2-6.47.57-13,0-19.41a77.23,77.23,0,0,0-1.72-12.2,24,24,0,0,0-1.94-4.76c-.37-.76-.93-.46-1.47-.37s-.23.55-.22.83c.06,1.76.21,3.51.2,5.26q-.08,18.94-.2,37.89a5.44,5.44,0,0,1-.19,1.8,1.82,1.82,0,0,1-2,1.35,1.79,1.79,0,0,1-1.73-1.49,5.09,5.09,0,0,1-.1-1.17C151.89,343.25,151.94,337.24,152.26,331.23Zm-4-30.78a24.31,24.31,0,0,0,4-.16c2.87-.3,5.77-.48,8.61-1,.4-.08.88-.15.82-.66s-.54-.39-.93-.34a70.11,70.11,0,0,1-16.75,1c-3.24-.29-6.49-.5-9.58-1.66a3,3,0,0,0-.51-.14c-.27-.05-.55,0-.66.23s.24.38.43.47a16.58,16.58,0,0,0,3.83,1.34C140.86,300.18,144.27,300.17,148.28,300.45Z"/><path class="cls-3" d="M148.28,300.45c-4-.28-7.42-.27-10.76-1a16.58,16.58,0,0,1-3.83-1.34c-.19-.09-.58-.1-.43-.47s.39-.28.66-.23a3,3,0,0,1,.51.14c3.09,1.16,6.34,1.37,9.58,1.66a70.11,70.11,0,0,0,16.75-1c.39,0,.87-.24.93.34s-.42.58-.82.66c-2.84.54-5.74.72-8.61,1A24.31,24.31,0,0,1,148.28,300.45Z"/><path class="cls-4" d="M171.25,299.08a41.75,41.75,0,0,0,.2-4.87c0-.62-.14-.78-.8-.72-4.68.41-9.35,1.22-14.07.92s-9.28-.15-13.77-1.48a19.25,19.25,0,0,1-6-2.82,6.19,6.19,0,0,1-2.65-3.95,4.53,4.53,0,0,0,3.61.51,2.76,2.76,0,0,0,2.44-3c0-1.08.49-2.12.09-3.22-.14-.38.33-.36.6-.39s.8,0,1.19.06c2.48.31,5,.55,7.46.63,4.45.13,8.33-1.55,11.91-4a3.66,3.66,0,0,0,1.66-4c5.38.37,10.56,1.79,15.78,3,3.85.86,7.76,1.46,11.64,2.15a97.67,97.67,0,0,1,10.25,2.4c2.19.63,3.44,2.44,4.2,4.54a14.4,14.4,0,0,1,.61,3.86,59.29,59.29,0,0,1-.46,9.87c-.36,3.38-.63,6.77-1.06,10.15-.81,6.46-1.12,13-2.43,19.39-.78,3.82-1.15,7.73-1.66,11.6-.19,1.46-.13,1.47,1.37,1.59a1.36,1.36,0,0,1,1.45,1.53c0,.36,0,.73,0,1.09,0,1.12-.45,1.59-1.57,1.66-.94.06-1.89,0-2.83.06a27.74,27.74,0,0,0-5.18.32c-2.13.53-4.63,0-6.35,1.89-2,.05-3.94-.29-5.89.18-2,0-4,.33-5.94.45-2.81.18-5.63.15-8.44.31-1.27,0-2.53-.08-3.8-.07a1.6,1.6,0,0,1-1.79-1.51,10.22,10.22,0,0,1-.25-1.82,1.56,1.56,0,0,1,1.34-1.72c.87-.11,1.09-.61,1.21-1.35.66-4.11,1.2-8.25,2.07-12.31s1.93-8,2.66-12c1.08-6,2-12,2.93-18a2.9,2.9,0,0,1,.12-.42,8.08,8.08,0,0,0,1.26,1.76c2.26,2.59,5.29,4.14,8.07,6a7.24,7.24,0,0,0,2.48,1.32c.34.08.68.05.83-.31s-.15-.52-.4-.68c-.44-.26-.89-.49-1.31-.77-3.42-2.35-7.26-4.15-9.84-7.59A.89.89,0,0,0,171.25,299.08Zm21.1,18.09v-.74c0-.46-.11-.95-.66-.94s-.62.51-.64,1a11.38,11.38,0,0,1-.06,1.31c-1.14,7.56-2,15.16-2.57,22.78,0,.47-.13,1,.51,1.14s.89-.43.95-.93a27.55,27.55,0,0,0,.29-3.14c.09-4.22.81-8.37,1.22-12.55C191.66,322.33,192.05,319.61,192.35,317.17Zm-3.71-4.34v-.33c0-.54.23-1.35-.57-1.42s-.68.76-.73,1.3a24,24,0,0,1-3.4,10.09c-1.21,2-2.41,4-3.6,6.08-.27.45-.66,1,0,1.42s.94-.24,1.22-.67a69.55,69.55,0,0,0,5.21-9.15A20.4,20.4,0,0,0,188.64,312.83Zm5.79-11c.48-.19.48-.5.55-.78.25-1.13.5-2.26.74-3.39.81-3.83,1.68-7.65,1.22-11.62-.27-2.24-.83-4.29-3-5.47-.3-.16-.7-.42-1,0s.08.71.37.91a5.08,5.08,0,0,1,2,2.78,14.75,14.75,0,0,1,.43,4.53,63.84,63.84,0,0,1-.91,7.65A19.81,19.81,0,0,0,194.43,301.8Zm7,11c-.1-.36-.13-.74-.51-.81s-.59.16-.74.51c-.55,1.25-1.11,2.51-1.69,3.75-.79,1.67-1.61,3.32-2.42,5-.21.44-.43.94.16,1.22s.85-.17,1.1-.59l.15-.29,3.4-7.39C201.08,313.74,201.25,313.26,201.42,312.82Zm-8,29.64,5.42-.75c.55-.07,1-.29.9-1s-.67-.52-1.14-.45c-1.79.27-3.58.5-5.36.82-.56.1-1.59-.19-1.5.77S192.8,342.22,193.42,342.46ZM203.7,302.6a.86.86,0,0,0-.3-.67c-1.42-1.34-2.84-2.68-4.28-4-.3-.28-.69-.48-1.08-.16s-.08.75.16,1a41.15,41.15,0,0,0,4.09,4.05,1.55,1.55,0,0,0,.78.32A.5.5,0,0,0,203.7,302.6Zm-32.63,38.1a.45.45,0,0,0,.74.38,13,13,0,0,0,4.15-4.34c.2-.37.45-.86,0-1.16s-.76.21-1,.54a18.16,18.16,0,0,1-3.39,3.77A1.18,1.18,0,0,0,171.07,340.7Zm2.3-53.5c-.05-.55.08-1.13-.5-1.38-.31-.13-.57.16-.66.43a11,11,0,0,0-.71,4.67.69.69,0,1,0,1.38,0A19.19,19.19,0,0,1,173.37,287.2Zm4.6.7c0-.22,0-.44-.24-.55a.77.77,0,0,0-.9.2c-.94,1-1.87,2-2.75,3a.73.73,0,0,0,.09,1.15c.41.28.74,0,1-.3l2.31-2.57A1.78,1.78,0,0,0,178,287.9Z"/><path class="cls-5" d="M163.15,272.79a3.66,3.66,0,0,1-1.66,4c-3.58,2.45-7.46,4.13-11.91,4-2.49-.08-5-.32-7.46-.63-.39-.05-.79,0-1.19-.06a28.62,28.62,0,0,0-7.61-1.5l-5.91-.89-.63-.14c-3.07-.8-3.57-1.76-2.62-4.78a34,34,0,0,0,.85-6.89c.6-6.4.71-12.81.71-19.24,0-3.54,1.16-6.92,1.92-10.34a60.81,60.81,0,0,1,3.85-10.74,8.16,8.16,0,0,1,4.4-4.14c1-.43,1.91-1,2.93-1.41a1.83,1.83,0,0,1,1.05-.21,4.54,4.54,0,0,0,1.86,4.47,11.37,11.37,0,0,0,5.46,2.21,6.05,6.05,0,0,0,3.1-.21c.66-.27,1.12-.65,1.08-1.43,4.45.45,8.17,2.09,10.31,6.32a37,37,0,0,1,2.77,9.46,48.28,48.28,0,0,1,.89,9c0,.73.21,1.14,1,1.3a130.11,130.11,0,0,1,15.79,4.83c.78.27,1.86.13,2.3.77s-.46,1.45-.4,2.26a35,35,0,0,0-2.51,5.91c-.87,1.75-.87,1.75-2.78,1-.26-.1-.52-.23-.78-.35.32-.87-.82-1.06-.82-1.79,0-.14,0-.28.05-.43.28-.53-.25-.66-.47-.94s-.55-.27-.41-.56c.4-.81-.21-1.1-.69-1.45l-3.42-2.47a5.94,5.94,0,0,0-3.66-1.14c-.47,0-.93-.1-1.39-.13-1.61-.1-3.21-.55-4.85-.12-.61.16-.84.39-.85,1a25.12,25.12,0,0,0,.82,7,20.72,20.72,0,0,0,.73,7C163.09,271.76,162.72,272.32,163.15,272.79Zm-19.87-28.26a55.19,55.19,0,0,0-.22-7.5,30.69,30.69,0,0,0-.83-5c-.09-.34-.27-.64-.65-.62s-.44.41-.44.74a6.73,6.73,0,0,0,.05,1.19c1,6.06.65,12.14.41,18.23,0,.45-.25.58-.61.75a11.68,11.68,0,0,1-5.35,1.21c-.47,0-1.07-.18-1.06.67s.55.8,1.11.82a11.24,11.24,0,0,0,4.5-.53c.24-.09.5-.23.69,0a.64.64,0,0,1-.06.72c-.38.62-.79,1.22-1.16,1.84-.21.36-.77.75-.09,1.17s1.09.43,1.48-.27a12.18,12.18,0,0,0,.9-1.61,2.18,2.18,0,0,1,2.56-1.6c4.9.45,9.81.7,14.7,1.27.4.05,1,.34,1.06-.48,0-.57-.09-1-.8-1s-1.59-.13-2.38-.22c-4.31-.52-8.65-.77-13-1-.81-.05-1.07-.24-1-1.06A66.11,66.11,0,0,0,143.28,244.53Zm7,23.33v0h4c1.82,0,3.63,0,5.44,0,.39,0,1.05.06.89-.75-.13-.59-.07-1.16-1-1.1-6,.39-12,.12-18.05.31-2,.06-4.12-.06-6.18-.08-3.56,0-3.81-.2-4.78-3.66a4.75,4.75,0,0,1-.14-.63c-.22-1.4-.43-2.79-.64-4.18,0-.35-.17-.67-.57-.68s-.61.4-.64.75a9.32,9.32,0,0,0,.09,1.29,18.89,18.89,0,0,0,1.11,5.62c.79,2.08,1.84,2.89,4.07,2.94,2.64.06,5.28.06,7.93.21C144.63,268,147.47,267.86,150.3,267.86ZM164,249.41c-.15-2.2-.24-4.34-.45-6.45a24.4,24.4,0,0,0-1.27-6.14,2.23,2.23,0,0,0-.68-1.08c-.3-.21-.62-.42-1-.09a.67.67,0,0,0-.08,1,3.5,3.5,0,0,1,.42.87,30.82,30.82,0,0,1,1.13,7.14c.1,1.81.26,3.6.38,5.4,0,.53.23,1,.8,1s.73-.5.73-1ZM131.13,233.2c0-.8,0-1.6,0-2.4,0-.33,0-.71-.43-.78s-.55.37-.64.7a9.06,9.06,0,0,0-.26,1.94c-.11,2.17-.28,4.33-.38,6.5a35.92,35.92,0,0,0-.06,6.72c.06.42.14.9.58.93s.48-.48.48-.82C130.34,241.71,131.1,237.47,131.13,233.2Z"/><path class="cls-6" d="M198.45,346.45c.25-.05.5-.1.75-.13,1.13-.14,1.57.26,1.44,1.41a17.29,17.29,0,0,1-.48,2.68c-.25.88.09,1.11.9,1.24,2.55.4,5.1.71,7.66,1a4.39,4.39,0,0,1,2.93,1c1.12,1.15,1.27,4.71.28,6a2.86,2.86,0,0,1-1.66.95,21,21,0,0,1-6.17.46c-2.21-.08-4.42-.14-6.62-.39a35.8,35.8,0,0,0-4.75.15c-7.62.12-15.25.11-22.87.11a15.57,15.57,0,0,1-3.46-.3,1.18,1.18,0,0,1-1.07-1.27c0-2.43-.05-4.86-.06-7.29,0-.78.23-1.36,1.12-1.44a4.35,4.35,0,0,1,1.7,1.3c.45.45.79,1.1,1.49,1.21a35.92,35.92,0,0,0,7.54.67c.61,0,.68-.24.37-.72-.5-.79-1-1.6-1.48-2.4a1,1,0,0,1-.17-1c.18-.38.57-.19.87-.2a16.84,16.84,0,0,0,4.31-.25c1.23,0,2.46-.05,3.68,0,1,0,1.31.5.92,1.43-.47,1.13-1.05,2.21-1.57,3.32-.09.21-.41.48-.09.64a2.7,2.7,0,0,0,1.35.33c.42,0,.15-.45.13-.7-.11-1.49-.14-2.93,1.67-3.51.41,0,.83,0,1.06.41a3.28,3.28,0,0,0,2.69,1.38c2,.28,2,.27,1.47-1.56,0-.14-.08-.28-.11-.42-.32-1.3-.17-1.56,1-2.08Q195.81,347.27,198.45,346.45Z"/><path class="cls-7" d="M142.41,217a61.06,61.06,0,0,0-2-10.55,48.27,48.27,0,0,1-1.3-6.05,5.77,5.77,0,0,1,2.11-5.31c2.66-2.25,5.58-3.2,8.91-1.46a1.1,1.1,0,0,0,.94,0c3.17-.94,6.4-.62,9.61-.27,1.79.19,2.94,1.54,4,2.83.89,1.13-.12,2.91-1.86,3.52a5.48,5.48,0,0,1-2.48.14c-.35,0-.66-.1-.59.45s-.39.95-1,1.13a14.55,14.55,0,0,1-7,.1c-.95-.25-1.19.17-1.37.85-.28,1.05-.5,2.12-.81,3.16-.15.49-.17,1.24-.83,1.26s-.55-.72-.66-1.18c-.06-.25-.15-.51-.46-.52s-.33.24-.42.44a5.92,5.92,0,0,0-.39,3.19c.06.51.38,1.12.91,1.09,1.6-.09,1,.78.86,1.61-.44,2.16-1.75,4.07-1.77,6.34,0,.3-.22.42-.47.53A2.72,2.72,0,0,1,142.41,217Z"/><path class="cls-8" d="M142.41,217a2.72,2.72,0,0,0,3.94,1.26c.25-.11.47-.23.47-.53,0-2.27,1.33-4.18,1.77-6.34.17-.83.74-1.7-.86-1.61-.53,0-.85-.58-.91-1.09a5.92,5.92,0,0,1,.39-3.19c.09-.2.15-.44.42-.44s.4.27.46.52c.11.46,0,1.2.66,1.18s.68-.77.83-1.26c.31-1,.53-2.11.81-3.16.18-.68.42-1.1,1.37-.85a14.55,14.55,0,0,0,7-.1c.41,2.4,1.68,4.45,2.63,6.63.17.4.44.75.6,1.15.5,1.2-.13,2.09-1.4,1.87-.71-.12-.89,0-.92.73,0,1.05-.21,2.09-.32,3.13a3.66,3.66,0,0,1-2.11-2.18c-.13-.41-.23-1-.81-.82s-.5.76-.39,1.18a4.36,4.36,0,0,0,3,3.07,6.73,6.73,0,0,1-1.68,3.1,1.93,1.93,0,0,1-1.88.59,25.51,25.51,0,0,1-4.59-.73c-1.07-.31-1.22-.19-1,.91.23,1.35.5,2.7.76,4-2.72,1.07-5.11.07-7.41-1.25a2.75,2.75,0,0,1-1.18-1.53c-.21-.61-.43-1.22-.65-1.84A12.46,12.46,0,0,1,142.41,217ZM156,206.48c.11.59.24,1.2,1,1.21s1-.45,1-1.07-.16-1.22-.89-1.27S156.07,205.88,156,206.48Z"/><path class="cls-9" d="M181.48,264.64a35,35,0,0,1,2.51-5.91,24.81,24.81,0,0,1,3.83,1.16,3,3,0,0,1,1.39,1c1.66,2,3.77,3.59,5.43,5.61a5.89,5.89,0,0,1,.65.86c.22.39.08.84-.34.84-1,0-.58.49-.37.91a.63.63,0,0,1-.17.87c-.35.26-.68.12-1-.16s-.48-.82-.95-1c-.09-.23-.29-.39-.47-.19s.07.33.25.43.26.42.4.62c.25.36.52.76.14,1.15s-.9.26-1.29-.15a.81.81,0,0,0-.48-.61l-.22-.22-.22-.22-.22-.22c0-.18-.08-.33-.28-.36,0,0-.07.06-.06.08a.29.29,0,0,0,.35.27l.22.22.22.22c0,.13.07.21.22.21a.69.69,0,0,0,.15.66c-.1.49.39,1.18-.36,1.42s-1.07-.29-1.42-.76c-.13-.18-.26-.35-.4-.52-.37-.49-.66-1.23-1.14-1.4-.74-.26-.73.79-1.2,1.13s-.92.64-1.49.36-.48-.83-.42-1.34.16-1.14.26-1.71a2.1,2.1,0,0,0-1.59-2.61Z"/><path class="cls-10" d="M177.1,263.51c0,.73,1.14.92.82,1.79-.28.11-.56.21-.83,0a1.82,1.82,0,0,0-1.15-1.34c-.93-.47-1.91-.85-2.87-1.24-.22-.09-.53-.47-.71,0s.18.52.46.62a22.82,22.82,0,0,1,3.91,2c-.24,1-.83,1.2-1.71.82a6,6,0,0,1-1.59-.91,7.27,7.27,0,0,0-6.15-1.39,33,33,0,0,1-5.05.41,25.12,25.12,0,0,1-.82-7c0-.61.24-.84.85-1,1.64-.43,3.24,0,4.85.12.46,0,.92.14,1.39.13a5.94,5.94,0,0,1,3.66,1.14l3.42,2.47c.48.35,1.09.64.69,1.45-.14.29.26.38.41.56s.75.41.47.94a19.92,19.92,0,0,0-3.54-1.86c-.21-.07-.43-.16-.58.07a.32.32,0,0,0,.16.46C174.53,262.25,175.59,263.39,177.1,263.51Zm-3.88-3.71c-.19.06-.49-.09-.63.22s0,.33.22.42l2.49,1.05c.2.08.47.12.59-.1s-.09-.42-.27-.53A7.54,7.54,0,0,0,173.22,259.8Z"/><path class="cls-11" d="M133.32,278.56a28.62,28.62,0,0,1,7.61,1.5c-.27,0-.74,0-.6.39.4,1.1-.13,2.14-.09,3.22a2.76,2.76,0,0,1-2.44,3,4.53,4.53,0,0,1-3.61-.51C133,283.73,133.26,281.14,133.32,278.56Z"/><path class="cls-12" d="M181,349.12a16.84,16.84,0,0,1-4.31.25c-.3,0-.69-.18-.87.2a1,1,0,0,0,.17,1c.5.8,1,1.61,1.48,2.4.31.48.24.69-.37.72a35.92,35.92,0,0,1-7.54-.67c-.7-.11-1-.76-1.49-1.21a4.35,4.35,0,0,0-1.7-1.3c0-.58.35-1.12.25-1.72,2.81-.16,5.63-.13,8.44-.31,2-.12,3.95-.42,5.94-.45Z"/><path class="cls-12" d="M198.45,346.45q-2.64.82-5.19,1.9c-1.21.52-1.36.78-1,2.08,0,.14.07.28.11.42.51,1.83.51,1.84-1.47,1.56a3.28,3.28,0,0,1-2.69-1.38c-.23-.4-.65-.41-1.06-.41a13.31,13.31,0,0,0-.2-2.75c1.72-1.93,4.22-1.36,6.35-1.89a27.74,27.74,0,0,1,5.18-.32C198.44,345.92,198.45,346.18,198.45,346.45Z"/><path class="cls-13" d="M141.3,219.48c.22.62.44,1.23.65,1.84a2.75,2.75,0,0,0,1.18,1.53c2.3,1.32,4.69,2.32,7.41,1.25l.83.72c0,.78-.42,1.16-1.08,1.43a6.05,6.05,0,0,1-3.1.21,11.37,11.37,0,0,1-5.46-2.21,4.54,4.54,0,0,1-1.86-4.47A1.17,1.17,0,0,1,141.3,219.48Z"/><path class="cls-14" d="M171.25,299.08a.89.89,0,0,1,1,.31c2.58,3.44,6.42,5.24,9.84,7.59.42.28.87.51,1.31.77.25.16.54.33.4.68s-.49.39-.83.31a7.24,7.24,0,0,1-2.48-1.32c-2.78-1.89-5.81-3.44-8.07-6a8.08,8.08,0,0,1-1.26-1.76Z"/><path class="cls-7" d="M159,216.19a4.36,4.36,0,0,1-3-3.07c-.11-.42-.24-1,.39-1.18s.68.41.81.82a3.66,3.66,0,0,0,2.11,2.18A1.66,1.66,0,0,1,159,216.19Z"/><path class="cls-15" d="M176.73,265.3a22.82,22.82,0,0,0-3.91-2c-.28-.1-.59-.29-.46-.62s.49-.09.71,0c1,.39,1.94.77,2.87,1.24a1.82,1.82,0,0,1,1.15,1.34Z"/><path class="cls-16" d="M191.2,270.69a.69.69,0,0,1-.15-.66v0a.81.81,0,0,1,.48.61Z"/><path class="cls-14" d="M192.35,317.17c-.3,2.44-.69,5.16-1,7.9-.41,4.18-1.13,8.33-1.22,12.55a27.55,27.55,0,0,1-.29,3.14c-.06.5-.25,1.06-.95.93s-.54-.67-.51-1.14c.61-7.62,1.43-15.22,2.57-22.78a11.38,11.38,0,0,0,.06-1.31c0-.46.09-1,.64-1s.65.48.66.94Z"/><path class="cls-14" d="M188.64,312.83a20.4,20.4,0,0,1-1.87,7.32,69.55,69.55,0,0,1-5.21,9.15c-.28.43-.52,1.11-1.22.67s-.27-1,0-1.42c1.19-2,2.39-4.06,3.6-6.08a24,24,0,0,0,3.4-10.09c0-.54-.11-1.37.73-1.3s.52.88.57,1.42Z"/><path class="cls-14" d="M194.43,301.8a19.81,19.81,0,0,1,.42-5.37,63.84,63.84,0,0,0,.91-7.65,14.75,14.75,0,0,0-.43-4.53,5.08,5.08,0,0,0-2-2.78c-.29-.2-.59-.54-.37-.91s.66-.18,1,0c2.18,1.18,2.74,3.23,3,5.47.46,4-.41,7.79-1.22,11.62-.24,1.13-.49,2.26-.74,3.39C194.91,301.3,194.91,301.61,194.43,301.8Z"/><path class="cls-14" d="M201.42,312.82c-.17.44-.34.92-.55,1.38l-3.4,7.39-.15.29c-.25.42-.55.86-1.1.59s-.37-.78-.16-1.22c.81-1.66,1.63-3.31,2.42-5,.58-1.24,1.14-2.5,1.69-3.75.15-.35.38-.57.74-.51S201.32,312.46,201.42,312.82Z"/><path class="cls-17" d="M186.91,347.87a13.31,13.31,0,0,1,.2,2.75c-1.81.58-1.78,2-1.67,3.51,0,.25.29.67-.13.7a2.7,2.7,0,0,1-1.35-.33c-.32-.16,0-.43.09-.64.52-1.11,1.1-2.19,1.57-3.32.39-.93.08-1.4-.92-1.43-1.22,0-2.45,0-3.68,0v-1.07C183,347.58,184.94,347.92,186.91,347.87Z"/><path class="cls-14" d="M193.42,342.46c-.62-.24-1.59.38-1.68-.57s.94-.67,1.5-.77c1.78-.32,3.57-.55,5.36-.82.47-.07,1-.2,1.14.45s-.35.89-.9,1Z"/><path class="cls-14" d="M203.7,302.6a.5.5,0,0,1-.63.55,1.55,1.55,0,0,1-.78-.32,41.15,41.15,0,0,1-4.09-4.05c-.24-.27-.63-.63-.16-1s.78-.12,1.08.16c1.44,1.33,2.86,2.67,4.28,4A.86.86,0,0,1,203.7,302.6Z"/><path class="cls-14" d="M171.07,340.7a1.18,1.18,0,0,1,.46-.81,18.16,18.16,0,0,0,3.39-3.77c.24-.33.47-.86,1-.54s.24.79,0,1.16a13,13,0,0,1-4.15,4.34A.45.45,0,0,1,171.07,340.7Z"/><path class="cls-14" d="M173.37,287.2a19.19,19.19,0,0,0-.49,3.69.69.69,0,1,1-1.38,0,11,11,0,0,1,.71-4.67c.09-.27.35-.56.66-.43C173.45,286.07,173.32,286.65,173.37,287.2Z"/><path class="cls-14" d="M178,287.9a1.78,1.78,0,0,1-.47,1l-2.31,2.57c-.28.31-.61.58-1,.3a.73.73,0,0,1-.09-1.15c.88-1,1.81-2,2.75-3a.77.77,0,0,1,.9-.2C178,287.46,178,287.68,178,287.9Z"/><path class="cls-16" d="M143.28,244.53a66.11,66.11,0,0,1-.2,7.71c0,.82.22,1,1,1.06,4.33.25,8.67.5,13,1,.79.09,1.58.2,2.38.22s.84.43.8,1c-.05.82-.66.53-1.06.48-4.89-.57-9.8-.82-14.7-1.27a2.18,2.18,0,0,0-2.56,1.6,12.18,12.18,0,0,1-.9,1.61c-.39.7-.93.6-1.48.27s-.12-.81.09-1.17c.37-.62.78-1.22,1.16-1.84a.64.64,0,0,0,.06-.72c-.19-.27-.45-.13-.69,0a11.24,11.24,0,0,1-4.5.53c-.56,0-1.11,0-1.11-.82s.59-.69,1.06-.67a11.68,11.68,0,0,0,5.35-1.21c.36-.17.59-.3.61-.75.24-6.09.63-12.17-.41-18.23a6.73,6.73,0,0,1-.05-1.19c0-.33,0-.72.44-.74s.56.28.65.62a30.69,30.69,0,0,1,.83,5A55.19,55.19,0,0,1,143.28,244.53Z"/><path class="cls-18" d="M150.3,267.86c-2.83,0-5.67.12-8.49,0-2.65-.15-5.29-.15-7.93-.21-2.23-.05-3.28-.86-4.07-2.94a18.89,18.89,0,0,1-1.11-5.62,9.32,9.32,0,0,1-.09-1.29c0-.35.17-.75.64-.75s.52.33.57.68c.21,1.39.42,2.78.64,4.18a4.75,4.75,0,0,0,.14.63c1,3.46,1.22,3.62,4.78,3.66,2.06,0,4.14.14,6.18.08,6-.19,12,.08,18.05-.31,1-.06.91.51,1,1.1.16.81-.5.74-.89.75-1.81.06-3.62,0-5.44,0h-4Z"/><path class="cls-16" d="M164,249.41V250c0,.52-.16,1-.73,1s-.76-.44-.8-1c-.12-1.8-.28-3.59-.38-5.4a30.82,30.82,0,0,0-1.13-7.14,3.5,3.5,0,0,0-.42-.87.67.67,0,0,1,.08-1c.36-.33.68-.12,1,.09a2.23,2.23,0,0,1,.68,1.08,24.4,24.4,0,0,1,1.27,6.14C163.76,245.07,163.85,247.21,164,249.41Z"/><path class="cls-16" d="M131.13,233.2c0,4.27-.79,8.51-.72,12.79,0,.34,0,.86-.48.82s-.52-.51-.58-.93a35.92,35.92,0,0,1,.06-6.72c.1-2.17.27-4.33.38-6.5a9.06,9.06,0,0,1,.26-1.94c.09-.33.14-.78.64-.7s.43.45.43.78C131.13,231.6,131.13,232.4,131.13,233.2Z"/><path class="cls-15" d="M177.1,263.51c-1.51-.12-2.57-1.26-3.91-1.76a.32.32,0,0,1-.16-.46c.15-.23.37-.14.58-.07a19.92,19.92,0,0,1,3.54,1.86C177.13,263.23,177.11,263.37,177.1,263.51Z"/><path class="cls-7" d="M156,206.48c.11-.6.31-1.18,1-1.13s.88.66.89,1.27-.29,1.08-1,1.07S156.07,207.07,156,206.48Z"/><path class="cls-19" d="M192.27,269c-.18-.1-.47-.19-.25-.43s.38,0,.47.19Z"/><path class="cls-16" d="M190.39,269.38a.29.29,0,0,1-.35-.27s0-.08.06-.08c.2,0,.26.18.28.36Z"/><path class="cls-16" d="M191.05,270c-.15,0-.2-.08-.22-.21h0l.22.22Z"/><path class="cls-16" d="M190.38,269.39l.22.22h0a2.28,2.28,0,0,0-.22-.22Z"/><path class="cls-16" d="M190.6,269.61l.22.22h0l-.22-.22Z"/><path class="cls-15" d="M173.22,259.8a7.54,7.54,0,0,1,2.4,1.06c.18.11.39.29.27.53s-.39.18-.59.1l-2.49-1.05c-.19-.09-.3-.21-.22-.42S173,259.86,173.22,259.8Z"/><rect class="cls-5" x="252.74" y="132.17" width="124.1" height="102.73" rx="25.13"/><path class="cls-20" d="M284.55,161.59H309a10.89,10.89,0,0,1,1.28,0,1.33,1.33,0,0,1,1.21,1.3,1.21,1.21,0,0,1-1,1.32,4.94,4.94,0,0,1-1.52.18H260.23a5.07,5.07,0,0,1-1.77-.22c-.6-.22-1.14-.56-1.11-1.24a1.38,1.38,0,0,1,1.35-1.32,13.25,13.25,0,0,1,1.67,0Z"/><path class="cls-20" d="M284.55,170.85H309a11.06,11.06,0,0,1,1.29,0,1.34,1.34,0,0,1,1.21,1.3,1.21,1.21,0,0,1-1,1.32,4.87,4.87,0,0,1-1.52.18H260.11a4.64,4.64,0,0,1-1.65-.22c-.6-.21-1.14-.56-1.11-1.24a1.37,1.37,0,0,1,1.35-1.31,11.61,11.61,0,0,1,1.67-.06Z"/><path class="cls-20" d="M284.54,180.11H309c.43,0,.86,0,1.28,0a1.35,1.35,0,0,1,1.22,1.3,1.2,1.2,0,0,1-1,1.32,4.91,4.91,0,0,1-1.52.18H260.12a4.57,4.57,0,0,1-1.65-.21c-.63-.24-1.21-.59-1.11-1.36a1.39,1.39,0,0,1,1.33-1.2,15.44,15.44,0,0,1,1.67-.06Z"/><path class="cls-20" d="M284.54,189.38H309a10.89,10.89,0,0,1,1.28,0,1.33,1.33,0,0,1,1.22,1.29,1.19,1.19,0,0,1-1,1.32,4.67,4.67,0,0,1-1.52.19q-24.44,0-48.88,0a4.55,4.55,0,0,1-1.64-.22c-.64-.24-1.21-.59-1.11-1.36a1.39,1.39,0,0,1,1.33-1.2,13.25,13.25,0,0,1,1.67-.05Z"/><path class="cls-20" d="M284.42,198.64H309a11.11,11.11,0,0,1,1.29,0,1.34,1.34,0,0,1,1.21,1.3,1.22,1.22,0,0,1-1,1.32,4.87,4.87,0,0,1-1.52.18H260.11a4.64,4.64,0,0,1-1.65-.22c-.6-.21-1.14-.56-1.11-1.24a1.37,1.37,0,0,1,1.35-1.31,11.61,11.61,0,0,1,1.67-.06Z"/><path class="cls-20" d="M284.5,207.9h24.57a7.79,7.79,0,0,1,1.28,0,1.32,1.32,0,0,1,1.13,1.24,1.21,1.21,0,0,1-.94,1.35,4.58,4.58,0,0,1-1.51.19H260.15a4.47,4.47,0,0,1-1.89-.3c-.51-.23-1-.59-.91-1.25a1.3,1.3,0,0,1,1.06-1.16,9.68,9.68,0,0,1,1.79-.12Z"/><path class="cls-21" d="M319,182.45q.35.26,0,.51Q318.62,182.71,319,182.45Z"/><circle class="cls-22" cx="343.52" cy="187.75" r="30.32"/><path class="cls-23" d="M340.88,187.75s17-11.38,27.05-18a30.31,30.31,0,0,0-21.16-12.17C344.82,167.13,340.88,187.75,340.88,187.75Z"/><path class="cls-24" d="M278.88,267a176.22,176.22,0,0,1,1,21.3c.12,11.36.25,22.72.26,34.09,0,4.1.86,8.19.93,12.33a102.72,102.72,0,0,1-.11,11.9c-.07.72,0,1.12.92,1,1.11-.17,1.5.59,1.54,1.49a28.17,28.17,0,0,1-.12,3.18,1.23,1.23,0,0,1-1.12,1.18c-.66.11-1.32.19-2,.28a118.8,118.8,0,0,1-13.21,0l-2-.09a2.17,2.17,0,0,1-2.26-2.2c-.16-2.63.15-3.09,2.77-3.53.73-.13.75-.47.76-1a59.46,59.46,0,0,0-1-11.14A74.67,74.67,0,0,1,264,321.25c.12-4.35-.67-8.62-1-12.92-.57-6.9-1.41-13.76-2.36-20.61-.34-2.44-1-4.84-1.47-7.28-.36.21-.35.55-.45.84a125.34,125.34,0,0,0-4.15,17.88c-1.23,6.71-2.59,13.41-3.68,20.16a141.88,141.88,0,0,0-1.61,14.27,41.15,41.15,0,0,1-.84,5.83,35.26,35.26,0,0,0-.33,6.81c0,.8.44,1.1,1.21,1.1a4.56,4.56,0,0,1,2,.13c.95.43,1.27,1.48,1,2.87-.22,1.14-.68,1.87-2,1.79-1.09-.07-2.2,0-3.3,0L232,351.92c-1.41-.09-2.82-.17-4.23-.28-1.24-.09-1.66-.69-1.31-1.89a17.65,17.65,0,0,1,.67-1.89c.17-.39.35-1,.76-1,1.65-.15,1.43-1.51,1.47-2.44.13-3.59,1-7.07,1.31-10.63.44-4.65,1-9.29,1.33-14,.41-5.41,1.18-10.77,1.77-16.15,1-9,2.87-17.91,4.06-26.9a77.64,77.64,0,0,1,1.9-9.46,14.82,14.82,0,0,1,2,0,37.64,37.64,0,0,0,6.09.43c4.63-.11,9.26.11,13.89-.18s9-.42,13.52-.68A11.59,11.59,0,0,1,278.88,267Zm-28.43,21.44c0-.34,0-.7-.47-.83s-.74.13-.9.54c-.09.26-.16.53-.23.79a41.41,41.41,0,0,1-4.56,10.95c-.25.4-.77.92-.13,1.32s.89-.22,1.2-.64a28.11,28.11,0,0,0,3.56-7.15A43.52,43.52,0,0,0,250.45,288.48Zm18.83,60.3a18.52,18.52,0,0,0,4.12-.5c2-.37,3.92-.79,5.88-1.23.5-.11,1-.41.88-1.06s-.72-.54-1.24-.43l-5.9,1.15a26.52,26.52,0,0,1-4.78.63c-.44,0-.91.15-.95.68s.37.74.85.76S269,348.78,269.28,348.78Zm.09-51.88a2.78,2.78,0,0,0,.61,1.39,21.46,21.46,0,0,0,7.53,6.28c.46.25,1.1.63,1.47,0s-.33-1-.81-1.33c-.19-.13-.41-.22-.61-.35-2.75-1.7-5.38-3.55-7-6.45-.14-.24-.29-.56-.6-.46S269.4,296.5,269.37,296.9Zm-24.94,22.85c-.18-.45-.4-1.08-.7-1.67-1.68-3.33-3.66-6.51-5-10-.11-.3-.2-.61-.65-.42s-.6.4-.44.9c1.36,4.17,3.88,7.79,5.6,11.79a.58.58,0,0,0,.76.37C244.4,320.58,244.46,320.27,244.43,319.75Zm-11.92,28.43c3.46.05,6.86-.65,10.3-.85.46,0,.9-.21.81-.78s-.56-.5-.94-.47c-4.23.23-8.41,1.07-12.66.87-.37,0-.74.11-.77.56s.4.64.79.66C230.86,348.21,231.69,348.18,232.51,348.18Zm43.86-26.28c-.07-.51-.09-1-.74-1.18-.35-.06-.51.17-.54.48-.29,3.05-2,5.48-3.46,8-.46.78-1,1.53-1.41,2.31-.24.42-.38,1,.12,1.27s.86-.14,1.11-.54a47.75,47.75,0,0,0,3.46-6A19.45,19.45,0,0,0,276.37,321.9ZM235.25,340l1.79-.24c1.7-.27,3.4-.53,5.09-.82.43-.07.9-.26.8-.82s-.61-.44-1-.37l-2.55.42c-1.35.22-2.71.41-4.05.64-.45.08-.86.35-.8.86S235,340,235.25,340Z"/><path class="cls-25" d="M278.88,267a11.59,11.59,0,0,0-3.62-.13c-4.51.26-9,.41-13.52.68s-9.26.07-13.89.18a37.64,37.64,0,0,1-6.09-.43,14.82,14.82,0,0,0-2,0,14.64,14.64,0,0,1-1.48-.21,2.12,2.12,0,0,1-1.79-2.24,2.88,2.88,0,0,0-.19-1.48,31.65,31.65,0,0,1,.21-4.46c.29-3.44.33-6.91.81-10.32.83-6,1.08-12.1,2.24-18.08a1.31,1.31,0,0,0,1-2,3.06,3.06,0,0,0,.92-1.73,120.15,120.15,0,0,1,4.38-15.25c.18-.45.21-.87-.26-1.13s-.81.16-1,.5a9.54,9.54,0,0,0-1.1,2.46l-1.73,5.39a13.62,13.62,0,0,1-1.42-2.62c-.18-.46-.32-1.12-1-.81s-.51.83-.29,1.33c.46,1.08.91,2.18,1.42,3.23a4.45,4.45,0,0,1,.29,3.19,32.27,32.27,0,0,0-1.06,5.06c-.84-.16-1.68-.34-2.52-.49-2.69-.46-5.43-.73-7.55-2.76a2.74,2.74,0,0,0-.85-.37c1.07-4.47,3.6-8.19,6-12a14.66,14.66,0,0,1,5.89-5.72,7.29,7.29,0,0,0,1.11-.83,11,11,0,0,0,2.34-1.07,32.8,32.8,0,0,1,9.05-3.45A4.83,4.83,0,0,0,257.4,205a11.5,11.5,0,0,0,3.91-.46c.08,1.45,0,2.91.25,4.35.31,2,.45,4.05.92,6,.18.76.51,1.08,1.33.64,1-.56,2.12-1,3.2-1.5,4-1.76,7.77-4.11,11.83-5.8a20.61,20.61,0,0,0,4.82,2.66l3.41,1.61a4.62,4.62,0,0,0-.22,1c0,4.78-.47,9.54-.72,14.31-2.42,0-4.6-.92-6.83-1.66-1.43-.48-1.45-.49-1.42,1a209,209,0,0,0,2,23.7c.19,1.44.44,2.87.53,4.32a58,58,0,0,0,1.25,7.3C282.25,265.7,281.93,266.23,278.88,267ZM268.46,222h0c-1.69,0-3.38,0-5.07,0-.55,0-.89.09-.9.75a57.3,57.3,0,0,0-.15,6c.26,3.29.74,4.21,4.06,5.22a11.35,11.35,0,0,0,4.53.34,3.37,3.37,0,0,0,3.37-3,53.1,53.1,0,0,0,.23-8.46c0-.69-.39-.84-1-.84C271.84,222,270.15,222,268.46,222Zm9.33-4.89c-.1-.51-.1-1.14-.76-1.16s-.72.51-.78,1c-.15,1.12-.38,2.24-.45,3.36-.08,1.37-.05,2.74,0,4.11a1,1,0,0,0,.9,1.05c.48,0,.69-.34.67-.78A40.11,40.11,0,0,1,277.79,217.1Z"/><path class="cls-26" d="M278.84,208.26c-4.06,1.69-7.8,4-11.83,5.8-1.08.48-2.17.94-3.2,1.5-.82.44-1.15.12-1.33-.64-.47-2-.61-4-.92-6-.22-1.44-.17-2.9-.25-4.35l0-2c.08-3.53.18-7.06.23-10.59,0-.81.2-1.13,1.08-1.23a2.68,2.68,0,0,0,2.29-3.76c-.24-.63-.66-1.2-1.36-1.08-1.41.24-1.37-.57-1.16-1.48s-.21-.9-.88-.78a25.41,25.41,0,0,1-4.09.4c-2.39.07-4.78-.06-7.17-.2a3.75,3.75,0,0,0-.47,0c-2.55,0-2.2-.13-2.14-2.6A12.2,12.2,0,0,1,249,176c1.67-3.32,4.75-4.43,8.18-4.67a27.78,27.78,0,0,1,8.9.61,10.28,10.28,0,0,1,7.58,6.89c1.88,5.37,3.64,10.78,5.54,16.14a23.38,23.38,0,0,0,5.44,8.71c.16.17.31.36.45.54l.51.69C283.42,206.2,281.09,207.15,278.84,208.26Z"/><path class="cls-27" d="M289.06,214.6a7.32,7.32,0,0,1,1.79.55c1.15.69,1.84.34,2.66-.61,3.47-4,7.11-7.78,10.79-11.54,1.12-1.14.82-2.51.59-3.77-.19-1-.7-1.94.56-2.51,1-.44,1.73.06,2.36,1.5.05.1.1.2.19.4,1.2-1.06,2.05-2.41,3.28-3.37.58-.47,1.14-1,1.74-1.41a1,1,0,0,1,1.3-.16,1.11,1.11,0,0,1,.33,1.38,6.84,6.84,0,0,1-1.35,2.2l-1.66,2a7.79,7.79,0,0,0,2.8-1.37c.91-.54,1.78-1.15,2.68-1.72.59-.38,1.23-.69,1.8,0a1.3,1.3,0,0,1-.23,1.81c-.9,1-1.88,1.9-2.81,2.86-.29.3-.71.52-.75,1.07a2.52,2.52,0,0,0,1.81-.64,6.79,6.79,0,0,1,2.47-1.06c.56-.1,1-.1,1.33.44s0,1.06-.5,1.42a23.62,23.62,0,0,0-3.5,3.39,5.53,5.53,0,0,0,2.05-.31c.6-.12,1.22-.27,1.56.41s-.2,1.07-.71,1.39a43.41,43.41,0,0,0-9.39,8.14c-3.44,3.78-6.81,7.62-10.35,11.3a42.93,42.93,0,0,1-3.35,3,2.6,2.6,0,0,1-2.36.31c-1.94-.4-3.76-1.13-5.65-1.67C288.26,223.49,289.12,219.06,289.06,214.6Zm27-9.61c0-.07-.05-.15-.08-.22a9.18,9.18,0,0,0-4.84-4.6c-.25-.11-.6-.24-.74.06s.24.43.47.54a9.32,9.32,0,0,1,3.72,3.18c.29.42.52.88.8,1.31a.39.39,0,0,0,.52.14A.34.34,0,0,0,316.05,205Zm-21.7,16a7.61,7.61,0,0,0-1.29-4.27c-.14-.2-.27-.44-.55-.33s-.29.46-.15.7a7.82,7.82,0,0,1,1.13,4.27c0,.36.09.79.56.72s.28-.49.3-.79ZM314.84,202l0,.06h.08Z"/><path class="cls-28" d="M239.56,230.54c-1.16,6-1.41,12.06-2.24,18.08-.48,3.41-.52,6.88-.81,10.32a31.65,31.65,0,0,0-.21,4.46c-.7-.3-1-1.13-1.73-1.37-.5-.16-.7,0-.58.44.47,1.86.2,3.82.85,5.67.3.84.73,1.82-.3,2.56-.15.12-.11.28,0,.43.37.88-.1,1.39-.8,1.81,0-.2,0-.45-.09-.57-1.69-2-2.08-4.5-2.62-6.95a7,7,0,0,0-.68-2.63,2.26,2.26,0,0,0-.13.63c.36,3.12.66,6.25,2.7,8.85a1.23,1.23,0,0,1,.38.83.91.91,0,0,1-1.2-.16c.22-.87-.43-1.46-.72-2.16a41.76,41.76,0,0,1-1.37-4.29l-.49,1.05a23.33,23.33,0,0,1-.19-10.58,82,82,0,0,0,2.13-16.31A62.58,62.58,0,0,1,233,229.36Zm-7.42,31.73c0,.26-.07.52-.08.79a17,17,0,0,0,1.14,6.88c.11.3,0,.88.49.77s.26-.65.14-1a15.18,15.18,0,0,1-1.05-4.77A4.92,4.92,0,0,0,232.14,262.27Z"/><path class="cls-29" d="M232,351.92l14.93.24a4.18,4.18,0,0,0,.31,1.95c1.26,4.05-.13,6.2-3.7,7.15-4.73,1.26-9.35,2.83-14,4.32a6.82,6.82,0,0,1-4.7-.52,3.25,3.25,0,0,1-.43-5.62c1.17-.85,2.4-1.62,3.61-2.42a1.09,1.09,0,0,0,.81,1.35c1.15.36,2.3.75,3.44,1.13.52.17,1,.06,1.13-.48a.77.77,0,0,0-.62-1c-1.59-.33-3.08-1.17-4.77-1a7.84,7.84,0,0,1,2.06-1.49A3,3,0,0,0,232,351.92Zm1.19,3.2c-.63,0-1.11-.09-1.32.42a.62.62,0,0,0,.42.85c1.27.24,2.45.74,3.68,1.07a.79.79,0,0,0,.92-.57.58.58,0,0,0-.43-.82A22.44,22.44,0,0,0,233.22,355.12Z"/><path class="cls-29" d="M267,353.77a118.8,118.8,0,0,0,13.21,0l.26.65c-1.63-.14-2.47.95-3.18,2.15-.24.41-.42,1.05.18,1.33s.87-.21,1.08-.65a2.17,2.17,0,0,1,1.82-1.44c.7-.08.87-.57.77-1.19a7.69,7.69,0,0,1,2.69.51c-1.44.46-1.76,1.75-2.16,3a.59.59,0,0,0,.39.76.61.61,0,0,0,.85-.4,5.15,5.15,0,0,1,.94-1.87,1,1,0,0,0,.09-1.46,44.87,44.87,0,0,1,5.87,1.07,2.06,2.06,0,0,1,1.52,1.51c.59,2-.25,5.28-3.5,5.24-2.82-.05-5.62.22-8.43.38A22.26,22.26,0,0,1,270,362c-2.45-1-3.43-2.77-3-5.39A22.09,22.09,0,0,0,267,353.77Zm18.93,5.85c.11,0,.27,0,.33-.11a7.47,7.47,0,0,0,1.46-2.61.7.7,0,0,0-.43-.76.59.59,0,0,0-.78.32c-.4.67-.85,1.3-1.19,2S285.17,359.52,285.93,359.62Z"/><path class="cls-30" d="M250.22,183.79c2.39.14,4.78.27,7.17.2a25.41,25.41,0,0,0,4.09-.4c.67-.12,1.08-.11.88.78s-.25,1.72,1.16,1.48c.7-.12,1.12.45,1.36,1.08a2.68,2.68,0,0,1-2.29,3.76c-.88.1-1.08.42-1.08,1.23-.05,3.53-.15,7.06-.23,10.59-2.62,1-5,1.1-6.83-1.55a6.64,6.64,0,0,0,.58-1.65c.08-1.22.41-2.7-.79-3.46a9.45,9.45,0,0,1-3.59-4.79c-.82-1.93-.49-3.94-.66-5.92v0c.13,0,.15-.13.07-.23C250.11,184.55,250.16,184.17,250.22,183.79Zm3.74,4h0c0-.43,0-.86,0-1.29s0-.7-.46-.69-.43.37-.44.69c0,1-.08,1.95-.13,2.93,0,.58,0,1.14.64,1.37a1.45,1.45,0,0,0,1.5-.45c.21-.19.4-.43.23-.72a.44.44,0,0,0-.62-.14c-.82.42-.71-.18-.72-.64S254,188.1,254,187.75Zm1.06,5.46a3.25,3.25,0,0,0,2.44-1.7c.2-.28.52-.6.15-.92s-.73.08-.93.36a2.32,2.32,0,0,1-2.31,1.28c-.24,0-.5,0-.53.33s.2.42.43.49S254.8,193.16,255,193.21Zm1.44,1.83a1.63,1.63,0,0,0,1.32-1.07c.08-.29-.09-.63-.42-.49a2.29,2.29,0,0,0-1.42,1.06C255.82,194.83,256.08,195,256.46,195Zm-4.33-7.74c0-.41-.17-.74-.6-.71s-.61.42-.61.84.15.81.66.74S252.11,187.68,252.13,187.3Zm4.8.47c.41-.06.65-.27.63-.7s-.28-.53-.65-.48a.6.6,0,0,0-.57.63C256.33,187.62,256.55,187.78,256.93,187.77Z"/><path class="cls-31" d="M250,185.14c.17,2-.16,4,.66,5.92a9.45,9.45,0,0,0,3.59,4.79c1.2.76.87,2.24.79,3.46a6.64,6.64,0,0,1-.58,1.65,1.78,1.78,0,0,0-1.39.46,32.8,32.8,0,0,0-9.05,3.45,11,11,0,0,1-2.34,1.07,76.93,76.93,0,0,1,7-18.5C249.09,186.66,249.55,185.91,250,185.14Z"/><path class="cls-32" d="M289.06,214.6c.06,4.46-.8,8.89-.52,13.36a2.9,2.9,0,0,1-2.41-.09c.25-4.77.71-9.53.72-14.31a4.62,4.62,0,0,1,.22-1C288.69,212.48,288.84,212.63,289.06,214.6Z"/><path class="cls-32" d="M239.56,230.54,233,229.36a16.08,16.08,0,0,1-4.6-2,1.59,1.59,0,0,1,.25-2.85,2.74,2.74,0,0,1,.85.37c2.12,2,4.86,2.3,7.55,2.76.84.15,1.68.33,2.52.49a1.15,1.15,0,0,0,.91.38A1.31,1.31,0,0,1,239.56,230.54Z"/><path class="cls-33" d="M281.14,354.62c.1.62-.07,1.11-.77,1.19a2.17,2.17,0,0,0-1.82,1.44c-.21.44-.56.9-1.08.65s-.42-.92-.18-1.33c.71-1.2,1.55-2.29,3.18-2.15C280.71,354.43,281,354.38,281.14,354.62Z"/><path class="cls-34" d="M233.26,273.1a1.23,1.23,0,0,0-.38-.83c-2-2.6-2.34-5.73-2.7-8.85a2.26,2.26,0,0,1,.13-.63,7,7,0,0,1,.68,2.63c.54,2.45.93,4.94,2.62,6.95.11.12.06.37.09.57Z"/><path class="cls-34" d="M229.48,267.54l.49-1.05a41.76,41.76,0,0,0,1.37,4.29c.29.7.94,1.29.72,2.16a3.84,3.84,0,0,1-1.71-2.38A11.47,11.47,0,0,1,229.48,267.54Z"/><path class="cls-33" d="M283.94,355.12a1,1,0,0,1-.09,1.46,5.15,5.15,0,0,0-.94,1.87.61.61,0,0,1-.85.4.59.59,0,0,1-.39-.76c.4-1.21.72-2.5,2.16-3Z"/><path class="cls-31" d="M250.05,184.93c.08.1.06.18-.07.23Z"/><path class="cls-35" d="M250.45,288.48a43.52,43.52,0,0,1-1.53,5,28.11,28.11,0,0,1-3.56,7.15c-.31.42-.63,1-1.2.64s-.12-.92.13-1.32A41.41,41.41,0,0,0,248.85,289c.07-.26.14-.53.23-.79.16-.41.43-.68.9-.54S250.44,288.14,250.45,288.48Z"/><path class="cls-35" d="M269.28,348.78c-.28,0-.71,0-1.14,0s-.9-.21-.85-.76.51-.68.95-.68a26.52,26.52,0,0,0,4.78-.63l5.9-1.15c.52-.11,1.08-.27,1.24.43s-.38.95-.88,1.06c-2,.44-3.91.86-5.88,1.23A18.52,18.52,0,0,1,269.28,348.78Z"/><path class="cls-35" d="M269.37,296.9c0-.4.12-.81.55-.95s.46.22.6.46c1.66,2.9,4.29,4.75,7,6.45.2.13.42.22.61.35.48.32,1.21.59.81,1.33s-1,.28-1.47,0a21.46,21.46,0,0,1-7.53-6.28A2.78,2.78,0,0,1,269.37,296.9Z"/><path class="cls-35" d="M244.43,319.75c0,.52,0,.83-.39.95a.58.58,0,0,1-.76-.37c-1.72-4-4.24-7.62-5.6-11.79-.16-.5,0-.72.44-.9s.54.12.65.42c1.3,3.51,3.28,6.69,5,10C244,318.67,244.25,319.3,244.43,319.75Z"/><path class="cls-35" d="M232.51,348.18c-.82,0-1.65,0-2.47,0-.39,0-.83-.13-.79-.66s.4-.58.77-.56c4.25.2,8.43-.64,12.66-.87.38,0,.86-.05.94.47s-.35.76-.81.78C239.37,347.53,236,348.23,232.51,348.18Z"/><path class="cls-35" d="M276.37,321.9a19.45,19.45,0,0,1-1.46,4.34,47.75,47.75,0,0,1-3.46,6c-.25.4-.54.89-1.11.54s-.36-.85-.12-1.27c.44-.78.95-1.53,1.41-2.31,1.48-2.53,3.17-5,3.46-8,0-.31.19-.54.54-.48C276.28,320.85,276.3,321.39,276.37,321.9Z"/><path class="cls-35" d="M235.25,340c-.26,0-.69.06-.74-.33s.35-.78.8-.86c1.34-.23,2.7-.42,4.05-.64l2.55-.42c.41-.07.92-.27,1,.37s-.37.75-.8.82c-1.69.29-3.39.55-5.09.82Z"/><path class="cls-36" d="M268.46,222c1.69,0,3.38,0,5.07,0,.61,0,1,.15,1,.84a53.1,53.1,0,0,1-.23,8.46,3.37,3.37,0,0,1-3.37,3,11.35,11.35,0,0,1-4.53-.34c-3.32-1-3.8-1.93-4.06-5.22a57.3,57.3,0,0,1,.15-6c0-.66.35-.76.9-.75,1.69,0,3.38,0,5.07,0Z"/><path class="cls-37" d="M240.52,228.52a1.15,1.15,0,0,1-.91-.38,32.27,32.27,0,0,1,1.06-5.06,4.45,4.45,0,0,0-.29-3.19c-.51-1-1-2.15-1.42-3.23-.22-.5-.28-1.08.29-1.33s.84.35,1,.81a13.62,13.62,0,0,0,1.42,2.62l1.73-5.39a9.54,9.54,0,0,1,1.1-2.46c.23-.34.51-.79,1-.5s.44.68.26,1.13a120.15,120.15,0,0,0-4.38,15.25A3.06,3.06,0,0,1,240.52,228.52Z"/><path class="cls-32" d="M253.06,201.42a1.78,1.78,0,0,1,1.39-.46c1.79,2.65,4.21,2.56,6.83,1.55l0,2a11.5,11.5,0,0,1-3.91.46A4.83,4.83,0,0,1,253.06,201.42Z"/><path class="cls-37" d="M277.79,217.1a40.11,40.11,0,0,0-.45,7.59c0,.44-.19.81-.67.78a1,1,0,0,1-.9-1.05c0-1.37,0-2.74,0-4.11.07-1.12.3-2.24.45-3.36.06-.5.22-1,.78-1S277.69,216.59,277.79,217.1Z"/><path class="cls-38" d="M316.05,205a.34.34,0,0,1-.15.41.39.39,0,0,1-.52-.14c-.28-.43-.51-.89-.8-1.31a9.32,9.32,0,0,0-3.72-3.18c-.23-.11-.63-.18-.47-.54s.49-.17.74-.06a9.18,9.18,0,0,1,4.84,4.6C316,204.84,316,204.92,316.05,205Z"/><path class="cls-38" d="M294.35,221v.3c0,.3.12.73-.3.79s-.56-.36-.56-.72a7.82,7.82,0,0,0-1.13-4.27c-.14-.24-.2-.55.15-.7s.41.13.55.33A7.61,7.61,0,0,1,294.35,221Z"/><polygon class="cls-19" points="314.84 201.98 314.87 202.05 314.79 202.04 314.84 201.98"/><path class="cls-34" d="M232.14,262.27a4.92,4.92,0,0,1,.64,2.68,15.18,15.18,0,0,0,1.05,4.77c.12.34.36.87-.14,1s-.38-.47-.49-.77a17,17,0,0,1-1.14-6.88C232.07,262.79,232.11,262.53,232.14,262.27Z"/><path class="cls-33" d="M228,357c1.69-.16,3.18.68,4.77,1a.77.77,0,0,1,.62,1c-.16.54-.61.65-1.13.48-1.14-.38-2.29-.77-3.44-1.13a1.09,1.09,0,0,1-.81-1.35Z"/><path class="cls-33" d="M233.22,355.12a22.44,22.44,0,0,1,3.27.95.58.58,0,0,1,.43.82.79.79,0,0,1-.92.57c-1.23-.33-2.41-.83-3.68-1.07a.62.62,0,0,1-.42-.85C232.11,355,232.59,355.14,233.22,355.12Z"/><path class="cls-33" d="M285.93,359.62c-.76-.1-.9-.58-.61-1.16s.79-1.33,1.19-2a.59.59,0,0,1,.78-.32.7.7,0,0,1,.43.76,7.47,7.47,0,0,1-1.46,2.61C286.2,359.59,286,359.59,285.93,359.62Z"/><path class="cls-38" d="M254,187.75c0,.35,0,.7,0,1.06s-.1,1.06.72.64a.44.44,0,0,1,.62.14c.17.29,0,.53-.23.72a1.45,1.45,0,0,1-1.5.45c-.62-.23-.67-.79-.64-1.37,0-1,.09-2,.13-2.93,0-.32,0-.69.44-.69s.45.37.46.69,0,.86,0,1.29Z"/><path class="cls-38" d="M255,193.21c-.22-.05-.49-.08-.75-.16s-.46-.21-.43-.49.29-.37.53-.33a2.32,2.32,0,0,0,2.31-1.28c.2-.28.48-.75.93-.36s.05.64-.15.92A3.25,3.25,0,0,1,255,193.21Z"/><path class="cls-38" d="M256.46,195c-.38,0-.64-.21-.52-.5a2.29,2.29,0,0,1,1.42-1.06c.33-.14.5.2.42.49A1.63,1.63,0,0,1,256.46,195Z"/><path class="cls-38" d="M252.13,187.3c0,.38-.06.81-.55.87s-.65-.31-.66-.74.12-.81.61-.84S252.12,186.89,252.13,187.3Z"/><path class="cls-31" d="M256.93,187.77c-.38,0-.6-.15-.59-.55a.6.6,0,0,1,.57-.63c.37-.05.63.07.65.48S257.34,187.71,256.93,187.77Z"/><path class="cls-2" d="M360,360.54a27.89,27.89,0,0,1,0,4.57c-.08.53-.18.73-.74.52s-1.39-.22-1.8-.62,0-1.21-.05-1.84c-.48-8.45-.25-16.89-.13-25.34a168.86,168.86,0,0,1,1.08-19.59c.38-3,.5-6,1.69-8.85.17-.4.08-.57-.36-.72-2.48-.86-2.6-.81-2.77,1.79-.24,3.7-.17,7.39-.15,11.09,0,5.11-.24,10.23-.39,15.35-.09,2.71-.18,5.43-.31,8.14-.27,6-.48,12.06-.39,18.1,0,1.38-.12,1.39-1.45,1.1a1.63,1.63,0,0,1-1.51-1.91c0-6.1.2-12.2.47-18.3.19-4.14.17-8.28.44-12.41.42-6.3.19-12.61.35-18.92a24.82,24.82,0,0,1,.74-5.74c.31-1.16-.07-2.35-.05-3.53a4.64,4.64,0,0,1,2.24-3.77,8.79,8.79,0,0,1,3.67-1.39c3.91-.68,7.85-.4,11.78-.52,2.58-.08,5.16-.06,7.73-.08a13,13,0,0,1,3.62.49,4.45,4.45,0,0,1,3.48,4.55c0,.61.06,1.21.09,1.82.13,2.11-.66,3.19-2.77,3.53-.89.15-.93.37-.43,1,1.84,2.44,2.21,5.35,2.59,8.24.62,4.74,1.42,9.46,1.82,14.23.48,5.95.85,11.91,1,17.88.09,5.36.2,10.71.07,16.08,0,1.08-.38,1.3-1.34,1.26-1.85-.09-1.66.35-1.58-1.59.27-7.2,0-14.39-.26-21.57a200.61,200.61,0,0,0-2.33-24.09c-.3-1.94-.47-3.9-.92-5.82a11.76,11.76,0,0,0-2.19-4.66,1,1,0,0,0-1-.46q-2.37.32-4.74.57c-.49,0-.75.14-.57.74A46.13,46.13,0,0,1,376.35,321c.16,3.56.62,7.09.91,10.64.39,4.59.46,9.21.43,13.82,0,4.86.45,9.69.37,14.55,0,1.75.28,3.51.27,5.28,0,.81-.26,1-1,.81-1.94-.38-1.94-.35-2.05-2.31-.43-8-.62-16-.68-24a138.5,138.5,0,0,0-.94-14.1c-.29-2.63-.16-5.29-.49-7.92a64.06,64.06,0,0,0-1.24-7.52,1.07,1.07,0,0,0-1.25-1c-2.1,0-4.2-.09-6.3-.23a1.23,1.23,0,0,0-1.4.83,20,20,0,0,0-1.54,6.5,242.76,242.76,0,0,0-1.3,27.23C360.11,345,360,356.3,360,360.54Zm8.8-54.55a51.79,51.79,0,0,0,14.06-1.88,17.7,17.7,0,0,0,2-.73c.33-.13.58-.41.41-.8s-.51-.41-.86-.31a5.66,5.66,0,0,0-.58.2,41.66,41.66,0,0,1-9.63,2,56.68,56.68,0,0,1-16.79-.89,1.88,1.88,0,0,0-1.1,0,.62.62,0,0,0-.47.59c0,.35.27.4.56.47A57.42,57.42,0,0,0,368.81,306Z"/><path class="cls-39" d="M368.81,306a57.42,57.42,0,0,1-12.4-1.33c-.29-.07-.55-.12-.56-.47a.62.62,0,0,1,.47-.59,1.88,1.88,0,0,1,1.1,0,56.68,56.68,0,0,0,16.79.89,41.66,41.66,0,0,0,9.63-2,5.66,5.66,0,0,1,.58-.2c.35-.1.7-.07.86.31s-.08.67-.41.8a17.7,17.7,0,0,1-2,.73A51.79,51.79,0,0,1,368.81,306Z"/><path class="cls-5" d="M337.1,359.49l-2.35.25a1.28,1.28,0,0,1-1.47-.74,1.08,1.08,0,0,1,.49-1.44c.94-.54.75-1.19.49-2-2.34-7.35-5-14.59-7.75-21.8a38.86,38.86,0,0,1-2.05-7.42,3.77,3.77,0,0,0-.7-1.91c-.74,1.4-1.42,2.67-2.1,3.94-3.83,7.12-7.15,14.48-10.25,21.94a60.45,60.45,0,0,1-3.32,6.7c-.49.85-1,1.64.12,2.45a.94.94,0,0,1,.16,1.3,1.23,1.23,0,0,1-1.32.62c-.69-.15-1.36-.4-2-.6a4.09,4.09,0,0,0-1.43-.51,2.86,2.86,0,0,0-1.35-.48,4.81,4.81,0,0,0-1.9-.45,1.6,1.6,0,0,0-1.26-.51,1.51,1.51,0,0,0-1.21-.49,1.44,1.44,0,0,0-1.37-.45,1.78,1.78,0,0,0-1.49-.72c-1.25-.88-2.8-1.28-3.9-2.42-.36-.36-.88-.61-.79-1.22s.59-.8,1.13-.84.5-.33.66-.6a67.51,67.51,0,0,0,4.29-9.25c3.68-9.07,6.13-18.55,9.59-27.69,1.18-3.12,2.34-6.23,3.38-9.39,1.92-5.84,6.27-9.57,11.22-12.74,5.37-3.44,11.46-4.65,17.6-5.77,4-.73,7.93-1.51,11.94-1.92a2.1,2.1,0,0,0,2.07,2c1,.1,2,.27,2.95.3a72.31,72.31,0,0,0,14.22-1.53c2.41-.42,4.82-.86,7.22-1.29a44,44,0,0,0-.25,4.59,3.06,3.06,0,0,0,1.63,2.72,6.89,6.89,0,0,0,6,.28,9.87,9.87,0,0,1-2.51,6.14c-1.12,1.31-2.83,1.72-4.42,2.14A139.49,139.49,0,0,1,361.18,304c-5.17.75-10.29,1.76-15.48,2.27-1.69.16-3.36.49-5.05.73-.63.09-1,.22-.77,1,1.95,8,3,16.24,4.84,24.3,1.64,7.21,2.44,14.57,4.2,21.76.2.8.46,1.25,1.36,1.28a1.26,1.26,0,0,1,1.36,1.22c0,.87-.56,1.08-1.26,1.3a8.84,8.84,0,0,1-2.34.21,4.53,4.53,0,0,0-1.93.24l-1.21,0a3.64,3.64,0,0,0-1.6.22h-1.24a4.93,4.93,0,0,0-1.62.24,2.06,2.06,0,0,0-1.24.24A6.09,6.09,0,0,0,337.1,359.49Zm-6.87-66c-.2.09-.46.18-.7.31a11.07,11.07,0,0,0-3.69,3.14,22.37,22.37,0,0,0-4.32,16.81,20.33,20.33,0,0,0,1.28,5.65c.17.39.37.89.93.67s.29-.67.17-1a28.14,28.14,0,0,1-1.13-9.26,18.72,18.72,0,0,1,7.31-15,6.09,6.09,0,0,0,.55-.46c.14-.14.27-.31.16-.52S330.5,293.49,330.23,293.48ZM310.12,332a2.4,2.4,0,0,0,.65-.15,41.48,41.48,0,0,0,9.62-6,3,3,0,0,0,1-1.44c.08-.31.11-.65-.26-.83s-.52.05-.72.26c-3,3.13-6.75,5.15-10.64,6.95-.35.16-.83.28-.7.79S309.6,332,310.12,332Zm-6.28,3.64c0-.63,0-1.15,0-1.66s.05-1.11-.57-1.12-.51.63-.56,1c-.49,4.48,1.2,8.38,3.29,12.16a.9.9,0,0,0,.15.19c.23.28.48.58.89.34s.29-.6.12-.94-.27-.39-.37-.61C305.39,342,303.6,339,303.84,335.61Zm33-42.68A1.13,1.13,0,0,0,338,293l13.07-3.94a1.83,1.83,0,0,0,.32-.14c.26-.16.66-.26.49-.68s-.45-.27-.73-.21a5.45,5.45,0,0,0-.58.14,109.69,109.69,0,0,0-11.87,3.75A5,5,0,0,0,336.88,292.93Zm6.55,41c.05-.28.09-.6-.27-.68s-.64.25-.79.57c-1.25,2.74-2.5,5.47-3.73,8.21-.19.41-.28.89.24,1.12s.82-.17,1-.56c.6-1.25,1.21-2.49,1.75-3.76A27.6,27.6,0,0,0,343.43,334Zm-6.34,4.84c0-.39-.34-.56-.7-.66a5.15,5.15,0,0,1-2.9-1.92c-.19-.25-.42-.61-.75-.4s-.23.65-.05,1a5.46,5.46,0,0,0,3.58,2.5C336.63,339.38,337,339.32,337.09,338.81Z"/><path class="cls-40" d="M376.58,284.84c-2.4.43-4.81.87-7.22,1.29a72.31,72.31,0,0,1-14.22,1.53c-1,0-2-.2-2.95-.3a2.1,2.1,0,0,1-2.07-2c.25-6.17,1.48-12.23,2.15-18.35.23-2.06.09-2.58-1.82-3.42a71.91,71.91,0,0,0-9.1-3c-2.61-.75-2.62-.73-2-3.38.57-2.81,1.15-5.63,1.72-8.45.82-2.7.81-2.6,3.76-2.22s5.72.76,8.56,1.25c.63.11.83-.19,1-.67a77.36,77.36,0,0,0,2.58-7.51c1-3,2-6,3.09-9,.24-.66.75-.86,1.24-1.17A30.58,30.58,0,0,0,369,225a5.73,5.73,0,0,0,1.69-2,4.31,4.31,0,0,1,5.56,1.52,24.37,24.37,0,0,1,5.31,12,34.6,34.6,0,0,0,1.58,6.93c1,2.92,1.2,6,2.1,9a65.29,65.29,0,0,1,2.38,9.19c.81,5.58,2.74,11,2.54,16.74a2.93,2.93,0,0,1-1.6,2.8,15.51,15.51,0,0,1-3.7,1.58C382.14,283.57,379.37,284.24,376.58,284.84Zm0-41.3a3.35,3.35,0,0,0-1.15,2.2c-.84,3.18-1.46,6.41-2.6,9.5-2.39,6.47-7,9.76-13.86,9.87a18.85,18.85,0,0,0-3.44.17c-.36.07-.76.16-.68.64s.44.38.77.38c1.58,0,3.17,0,4.75-.08a14.23,14.23,0,0,0,12.69-8.4,34.2,34.2,0,0,0,2.85-9.16A24.93,24.93,0,0,0,376.58,243.54Zm-11.9-8.08c0-.44,0-.86-.44-.93s-.5.32-.58.63c-1,3.53-2.83,6.7-4.32,10-.15.34-.53.76-.06,1s.69-.2.93-.51a3.78,3.78,0,0,0,.3-.51c.92-1.89,1.87-3.76,2.73-5.67A21.27,21.27,0,0,0,364.68,235.46Zm-5.85,18.83c.53-.16.41-.55.28-.93a22.66,22.66,0,0,0-1.88-3.83c-.15-.26-.35-.64-.72-.4s-.19.59,0,.87a34.74,34.74,0,0,1,1.81,3.86A.6.6,0,0,0,358.83,254.29Zm-3.86-4c0-.46,0-.88-.42-1s-.5.29-.62.59c-.33.85-.68,1.69-1,2.53-.13.31-.18.63.15.85s.62,0,.8-.25A7.77,7.77,0,0,0,355,250.28Zm20.95-15.82a8,8,0,0,0-.7-3,.58.58,0,0,0-.78-.32c-.28.11-.3.32-.11.56a5.32,5.32,0,0,1,.75,2.78c.06.36,0,.92.55.84S375.9,234.78,375.92,234.46Z"/><path class="cls-41" d="M370.71,223a5.73,5.73,0,0,1-1.69,2,30.58,30.58,0,0,1-7.68,4.41c0-.9,0-1.81,0-2.71s-.39-1-1.12-.82a8.15,8.15,0,0,1-2.64.52A2.93,2.93,0,0,1,355,225a12.08,12.08,0,0,1-1.49-4.15,2,2,0,0,0,1.8.13,6.63,6.63,0,0,0,3.93-3.37c.23-.43.68-.94,0-1.32s-.91.19-1.15.65a5.67,5.67,0,0,1-3.88,3,.91.91,0,0,0-.76.78,1.69,1.69,0,0,1-.2-.54c0-1.12-.24-1.86-1.66-1.68-.88.11-1.33-.56-1.41-1.42a2.39,2.39,0,0,1,.4-1.7c1.81-2.33,2-5.09,2.17-7.85,0-.51.17-1,.25-1.51.82-.33,1.62-.72,2,.58.13.43.64.52,1.1.55a6.09,6.09,0,0,0,2.68-.37c.63-.24,1.08-.39,1.22.52a.85.85,0,0,0,.79.63c1.21.05,1,.73.81,1.53s-.43,1.61.29,2.09,1.27-.3,1.82-.71l.09-.07c.27-.15.55-.49.84-.28s.07.62,0,.87c-.43.93-1,1.81-1.37,2.75a3.5,3.5,0,0,0,1.12,4.24,2.86,2.86,0,0,0,4-.52C368.28,219.93,368.64,221.85,370.71,223ZM354.2,210.17c-.68.14-.86.69-.91,1.3,0,.44.2.81.68.78.71-.05,1-.56,1-1.22C355,210.54,354.8,210.19,354.2,210.17Z"/><path class="cls-7" d="M368.42,217.79a2.86,2.86,0,0,1-4,.52,3.5,3.5,0,0,1-1.12-4.24c.4-.94.94-1.82,1.37-2.75.12-.25.37-.64,0-.87s-.57.13-.84.28l-.09.07c-.55.41-1.06,1.22-1.82.71s-.44-1.38-.29-2.09.4-1.48-.81-1.53a.85.85,0,0,1-.79-.63c-.14-.91-.59-.76-1.22-.52a6.09,6.09,0,0,1-2.68.37c-.46,0-1-.12-1.1-.55-.39-1.3-1.19-.91-2-.58l-1.65.13a2.2,2.2,0,0,1-2.27-1.21,2,2,0,0,1,.6-2.17c2-2.32,4.52-3.81,7.73-3.63a1.78,1.78,0,0,0,1.17-.43c4-2.67,8.38-1,10.68,2.92a8.68,8.68,0,0,1,1.1,4.52c.05,3.32.27,6.65-1,9.84A4,4,0,0,1,368.42,217.79Z"/><path class="cls-42" d="M286.87,361.46a5.1,5.1,0,0,1,2.73,1c-.34,1.59.2,3.14.18,4.72a.84.84,0,0,0,.71.84.7.7,0,0,0,.84-.52,9.26,9.26,0,0,0-.46-4.86c-.06-.17-.39-.23-.6-.34,0-1,0-2.05,0-3.07s.41-1.28,1.3-1.14a23.48,23.48,0,0,0,3,.62l1.77.27,1.3.21,1.08.38c.94.82.53,1.67.06,2.51-.31.54-.67,1-1,1.58s-.32.9.37,1a2.14,2.14,0,0,0,1.75.52,1.87,1.87,0,0,0,1.52,0h1.43c.89-.12,1.06.31.94,1.11a17.14,17.14,0,0,1-1.85,4.86,1.81,1.81,0,0,1-1.83.87,28.66,28.66,0,0,1-9.59-2,50.69,50.69,0,0,0-5.76-1.83c-1.57-.38-3.12-1-3.37-3a5,5,0,0,1,1.93-4.12c.38.51.18,1.15.39,1.69.15.38.31.78.8.7a.82.82,0,0,0,.67-1c-.05-.58-.14-1.16-.22-1.74a2.16,2.16,0,0,1,1.77.63c-.3.18-.79.26-.73.68a13.25,13.25,0,0,1,0,3.27.67.67,0,0,0,.56.69c.36.08.58-.16.76-.44A3.72,3.72,0,0,0,286.87,361.46Z"/><path class="cls-43" d="M341.08,248.69c-.57,2.82-1.15,5.64-1.72,8.45-2.65,0-5.13.94-7.71,1.35-.11,0-.23.06-.35.07-.9.08-2,.36-2.38-.74s.53-1.66,1.36-2.15a6.17,6.17,0,0,0,.6-.39.54.54,0,0,0,.26-.61c-.08-.29-.36-.26-.59-.29-1-.14-2-.25-3.05-.42-.66-.11-1.3-.37-1.24-1.18s.68-1,1.36-1.08c.93,0,1.86,0,2.81-.11-.84-.63-1.9-.52-2.83-.84-.41-.14-.84-.2-1.25-.36a1.18,1.18,0,0,1,.37-2.32,25.94,25.94,0,0,1,4.48.51c.33,0,.77.29,1-.12s-.32-.56-.58-.75c-.67-.49-1.36-1-2-1.43-.5-.35-.84-.79-.52-1.41a1,1,0,0,1,1.51-.43,17.53,17.53,0,0,0,4.62,1.47c.6.15.83.14.63-.56a4.16,4.16,0,0,1,0-1.89,1.16,1.16,0,0,1,1.07-1.1c.61,0,.92.4,1,.95.37,1.81,1.51,3.22,2.41,4.75A1.54,1.54,0,0,0,341.08,248.69Z"/><path class="cls-44" d="M336.73,369.28a15.9,15.9,0,0,0-2.05-3.43c-.69-1.13,2.22-2.54,2.94-3a5.21,5.21,0,0,0,2.27-1.09,2.8,2.8,0,0,0,1.22-.57,2.52,2.52,0,0,1,1.4.24,2.89,2.89,0,0,1,.37,1.44V367a2.06,2.06,0,0,0,1.12-.65,2.72,2.72,0,0,0,1-.81,2,2,0,0,0,1.16-1l1.15-.89,1.67,0c2,1.52,2.19,3.51.65,5.5a12.18,12.18,0,0,1-5.41,3.49,74.13,74.13,0,0,1-11.3,3.47c-1,.23-2.19.41-2.81-.83a2.72,2.72,0,0,1,1-3.34,8.24,8.24,0,0,1,3.05-1.25c.18,1,1.28,1.25,1.61,2.13.16.42.5.79,1,.46s.35-.79.1-1.15c-.46-.64-1-1.22-1.5-1.83.29-.45.77-.46,1.22-.54.94.67,2.18.85,2.9,1.88.14.2.53.17.77,0a.61.61,0,0,0,.15-.75C340,369.72,337.9,368.85,336.73,369.28Zm-2.32,4.93c.45-.1.66-.45.45-.85a3.6,3.6,0,0,0-1.92-1.64.52.52,0,0,0-.75.49A6.72,6.72,0,0,0,334.41,374.21Z"/><path class="cls-45" d="M376.58,284.84c2.79-.6,5.56-1.27,8.3-2a62.54,62.54,0,0,1-.22,7.24,6.27,6.27,0,0,1-.48,2l-.15.35,0,.1a6.89,6.89,0,0,1-6-.28,3.06,3.06,0,0,1-1.63-2.72A44,44,0,0,1,376.58,284.84Z"/><path class="cls-46" d="M353.51,220.68a.91.91,0,0,1,.76-.78,5.67,5.67,0,0,0,3.88-3c.24-.46.53-1,1.15-.65s.2.89,0,1.32a6.63,6.63,0,0,1-3.93,3.37,2,2,0,0,1-1.8-.13A.27.27,0,0,1,353.51,220.68Z"/><path class="cls-47" d="M349,363.58l-1.67,0-1.2-5.26a4.53,4.53,0,0,1,1.93-.24C348.35,359.93,348.67,361.76,349,363.58Z"/><path class="cls-48" d="M290.27,362.32c.21.11.54.17.6.34a9.26,9.26,0,0,1,.46,4.86.7.7,0,0,1-.84.52.84.84,0,0,1-.71-.84c0-1.58-.52-3.13-.18-4.72Z"/><path class="cls-47" d="M302.85,365.24h-1.43l2.16-5a4.09,4.09,0,0,1,1.43.51C304.6,362.41,303.47,363.7,302.85,365.24Z"/><path class="cls-47" d="M339.89,361.8a5.21,5.21,0,0,1-2.27,1.09c-.17-1.13-.34-2.26-.52-3.4a6.09,6.09,0,0,1,2.1-.42Z"/><path class="cls-48" d="M286.87,361.46a3.72,3.72,0,0,1,.46,4.16c-.18.28-.4.52-.76.44a.67.67,0,0,1-.56-.69,13.25,13.25,0,0,0,0-3.27c-.06-.42.43-.5.73-.68Z"/><path class="cls-48" d="M336.73,369.28c1.17-.43,3.28.44,3.67,1.53a.61.61,0,0,1-.15.75c-.24.18-.63.21-.77,0-.72-1-2-1.21-2.9-1.88Z"/><path class="cls-48" d="M335.36,370.23c.5.61,1,1.19,1.5,1.83.25.36.38.85-.1,1.15s-.85,0-1-.46c-.33-.88-1.43-1.16-1.61-2.13C334.42,370.1,334.9,370.2,335.36,370.23Z"/><path class="cls-48" d="M285,360.79c.08.58.17,1.16.22,1.74a.82.82,0,0,1-.67,1c-.49.08-.65-.32-.8-.7-.21-.54,0-1.18-.39-1.69C283.74,360.29,284.25,360,285,360.79Z"/><path class="cls-47" d="M296.3,359l-1.77-.27c.09-.55.58-1,.47-1.57a1.78,1.78,0,0,1,1.49.72C296.43,358.25,296.37,358.63,296.3,359Z"/><path class="cls-49" d="M384,292.33l.15-.35Z"/><path class="cls-50" d="M330.23,293.48c.27,0,.46.06.56.26s0,.38-.16.52a6.09,6.09,0,0,1-.55.46,18.72,18.72,0,0,0-7.31,15A28.14,28.14,0,0,0,323.9,319c.12.37.33.83-.17,1s-.76-.28-.93-.67a20.33,20.33,0,0,1-1.28-5.65,22.37,22.37,0,0,1,4.32-16.81,11.07,11.07,0,0,1,3.69-3.14C329.77,293.66,330,293.57,330.23,293.48Z"/><path class="cls-50" d="M310.12,332c-.52,0-.94,0-1.05-.42s.35-.63.7-.79c3.89-1.8,7.63-3.82,10.64-6.95.2-.21.4-.4.72-.26s.34.52.26.83a3,3,0,0,1-1,1.44,41.48,41.48,0,0,1-9.62,6A2.4,2.4,0,0,1,310.12,332Z"/><path class="cls-50" d="M303.84,335.61c-.24,3.43,1.55,6.36,2.94,9.4.1.22.26.4.37.61s.28.7-.12.94-.66-.06-.89-.34A.9.9,0,0,1,306,346c-2.09-3.78-3.78-7.68-3.29-12.16.05-.41,0-1,.56-1s.56.65.57,1.12S303.84,335,303.84,335.61Z"/><path class="cls-50" d="M336.88,292.93a5,5,0,0,1,1.82-1,109.69,109.69,0,0,1,11.87-3.75,5.45,5.45,0,0,1,.58-.14c.28-.06.6-.09.73.21s-.23.52-.49.68a1.83,1.83,0,0,1-.32.14L338,293A1.13,1.13,0,0,1,336.88,292.93Z"/><path class="cls-50" d="M343.43,334a27.6,27.6,0,0,1-1.78,4.9c-.54,1.27-1.15,2.51-1.75,3.76-.2.39-.49.8-1,.56s-.43-.71-.24-1.12c1.23-2.74,2.48-5.47,3.73-8.21.15-.32.37-.66.79-.57S343.48,333.69,343.43,334Z"/><path class="cls-47" d="M299.9,365.24a2.14,2.14,0,0,1-1.75-.52,54.7,54.7,0,0,1,2.18-5.39,4.81,4.81,0,0,1,1.9.45Q301.06,362.51,299.9,365.24Z"/><path class="cls-47" d="M346.16,364.49a2,2,0,0,1-1.16,1,40.07,40.07,0,0,1-1.7-6.93,3.64,3.64,0,0,1,1.6-.22Z"/><path class="cls-51" d="M343.3,358.58a40.07,40.07,0,0,0,1.7,6.93,2.72,2.72,0,0,1-1,.81c-.37-1.14-.74-2.28-1.12-3.41a2.89,2.89,0,0,0-.37-1.44l-.45-2.88Z"/><path class="cls-51" d="M299.9,365.24q1.16-2.73,2.33-5.46a2.86,2.86,0,0,1,1.35.48l-2.16,5A1.87,1.87,0,0,1,299.9,365.24Z"/><path class="cls-51" d="M346.16,364.49l-1.26-6.13,1.21,0,1.2,5.26Z"/><path class="cls-50" d="M337.09,338.81c-.09.51-.46.57-.82.48a5.46,5.46,0,0,1-3.58-2.5c-.18-.31-.3-.74.05-1s.56.15.75.4a5.15,5.15,0,0,0,2.9,1.92C336.75,338.25,337,338.42,337.09,338.81Z"/><path class="cls-51" d="M300.33,359.33a54.7,54.7,0,0,0-2.18,5.39c-.69-.14-.62-.58-.37-1s.65-1,1-1.58c.47-.84.88-1.69-.06-2.51l.39-.77A1.6,1.6,0,0,1,300.33,359.33Z"/><path class="cls-47" d="M342.06,358.59l.45,2.88a2.52,2.52,0,0,0-1.4-.24c-.23-.8-.45-1.6-.67-2.4A4.93,4.93,0,0,1,342.06,358.59Z"/><path class="cls-51" d="M340.44,358.83c.22.8.44,1.6.67,2.4a2.8,2.8,0,0,1-1.22.57l-.69-2.73A2.06,2.06,0,0,1,340.44,358.83Z"/><path class="cls-51" d="M296.3,359c.07-.37.13-.75.19-1.12a1.44,1.44,0,0,1,1.37.45c-.09.29-.18.59-.26.88Z"/><path class="cls-47" d="M297.6,359.21c.08-.29.17-.59.26-.88a1.51,1.51,0,0,1,1.21.49l-.39.77Z"/><path class="cls-52" d="M376.58,243.54a24.93,24.93,0,0,1-.67,5.12,34.2,34.2,0,0,1-2.85,9.16,14.23,14.23,0,0,1-12.69,8.4c-1.58.08-3.17,0-4.75.08-.33,0-.7,0-.77-.38s.32-.57.68-.64a18.85,18.85,0,0,1,3.44-.17c6.87-.11,11.47-3.4,13.86-9.87,1.14-3.09,1.76-6.32,2.6-9.5A3.35,3.35,0,0,1,376.58,243.54Z"/><path class="cls-53" d="M364.68,235.46a21.27,21.27,0,0,1-1.44,4.07c-.86,1.91-1.81,3.78-2.73,5.67a3.78,3.78,0,0,1-.3.51c-.24.31-.49.77-.93.51s-.09-.7.06-1c1.49-3.32,3.33-6.49,4.32-10,.08-.31.18-.69.58-.63S364.67,235,364.68,235.46Z"/><path class="cls-53" d="M358.83,254.29a.6.6,0,0,1-.55-.43,34.74,34.74,0,0,0-1.81-3.86c-.15-.28-.25-.67,0-.87s.57.14.72.4a22.66,22.66,0,0,1,1.88,3.83C359.24,253.74,359.36,254.13,358.83,254.29Z"/><path class="cls-53" d="M355,250.28a7.77,7.77,0,0,1-1.11,2.75c-.18.28-.46.48-.8.25s-.28-.54-.15-.85c.34-.84.69-1.68,1-2.53.12-.3.22-.66.62-.59S355,249.82,355,250.28Z"/><path class="cls-53" d="M375.92,234.46c0,.32.16.82-.29.89s-.49-.48-.55-.84a5.32,5.32,0,0,0-.75-2.78c-.19-.24-.17-.45.11-.56a.58.58,0,0,1,.78.32A8,8,0,0,1,375.92,234.46Z"/><path class="cls-46" d="M354.2,210.17c.6,0,.79.37.77.86,0,.66-.29,1.17-1,1.22-.48,0-.71-.34-.68-.78C353.34,210.86,353.52,210.31,354.2,210.17Z"/><path class="cls-48" d="M334.41,374.21a6.72,6.72,0,0,1-2.22-2,.52.52,0,0,1,.75-.49,3.6,3.6,0,0,1,1.92,1.64C335.07,373.76,334.86,374.11,334.41,374.21Z"/><path class="cls-53" d="M342.88,362.91c.38,1.13.75,2.27,1.12,3.41a2.06,2.06,0,0,1-1.12.65Z"/><path class="cls-54" d="M245.28,264.94l.2-.38c0,.12,0,.25.05.37Z"/><path class="cls-29" d="M370.68,285c-1.43-1.55-26.2-20-26.2-20l-161-.38s-32.94,14.85-40.57,18.24a2.75,2.75,0,0,0-1.74,3.34,2.56,2.56,0,0,0,2.72,2.09c1.43,0,2.86,0,4.29,0,5,0,9.93,0,14.89,0,1,0,1.4.28,1,1.34a35.33,35.33,0,0,0-1.29,5.18c-1.55,6.55-3.27,13.05-4.6,19.64-1.09,5.4-2.21,10.8-3.23,16.21-1.26,6.65-2.57,13.29-3.83,19.93-1.19,6.25-2.05,12.57-3.48,18.77-.81,3.56-1.64,7.12-2.55,10.66-.28,1.11,0,1.44,1.1,1.43a16.74,16.74,0,0,1,3.32.3c.87.17,1.2-.06,1.39-.88.76-3.17,1.62-6.31,2.35-9.47,1.49-6.42,2.49-12.93,3.65-19.42s2.56-13.19,3.88-19.78c1.6-7.94,3.17-15.89,4.87-23.81,1.32-6.14,2.88-12.23,4.23-18.36.28-1.32.71-1.78,2.13-1.77,30,0,60,0,90,0,28.35.05,56.7-.26,85,.27.09,0,1.3.17,1.32,1,0,1.82,4.81,42.36,4.86,45.76a47.28,47.28,0,0,0,.67,6.49c.69,4.31,1.72,16,1.86,17.49.26,2.65,1,5.23.92,7.92.21,1.76,1.38,10.88,1.43,12.94,0,.48.68.49,1,.49,1.33,0,2.67,0,4,0,.77,0,.93-.28.82-1.07-.54-3.73-2.07-18.5-2.43-21.59-.6-5.15-4.33-43.09-4.89-47-.4-2.81-1.83-17.28-2.65-21.64-.06-.34-.26-.86.58-.84,4.6.08,9.2.08,13.8.12a4.67,4.67,0,0,0,1.44-.23C371.85,287.64,372.12,286.53,370.68,285Z"/><path class="cls-55" d="M249.79,267.27c-.73,1.43-1.43,2.87-2.3,4.23a1.77,1.77,0,0,1-1.74.92c-5.05,0-10.1-.08-15.15,0-11.93.19-23.85-.11-35.78-.17-4.06,0-8.13-.17-12.19-.09A3.87,3.87,0,0,1,179.5,271c-.95-2.38.33-4.29,3-4.3,6.62,0,13.23,0,19.84,0a2.37,2.37,0,0,0,2.35-1.28c2.41-3.94,11-20.29,11.92-22.23a1.55,1.55,0,0,1,1.68-.93q16.55,0,33.1,0c3.76,0,7.51.06,11.26,0,1.36,0,1.23.46.8,1.37a152.27,152.27,0,0,1-8.88,15.23q-2.44,3.93-4.55,8Z"/><path class="cls-56" d="M238.79,257c0,2.28-1.47,3.64-3.84,3.55a3.07,3.07,0,0,1-2.87-2.66c0-1.57,2.09-3.81,3.57-3.79C237.71,254.17,238.79,255.17,238.79,257Z"/><path class="cls-5" d="M324.1,266.1c.3,1.88.31,1.81,2.14,1.89,5.4.26,10.8.08,16.2.22a2.2,2.2,0,0,1,2.25,1.16c.89,2.08,0,3.12-1.89,3.11-18.68-.05-37.35,0-56-.05-1.52,0-3-.17-4.54-.16-1,0-1.43-.69-1.75-1.4-.72-1.59-1.35-3.21-2-4.82-1.1-4-3-7.72-4.38-11.65-.89-2.61-1.76-5.24-2.58-7.88-.54-1.74,0-2.48,1.82-2.48q21,0,41.94,0a2.24,2.24,0,0,1,2.4,1.83c2,6.47,3.73,13,6.09,19.4C323.87,265.53,324,265.81,324.1,266.1Z"/><path class="cls-57" d="M295.78,260.27c-2.26,0-4.13-1.46-4.12-3.2s1.33-2.94,3.61-2.93,3.82,1.1,3.8,2.73A3.4,3.4,0,0,1,295.78,260.27Z"/></g></g></svg>